<svg width="25" height="20" viewBox="0 0 25 20" fill="none"
    xmlns="http://www.w3.org/2000/svg">
    <path d="M4.16667 0C3.0616 0 2.00179 0.421427 1.22039 1.17157C0.438987 1.92172 0 2.93913 0 4V4.402L12.5 10.864L25 4.404V4C25 2.93913 24.561 1.92172 23.7796 1.17157C22.9982 0.421427 21.9384 0 20.8333 0H4.16667ZM25 6.674L12.9938 12.88C12.842 12.9584 12.6723 12.9995 12.5 12.9995C12.3277 12.9995 12.158 12.9584 12.0062 12.88L0 6.674V16C0 17.0609 0.438987 18.0783 1.22039 18.8284C2.00179 19.5786 3.0616 20 4.16667 20H20.8333C21.9384 20 22.9982 19.5786 23.7796 18.8284C24.561 18.0783 25 17.0609 25 16V6.674Z" fill="currentColor"/>
</svg>
