<svg width="165" height="71" viewBox="0 0 165 71" fill="none"
    xmlns="http://www.w3.org/2000/svg">
    <ellipse cx="41.2771" cy="32.9375" rx="22.2914" ry="22.4219" fill="currentColor" fill-opacity="0.15"/>
    <ellipse cx="161.433" cy="67.2031" rx="3.26216" ry="3.28125" fill="currentColor"/>
    <path fill-rule="evenodd" clip-rule="evenodd" d="M21.6176 8.48929C17.6455 11.621 14.4895 15.6379 12.4113 20.2072L11.4119 19.768C13.5612 15.0426 16.8249 10.8886 20.9327 7.64993C25.0405 4.41128 29.8742 2.18125 35.0334 1.14455C40.1927 0.10785 45.529 0.294315 50.6003 1.6885C55.6716 3.08268 60.332 5.64447 64.1955 9.16165L64.1954 10.4004C60.4596 6.99932 55.2093 4.07287 50.3054 2.72473C45.4016 1.37659 40.2415 1.19628 35.2527 2.19875C30.2638 3.20121 25.5898 5.35759 21.6176 8.48929Z" fill="currentColor"/>
    <path fill-rule="evenodd" clip-rule="evenodd" d="M22.159 57.227C18.1868 54.0953 15.0309 50.0784 12.9527 45.5091L11.9533 45.9482C14.1026 50.6736 17.3663 54.8277 21.4741 58.0663C25.5819 61.305 30.4156 63.535 35.5748 64.5717C40.7341 65.6084 46.0703 65.422 51.1417 64.0278C56.213 62.6336 60.1296 60.4752 63.9931 56.958V55.7652C60.2572 59.1662 55.7507 61.6434 50.8468 62.9915C45.943 64.3397 40.7829 64.52 35.7941 63.5175C30.8052 62.515 26.1311 60.3587 22.159 57.227Z" fill="currentColor"/>
    <path d="M18.6184 39.4413C18.6763 39.4413 18.7052 39.4962 18.7052 39.6061C18.7052 39.716 18.6763 39.7709 18.6184 39.7709H15.3768L14.248 39.7984C13.9779 39.7984 13.7463 39.7434 13.5534 39.6336C13.3604 39.5237 13.1385 39.3223 12.8877 39.0293C12.6368 38.7363 12.1737 38.1595 11.4984 37.2989L10.3117 35.7883L6.59827 31.1742C6.45387 30.9948 6.38166 30.9051 6.28224 30.8995C6.18281 30.8939 6.10069 30.975 5.93644 31.1371L5.69427 31.3761C5.63051 31.439 5.59863 31.4705 5.58184 31.5104C5.56505 31.5504 5.56505 31.5948 5.56505 31.6836V37.5461C5.56505 38.1138 5.61329 38.5258 5.70977 38.7821C5.80624 39.0385 5.9992 39.2124 6.28863 39.304C6.59736 39.3955 7.07974 39.4413 7.73579 39.4413C7.81297 39.4413 7.85156 39.4962 7.85156 39.6061C7.85156 39.716 7.81297 39.7709 7.73579 39.7709C7.11833 39.7709 6.6263 39.7617 6.25969 39.7434L4.14684 39.716L2.09187 39.7434C1.72526 39.7617 1.21393 39.7709 0.557886 39.7709C0.519295 39.7709 0.5 39.716 0.5 39.6061C0.5 39.4962 0.519295 39.4413 0.557886 39.4413C1.21393 39.4413 1.68667 39.3955 1.9761 39.304C2.28483 39.2124 2.49708 39.0385 2.61285 38.7821C2.72862 38.5074 2.78651 38.0955 2.78651 37.5461V24.8294C2.78651 24.28 2.72862 23.8772 2.61285 23.6208C2.51637 23.3645 2.31377 23.1905 2.00504 23.099C1.69632 22.9891 1.22358 22.9342 0.586829 22.9342C0.548239 22.9342 0.528943 22.8793 0.528943 22.7694C0.528943 22.6595 0.548239 22.6046 0.586829 22.6046L2.12082 22.6321C2.96982 22.6687 3.64516 22.687 4.14684 22.687C4.7257 22.687 5.43963 22.6687 6.28863 22.6321L7.73579 22.6046C7.79367 22.6046 7.82262 22.6595 7.82262 22.7694C7.82262 22.8793 7.79367 22.9342 7.73579 22.9342C7.09904 22.9342 6.6263 22.9891 6.31757 23.099C6.02814 23.2089 5.82554 23.4011 5.70977 23.6758C5.61329 23.9321 5.56505 24.335 5.56505 24.8843V29.6459C5.56505 30.0869 5.56505 30.3074 5.70061 30.3635C5.83618 30.4197 5.99677 30.2658 6.31794 29.9579L11.2379 25.2413C11.8361 24.6737 12.1351 24.1976 12.1351 23.8131C12.1351 23.5385 11.9808 23.3279 11.6721 23.1814C11.3826 23.0166 10.9485 22.9342 10.3696 22.9342C10.331 22.9342 10.3117 22.8793 10.3117 22.7694C10.3117 22.6595 10.331 22.6046 10.3696 22.6046L11.6721 22.6321C12.5211 22.6687 13.2929 22.687 13.9875 22.687C14.74 22.687 15.5022 22.6687 16.274 22.6321L17.5186 22.6046C17.5765 22.6046 17.6054 22.6595 17.6054 22.7694C17.6054 22.8793 17.5765 22.9342 17.5186 22.9342C16.6696 22.9342 15.7337 23.1539 14.7111 23.5934C13.7077 24.0328 12.7912 24.6371 11.9615 25.4061L8.54391 28.6493C8.40739 28.7789 8.33913 28.8436 8.33318 28.9271C8.32722 29.0105 8.38562 29.084 8.50241 29.231L12.5114 34.2777C13.8235 35.9806 14.8076 37.1891 15.4636 37.9032C16.139 38.599 16.6696 39.0293 17.0555 39.1941C17.4414 39.3589 17.9624 39.4413 18.6184 39.4413Z" fill="currentColor"/>
    <path d="M37.325 39.4413C37.3829 39.4413 37.4118 39.4962 37.4118 39.6061C37.4118 39.716 37.3829 39.7709 37.325 39.7709H32.6651C32.2213 39.7709 31.3916 39.011 30.176 37.4912C29.0164 36.0004 27.6031 33.9418 25.9359 31.3156C25.86 31.1959 25.822 31.1361 25.7638 31.1087C25.7055 31.0813 25.6299 31.0903 25.4788 31.1083C25.2642 31.1338 25.0451 31.1465 24.8215 31.1465C24.405 31.1465 24.0608 31.1434 23.7887 31.1372C23.5629 31.132 23.45 31.1294 23.3832 31.1936C23.3165 31.2577 23.3165 31.3664 23.3165 31.5838V37.5461C23.3165 38.1138 23.3647 38.5258 23.4612 38.7821C23.577 39.0385 23.7796 39.2124 24.069 39.304C24.3777 39.3955 24.8601 39.4413 25.5162 39.4413C25.5547 39.4413 25.574 39.4962 25.574 39.6061C25.574 39.716 25.5547 39.7709 25.5162 39.7709C24.8794 39.7709 24.3874 39.7617 24.0401 39.7434L21.8983 39.716L19.8144 39.7434C19.4477 39.7617 18.9461 39.7709 18.3093 39.7709C18.2514 39.7709 18.2225 39.716 18.2225 39.6061C18.2225 39.4962 18.2514 39.4413 18.3093 39.4413C18.9654 39.4413 19.4381 39.3955 19.7275 39.304C20.0363 39.2124 20.2485 39.0385 20.3643 38.7821C20.48 38.5074 20.5379 38.0955 20.5379 37.5461V24.8294C20.5379 24.28 20.48 23.8772 20.3643 23.6208C20.2678 23.3645 20.0652 23.1905 19.7565 23.099C19.4477 22.9891 18.975 22.9342 18.3383 22.9342C18.2997 22.9342 18.2804 22.8793 18.2804 22.7694C18.2804 22.6595 18.2997 22.6046 18.3383 22.6046L19.8433 22.6321C20.6923 22.6687 21.3773 22.687 21.8983 22.687C22.4771 22.687 23.0849 22.6595 23.7217 22.6046C23.9532 22.5863 24.233 22.568 24.561 22.5497C24.8891 22.5314 25.246 22.5222 25.6319 22.5222C27.3492 22.5222 28.671 22.8243 29.5971 23.4286C30.5233 24.0328 30.9864 24.8843 30.9864 25.9829C30.9864 26.8435 30.7163 27.6584 30.176 28.4274C29.7241 29.0707 29.1574 29.6115 28.4759 30.0498C28.2807 30.1754 28.1831 30.2382 28.1648 30.3277C28.1466 30.4172 28.2089 30.5075 28.3334 30.6881C29.7965 32.809 31.0281 34.4908 32.0284 35.7334C33.1089 37.0334 34.064 37.9764 34.8937 38.5624C35.7234 39.1483 36.5339 39.4413 37.325 39.4413ZM23.3165 29.9788C23.3165 30.1576 23.3165 30.2471 23.3732 30.3092C23.4299 30.3713 23.5169 30.3805 23.6908 30.399C24.0722 30.4396 24.507 30.4599 24.9952 30.4599C26.1529 30.4599 26.9633 30.2127 27.4264 29.7183C27.8895 29.2239 28.121 28.3175 28.121 26.9992C28.121 25.516 27.8605 24.4906 27.3396 23.923C26.8186 23.337 26.0854 23.0441 25.1399 23.0441C24.4453 23.0441 23.9629 23.1722 23.6927 23.4286C23.4419 23.6849 23.3165 24.1702 23.3165 24.8843V29.9788Z" fill="currentColor"/>
    <path d="M50.63 25.9555C50.63 25.0033 50.3985 24.2617 49.9354 23.7307C49.4916 23.1997 48.8452 22.9342 47.9962 22.9342C47.9576 22.9342 47.9383 22.8793 47.9383 22.7694C47.9383 22.6595 47.9576 22.6046 47.9962 22.6046L49.3276 22.6321C50.0608 22.6687 50.6396 22.687 51.0641 22.687C51.4115 22.687 51.9324 22.6687 52.6271 22.6321L53.9006 22.6046C53.9392 22.6046 53.9585 22.6595 53.9585 22.7694C53.9585 22.8793 53.9392 22.9342 53.9006 22.9342C53.148 22.9342 52.5595 23.1997 52.135 23.7307C51.7298 24.2617 51.5272 25.0033 51.5272 25.9555V33.646C51.5272 34.9643 51.2282 36.1179 50.63 37.1067C50.0511 38.0771 49.2214 38.8279 48.1409 39.3589C47.0796 39.8899 45.8447 40.1554 44.4362 40.1554C43.0276 40.1554 41.7734 39.8991 40.6735 39.3864C39.5737 38.8554 38.7151 38.1046 38.0976 37.1341C37.4994 36.1454 37.2004 34.9918 37.2004 33.6734V24.8294C37.2004 24.28 37.1425 23.8772 37.0267 23.6208C36.9109 23.3645 36.6987 23.1905 36.39 23.099C36.1005 22.9891 35.6374 22.9342 35.0007 22.9342C34.9428 22.9342 34.9139 22.8793 34.9139 22.7694C34.9139 22.6595 34.9428 22.6046 35.0007 22.6046L36.5057 22.6321C37.3547 22.6687 38.0397 22.687 38.5607 22.687C39.1396 22.687 39.8535 22.6687 40.7025 22.6321L42.1496 22.6046C42.2075 22.6046 42.2365 22.6595 42.2365 22.7694C42.2365 22.8793 42.2075 22.9342 42.1496 22.9342C41.5129 22.9342 41.0402 22.9891 40.7314 23.099C40.442 23.2089 40.2394 23.4011 40.1236 23.6758C40.0079 23.9321 39.95 24.335 39.95 24.8843V32.7121C39.95 34.8911 40.4227 36.5207 41.3682 37.6011C42.333 38.6631 43.674 39.1941 45.3913 39.1941C47.0314 39.1941 48.3145 38.718 49.2407 37.7659C50.1669 36.7954 50.63 35.4313 50.63 33.6734V25.9555Z" fill="currentColor"/>
    <path d="M64.7592 40.1005C62.6367 40.1005 60.7844 39.716 59.2021 38.9469C57.6392 38.1779 56.4429 37.1341 55.6132 35.8158C54.7835 34.4791 54.3686 32.9959 54.3686 31.3663C54.3686 29.6084 54.8414 28.0429 55.7868 26.6696C56.7516 25.278 58.0637 24.2068 59.7231 23.4561C61.4018 22.687 63.2831 22.3025 65.367 22.3025C66.2739 22.3025 67.1808 22.3757 68.0877 22.5222C68.9946 22.6687 69.7278 22.8701 70.2874 23.1265C70.4181 23.1885 70.5073 23.2505 70.555 23.3126C70.5668 23.3278 70.5726 23.3355 70.5765 23.3413C70.5804 23.3471 70.5867 23.3579 70.5992 23.3794C70.6448 23.4577 70.6759 23.584 70.6926 23.7582L71.0399 27.3288C71.0399 27.3837 70.9916 27.4203 70.8952 27.4386C70.7987 27.4569 70.7312 27.4295 70.6926 27.3562C70.1137 25.9829 69.2454 24.9118 68.0877 24.1427C66.93 23.3737 65.5696 22.9891 64.0067 22.9891C61.8842 22.9891 60.2537 23.6483 59.1153 24.9667C57.9769 26.2667 57.4077 28.0612 57.4077 30.35C57.4077 32.1445 57.755 33.7467 58.4496 35.1566C59.1443 36.5665 60.0994 37.6652 61.315 38.4525C62.5499 39.2399 63.9295 39.6336 65.4539 39.6336C66.3029 39.6336 66.9589 39.5512 67.422 39.3864C67.8851 39.2216 68.2228 38.9011 68.435 38.425C68.6666 37.949 68.7823 37.244 68.7823 36.3102C68.7823 35.358 68.7244 34.6988 68.6087 34.3326C68.4929 33.9481 68.2324 33.6917 67.8272 33.5636C67.4413 33.4354 66.7563 33.3713 65.7722 33.3713C65.6565 33.3713 65.5986 33.2981 65.5986 33.1516C65.5986 33.0966 65.6082 33.0509 65.6275 33.0142C65.6661 32.9593 65.7047 32.9318 65.7433 32.9318C67.3448 33.0234 68.628 33.0692 69.5927 33.0692C70.5575 33.0692 71.5609 33.0417 72.6028 32.9868C72.6108 32.9868 72.6184 32.988 72.6256 32.9903C72.6428 32.996 72.6514 32.9988 72.6905 33.042C72.7297 33.0852 72.7348 33.1089 72.7451 33.1565C72.7467 33.164 72.7475 33.1715 72.7475 33.179C72.7475 33.3072 72.6993 33.3713 72.6028 33.3713C72.2169 33.353 71.9468 33.4171 71.7924 33.5636C71.638 33.6917 71.5319 33.9664 71.474 34.3875C71.4354 34.8087 71.4162 35.5411 71.4162 36.5848C71.4162 37.4088 71.4451 37.9947 71.503 38.3427C71.5802 38.6906 71.6188 38.9103 71.6188 39.0018C71.6188 39.1117 71.5898 39.1849 71.5319 39.2216C71.497 39.2381 71.4226 39.2697 71.3086 39.3163C71.2902 39.3238 71.281 39.3276 71.2713 39.3305C71.2615 39.3335 71.2517 39.3356 71.232 39.3397C68.8167 39.8469 66.6591 40.1005 64.7592 40.1005Z" fill="currentColor"/>
    <path d="M78.154 37.4363C78.154 37.9307 78.1926 38.2877 78.2698 38.5075C78.3663 38.7272 78.5399 38.8737 78.7908 38.9469C79.0416 39.0201 79.4468 39.0568 80.0064 39.0568H81.743C83.113 39.0568 84.2707 38.6997 85.2161 37.9856C86.1616 37.2532 86.7887 36.2735 87.0975 35.0467C87.1138 35.0003 87.1577 34.98 87.2291 34.9859C87.2439 34.9871 87.2553 34.9881 87.2629 34.9887C87.2705 34.9894 87.278 34.9901 87.2856 34.9909C87.2922 34.9916 87.3016 34.9926 87.3135 34.9939C87.3817 35.0012 87.4158 35.028 87.4158 35.0742C87.2422 36.7954 87.1553 38.2236 87.1553 39.3589C87.1553 39.4893 87.1324 39.5906 87.0866 39.663C87.0829 39.6688 87.081 39.6718 87.0648 39.6883C87.0485 39.7049 87.047 39.7059 87.0439 39.7079C86.9805 39.7499 86.873 39.7709 86.7212 39.7709H73.1758C73.1372 39.7709 73.1179 39.716 73.1179 39.6061C73.1179 39.4962 73.1372 39.4413 73.1758 39.4413C73.8319 39.4413 74.3046 39.3955 74.594 39.304C74.9027 39.2124 75.1054 39.0385 75.2018 38.7821C75.3176 38.5074 75.3755 38.0955 75.3755 37.5461V24.8294C75.3755 24.28 75.3176 23.8772 75.2018 23.6208C75.1054 23.3645 74.9027 23.1905 74.594 23.099C74.2853 22.9891 73.8126 22.9342 73.1758 22.9342C73.1372 22.9342 73.1179 22.8793 73.1179 22.7694C73.1179 22.6595 73.1372 22.6046 73.1758 22.6046L74.6519 22.6321C75.5009 22.6687 76.1955 22.687 76.7358 22.687C77.3147 22.687 78.0286 22.6687 78.8776 22.6321L80.3248 22.6046C80.3826 22.6046 80.4116 22.6595 80.4116 22.7694C80.4116 22.8793 80.3826 22.9342 80.3248 22.9342C79.688 22.9342 79.2153 22.9891 78.9065 23.099C78.6171 23.1905 78.4145 23.3737 78.2987 23.6483C78.2023 23.9047 78.154 24.3075 78.154 24.8568V37.4363Z" fill="currentColor"/>
    <path d="M97.0544 40.1005C95.2599 40.1005 93.6584 39.7068 92.2498 38.9194C90.8605 38.1138 89.78 37.0334 89.0082 35.6784C88.2556 34.3051 87.8794 32.8128 87.8794 31.2015C87.8794 29.3155 88.3811 27.7041 89.3844 26.3675C90.3878 25.0125 91.6709 23.9962 93.2339 23.3187C94.8161 22.6412 96.4273 22.3025 98.0674 22.3025C99.9004 22.3025 101.512 22.7145 102.901 23.5385C104.29 24.3441 105.351 25.4153 106.085 26.752C106.837 28.0887 107.213 29.5077 107.213 31.0092C107.213 32.6755 106.75 34.2044 105.824 35.596C104.898 36.9877 103.653 38.0863 102.09 38.892C100.547 39.6976 98.8681 40.1005 97.0544 40.1005ZM98.0384 39.4413C99.1962 39.4413 100.228 39.1483 101.135 38.5624C102.062 37.9581 102.785 37.0792 103.306 35.9256C103.846 34.7721 104.116 33.3988 104.116 31.8057C104.116 30.1211 103.817 28.6105 103.219 27.2738C102.64 25.9372 101.801 24.8934 100.701 24.1427C99.6207 23.392 98.3472 23.0166 96.8807 23.0166C95.009 23.0166 93.5522 23.6575 92.5103 24.9392C91.4876 26.2027 90.9763 27.9605 90.9763 30.2127C90.9763 31.9522 91.2754 33.5269 91.8735 34.9369C92.491 36.3468 93.3303 37.4546 94.3916 38.2603C95.4721 39.0476 96.6877 39.4413 98.0384 39.4413Z" fill="currentColor"/>
    <path d="M125.771 22.6046C125.829 22.6046 125.858 22.6595 125.858 22.7694C125.858 22.8793 125.829 22.9342 125.771 22.9342C125.077 22.9342 124.44 23.1814 123.861 23.6758C123.282 24.1702 122.81 24.8843 122.443 25.8181L116.828 39.7434C116.809 39.8167 116.703 39.8533 116.51 39.8533C116.353 39.8533 116.254 39.8293 116.212 39.7812C116.208 39.777 116.217 39.7876 116.209 39.7756C116.201 39.7636 116.191 39.7439 116.172 39.7045L108.869 24.8843C108.521 24.2068 108.174 23.7124 107.827 23.4011C107.479 23.0898 107.064 22.9342 106.582 22.9342C106.524 22.9342 106.495 22.8793 106.495 22.7694C106.495 22.6595 106.524 22.6046 106.582 22.6046L107.335 22.6321C107.759 22.6687 108.241 22.687 108.782 22.687C110.132 22.687 111.348 22.6687 112.429 22.6321C112.737 22.6138 113.133 22.6046 113.615 22.6046C113.673 22.6046 113.702 22.6595 113.702 22.7694C113.702 22.8793 113.673 22.9342 113.615 22.9342C112.4 22.9342 111.792 23.337 111.792 24.1427C111.792 24.454 111.888 24.8019 112.081 25.1864L117.027 35.2282C117.215 35.61 117.309 35.8009 117.453 35.7959C117.597 35.7908 117.677 35.5938 117.837 35.1998L121.69 25.7083C121.864 25.2688 121.951 24.8751 121.951 24.5272C121.951 24.0145 121.768 23.6208 121.401 23.3462C121.054 23.0715 120.523 22.9342 119.809 22.9342C119.751 22.9342 119.722 22.8793 119.722 22.7694C119.722 22.6595 119.751 22.6046 119.809 22.6046L121.198 22.6321C121.932 22.6687 122.607 22.687 123.224 22.687C123.591 22.687 124.044 22.6687 124.585 22.6321L125.771 22.6046Z" fill="currentColor"/>
    <path d="M72.8984 62.518C72.2776 62.518 71.5567 62.4907 70.7357 62.4362C70.4353 62.418 70.0548 62.3998 69.5943 62.3816C69.1337 62.3634 68.613 62.3543 68.0323 62.3543L65.8996 62.3816C65.5191 62.3998 64.9884 62.4089 64.3076 62.4089C64.2675 62.4089 64.2475 62.3543 64.2475 62.2452C64.2475 62.136 64.2675 62.0815 64.3076 62.0815C64.9884 62.0815 65.4791 62.036 65.7794 61.9451C66.0999 61.8541 66.3201 61.6813 66.4403 61.4267C66.5604 61.1538 66.6205 60.7446 66.6205 60.1989V47.5663C66.6205 47.0206 66.5604 46.6205 66.4403 46.3658C66.3401 46.1112 66.1299 45.9384 65.8095 45.8474C65.4891 45.7383 64.9985 45.6837 64.3376 45.6837C64.2976 45.6837 64.2776 45.6291 64.2776 45.52C64.2776 45.4109 64.2976 45.3563 64.3376 45.3563L65.9296 45.3836C66.8108 45.42 67.5116 45.4381 68.0323 45.4381C68.8333 45.4381 69.6443 45.4109 70.4653 45.3563C71.4666 45.3199 72.1375 45.3017 72.4779 45.3017C74.5205 45.3017 76.3327 45.6655 77.9147 46.3931C79.4967 47.1207 80.7183 48.112 81.5793 49.3671C82.4605 50.6221 82.901 52.0318 82.901 53.5961C82.901 55.3605 82.4504 56.9248 81.5493 58.289C80.6482 59.635 79.4367 60.6809 77.9147 61.4267C76.3928 62.1542 74.7207 62.518 72.8984 62.518ZM72.598 61.9723C73.9798 61.9723 75.2013 61.6722 76.2626 61.072C77.344 60.4717 78.1851 59.5895 78.7858 58.4254C79.3866 57.2431 79.687 55.8334 79.687 54.1964C79.687 52.6321 79.3966 51.2224 78.8159 49.9673C78.2552 48.694 77.4541 47.6936 76.4128 46.9661C75.3715 46.2203 74.16 45.8474 72.7783 45.8474C71.9372 45.8474 71.2864 45.8929 70.8258 45.9838C70.3652 46.0748 70.0248 46.2476 69.8045 46.5022C69.6043 46.7387 69.5041 47.1116 69.5041 47.6209V59.8987C69.5041 60.6445 69.7144 61.1811 70.1349 61.5085C70.5555 61.8177 71.3765 61.9723 72.598 61.9723Z" fill="currentColor"/>
    <path d="M97.5462 58.2142C97.5548 58.187 97.5591 58.1734 97.5961 58.1359C97.6331 58.0984 97.5863 58.1142 97.605 58.1079C97.6246 58.1013 97.6514 58.098 97.6855 58.098C97.7077 58.098 97.7286 58.1005 97.7481 58.1055C97.8121 58.1219 97.8441 58.13 97.8804 58.158C97.9167 58.186 97.9189 58.19 97.9233 58.1981C97.9263 58.2036 97.9253 58.2103 97.9244 58.2166C97.7251 59.5953 97.6254 60.8563 97.6254 61.9996C97.6254 62.1292 97.6016 62.2299 97.554 62.3018C97.5501 62.3076 97.5482 62.3105 97.5317 62.3267C97.5153 62.3428 97.5136 62.3439 97.5102 62.3461C97.4445 62.388 97.3327 62.4089 97.1748 62.4089H84.1384C84.0784 62.4089 84.0483 62.3543 84.0483 62.2452C84.0483 62.136 84.0784 62.0815 84.1384 62.0815C84.8193 62.0815 85.3099 62.036 85.6103 61.9451C85.9307 61.8541 86.1409 61.6813 86.2411 61.4267C86.3612 61.1538 86.4213 60.7446 86.4213 60.1989V47.5663C86.4213 47.0206 86.3612 46.6205 86.2411 46.3658C86.1409 46.1112 85.9307 45.9384 85.6103 45.8474C85.2899 45.7383 84.7993 45.6837 84.1384 45.6837C84.0784 45.6837 84.0483 45.6291 84.0483 45.52C84.0483 45.4109 84.0784 45.3563 84.1384 45.3563H96.6342C96.8344 45.3563 96.9345 45.4381 96.9345 45.6018L96.9946 49.1488C96.9946 49.1852 96.9345 49.2125 96.8144 49.2306C96.7143 49.2488 96.6542 49.2306 96.6342 49.1761C96.1535 47.1025 94.7618 46.0657 92.4589 46.0657H91.2574C90.5365 46.0657 90.0258 46.1839 89.7255 46.4204C89.4251 46.6568 89.2749 47.057 89.2749 47.6209V52.7511C89.2749 52.9565 89.2749 53.0592 89.3398 53.123C89.4047 53.1868 89.5092 53.1868 89.7182 53.1868H92.1585C94.3613 53.1868 95.4627 52.5138 95.4627 51.1678C95.4627 51.1132 95.5127 51.086 95.6129 51.086C95.733 51.086 95.7931 51.1132 95.7931 51.1678L95.7631 53.5415L95.7931 54.8239C95.8332 55.406 95.8532 55.8789 95.8532 56.2427C95.8532 56.279 95.7931 56.2972 95.673 56.2972C95.5528 56.2972 95.4927 56.279 95.4927 56.2427C95.4927 54.6784 94.3713 53.8962 92.1285 53.8962H89.7182C89.5092 53.8962 89.4047 53.8962 89.3398 53.9601C89.2749 54.0239 89.2749 54.1266 89.2749 54.332V60.0897C89.2749 60.69 89.3951 61.1083 89.6354 61.3448C89.8957 61.5813 90.3462 61.6995 90.9871 61.6995H92.4589C95.1189 61.6995 96.8147 60.5377 97.5462 58.2142Z" fill="currentColor"/>
    <path d="M102.728 48.2484C102.728 48.9214 102.908 49.5217 103.269 50.0492C103.649 50.5585 104.11 51.0041 104.651 51.3861C105.211 51.7681 105.962 52.2228 106.903 52.7503C107.925 53.3324 108.726 53.8326 109.306 54.2509C109.907 54.6693 110.408 55.1877 110.808 55.8061C111.229 56.4064 111.439 57.1158 111.439 57.9343C111.439 58.8619 111.169 59.6896 110.628 60.4171C110.107 61.1447 109.356 61.7177 108.375 62.136C107.414 62.5362 106.313 62.7363 105.071 62.7363C104.23 62.7363 103.359 62.6363 102.458 62.4362C101.577 62.2361 100.906 61.9905 100.445 61.6995C100.265 61.5904 100.165 61.4176 100.145 61.1811L99.9646 57.0339V57.0066C99.9646 56.9445 100.001 56.9089 100.074 56.8998C100.098 56.8969 100.11 56.8954 100.113 56.8951C100.117 56.8947 100.13 56.894 100.155 56.8925C100.218 56.8888 100.261 56.9081 100.284 56.9504C100.29 56.963 100.274 56.9315 100.275 56.9352C100.277 56.9389 100.287 56.9619 100.308 57.0079C100.965 58.5047 101.712 59.732 102.548 60.69C103.409 61.654 104.5 62.136 105.822 62.136C106.683 62.136 107.404 61.9269 107.985 61.5085C108.565 61.072 108.856 60.3535 108.856 59.3531C108.856 58.5527 108.656 57.8524 108.255 57.2522C107.875 56.6519 107.394 56.1517 106.813 55.7516C106.253 55.3514 105.482 54.8603 104.5 54.2782C103.539 53.7143 102.788 53.2414 102.247 52.8594C101.707 52.4593 101.246 51.9772 100.866 51.4134C100.485 50.8313 100.295 50.1583 100.295 49.3943C100.295 48.4485 100.585 47.6482 101.166 46.9933C101.747 46.3385 102.498 45.8565 103.419 45.5473C104.36 45.2199 105.341 45.0562 106.363 45.0562C107.044 45.0562 107.724 45.1198 108.405 45.2472C109.086 45.3563 109.657 45.5018 110.117 45.6837C110.298 45.7383 110.418 45.811 110.478 45.902C110.538 45.9747 110.568 46.0748 110.568 46.2021L110.658 49.9127C110.658 49.9673 110.598 50.0128 110.478 50.0492C110.378 50.0674 110.318 50.0401 110.298 49.9673C109.897 48.8578 109.356 47.8573 108.676 46.9661C108.015 46.0566 107.013 45.6018 105.672 45.6018C104.771 45.6018 104.05 45.8383 103.509 46.3112C102.988 46.7842 102.728 47.4299 102.728 48.2484Z" fill="currentColor"/>
    <path d="M118.072 60.1989C118.072 60.7627 118.123 61.172 118.223 61.4267C118.323 61.6813 118.523 61.8541 118.823 61.9451C119.144 62.036 119.644 62.0815 120.325 62.0815C120.385 62.0815 120.415 62.136 120.415 62.2452C120.415 62.3543 120.385 62.4089 120.325 62.4089C119.685 62.4089 119.174 62.3998 118.793 62.3816L116.571 62.3543L114.408 62.3816C114.027 62.3998 113.507 62.4089 112.846 62.4089C112.786 62.4089 112.756 62.3543 112.756 62.2452C112.756 62.136 112.786 62.0815 112.846 62.0815C113.527 62.0815 114.017 62.036 114.318 61.9451C114.638 61.8541 114.858 61.6813 114.979 61.4267C115.099 61.1538 115.159 60.7446 115.159 60.1989V47.5663C115.159 47.0206 115.099 46.6205 114.979 46.3658C114.858 46.1112 114.638 45.9384 114.318 45.8474C114.017 45.7383 113.527 45.6837 112.846 45.6837C112.786 45.6837 112.756 45.6291 112.756 45.52C112.756 45.4109 112.786 45.3563 112.846 45.3563L114.408 45.3836C115.289 45.42 116.01 45.4381 116.571 45.4381C117.191 45.4381 117.942 45.42 118.823 45.3836L120.325 45.3563C120.385 45.3563 120.415 45.4109 120.415 45.52C120.415 45.6291 120.385 45.6837 120.325 45.6837C119.664 45.6837 119.174 45.7383 118.853 45.8474C118.553 45.9565 118.343 46.1475 118.223 46.4204C118.123 46.675 118.072 47.0752 118.072 47.6209V60.1989Z" fill="currentColor"/>
    <path d="M132.457 62.7363C130.254 62.7363 128.331 62.3543 126.689 61.5904C125.067 60.8264 123.826 59.7896 122.965 58.48C122.104 57.1521 121.673 55.6788 121.673 54.0599C121.673 52.3138 122.164 50.7586 123.145 49.3943C124.146 48.0119 125.508 46.9479 127.23 46.2021C128.972 45.4381 130.925 45.0562 133.087 45.0562C134.029 45.0562 134.97 45.1289 135.911 45.2744C136.852 45.42 137.613 45.62 138.194 45.8747C138.329 45.9362 138.422 45.9977 138.471 46.0592C138.484 46.0745 138.49 46.0821 138.494 46.0881C138.498 46.094 138.505 46.1048 138.518 46.1263C138.565 46.2041 138.597 46.3294 138.614 46.5022L138.975 50.0492C138.975 50.1037 138.925 50.1401 138.825 50.1583C138.725 50.1765 138.654 50.1492 138.614 50.0765C138.014 48.7122 137.112 47.6482 135.911 46.8842C134.709 46.1202 133.298 45.7383 131.676 45.7383C129.473 45.7383 127.781 46.3931 126.599 47.7027C125.418 48.9942 124.827 50.7767 124.827 53.0504C124.827 54.833 125.187 56.4246 125.908 57.8252C126.629 59.2257 127.621 60.3171 128.882 61.0992C130.164 61.8814 131.596 62.2725 133.178 62.2725C134.059 62.2725 134.739 62.1906 135.22 62.0269C135.701 61.8632 136.051 61.5449 136.271 61.072C136.512 60.599 136.632 59.8987 136.632 58.9711C136.632 58.0252 136.572 57.3704 136.452 57.0066C136.331 56.6246 136.061 56.37 135.641 56.2427C135.24 56.1153 134.529 56.0517 133.508 56.0517C133.388 56.0517 133.328 55.9789 133.328 55.8334C133.328 55.7788 133.338 55.7334 133.358 55.697C133.398 55.6424 133.438 55.6151 133.478 55.6151C135.14 55.7061 136.472 55.7516 137.473 55.7516C138.474 55.7516 139.516 55.7243 140.597 55.6697C140.605 55.6697 140.613 55.6708 140.62 55.673C140.639 55.6789 140.649 55.6818 140.689 55.7256C140.73 55.7694 140.735 55.7928 140.745 55.8395C140.746 55.8465 140.747 55.8536 140.747 55.8607C140.747 55.988 140.697 56.0517 140.597 56.0517C140.196 56.0335 139.916 56.0972 139.756 56.2427C139.596 56.37 139.485 56.6428 139.425 57.0612C139.385 57.4795 139.365 58.2071 139.365 59.2439C139.365 60.0624 139.395 60.6445 139.455 60.9901C139.536 61.3357 139.576 61.554 139.576 61.6449C139.576 61.7541 139.546 61.8268 139.485 61.8632C139.449 61.8798 139.371 61.9115 139.251 61.9583C139.233 61.9653 139.224 61.9688 139.215 61.9715C139.206 61.9743 139.196 61.9762 139.177 61.98C136.669 62.4842 134.429 62.7363 132.457 62.7363Z" fill="currentColor"/>
    <path d="M161.767 45.3563C161.807 45.3563 161.827 45.4109 161.827 45.52C161.827 45.6291 161.807 45.6837 161.767 45.6837C160.966 45.6837 160.346 45.9474 159.905 46.4749C159.465 46.9842 159.244 47.7209 159.244 48.685V62.7909C159.244 62.8454 159.194 62.8818 159.094 62.9C158.994 62.9182 158.924 62.9091 158.884 62.8727L145.564 48.8133C145.239 48.4707 145.077 48.2995 144.937 48.3538C144.796 48.4081 144.796 48.6422 144.796 49.1103V59.1075C144.796 60.0715 145.006 60.8082 145.427 61.3175C145.847 61.8268 146.458 62.0815 147.259 62.0815C147.299 62.0815 147.319 62.136 147.319 62.2452C147.319 62.3543 147.299 62.4089 147.259 62.4089C146.718 62.4089 146.308 62.3998 146.028 62.3816L144.436 62.3543L142.663 62.3816C142.343 62.3998 141.882 62.4089 141.282 62.4089C141.222 62.4089 141.192 62.3543 141.192 62.2452C141.192 62.136 141.222 62.0815 141.282 62.0815C142.143 62.0815 142.804 61.8268 143.264 61.3175C143.745 60.8082 143.985 60.0715 143.985 59.1075V47.3388C143.985 47.2485 143.985 47.2033 143.967 47.1623C143.949 47.1213 143.917 47.0909 143.852 47.0302C143.344 46.5517 142.877 46.2121 142.453 46.0111C142.013 45.7928 141.552 45.6837 141.071 45.6837C141.031 45.6837 141.011 45.6291 141.011 45.52C141.011 45.4109 141.031 45.3563 141.071 45.3563L142.273 45.3836C142.533 45.4018 142.904 45.4109 143.384 45.4109L145.307 45.3836C145.547 45.3654 145.837 45.3563 146.178 45.3563C146.338 45.3563 146.458 45.3927 146.538 45.4654C146.618 45.5382 146.739 45.6837 146.899 45.902C147.239 46.3203 147.489 46.6114 147.65 46.7751L157.663 57.5173C157.988 57.866 158.151 58.0403 158.292 57.9863C158.433 57.9323 158.433 57.6958 158.433 57.2229V48.685C158.433 47.7209 158.223 46.9842 157.802 46.4749C157.382 45.9474 156.781 45.6837 156 45.6837C155.96 45.6837 155.94 45.6291 155.94 45.52C155.94 45.4109 155.96 45.3563 156 45.3563L157.232 45.3836C157.873 45.42 158.403 45.4381 158.824 45.4381C159.224 45.4381 159.765 45.42 160.446 45.3836L161.767 45.3563Z" fill="currentColor"/>
    <path d="M163.608 67.1153C163.608 68.3719 162.572 69.3906 161.293 69.3906C160.015 69.3906 158.978 68.3719 158.978 67.1153C158.978 65.8586 160.015 64.8399 161.293 64.8399C162.572 64.8399 163.608 65.8586 163.608 67.1153Z" fill="currentColor"/>
    <path d="M56.5624 21.0827C55.9943 21.0827 55.4809 20.9395 55.022 20.653C54.5687 20.3665 54.2109 19.9711 53.9487 19.4666C53.692 18.956 53.5636 18.3861 53.5636 17.7572C53.5636 17.1282 53.692 16.5615 53.9487 16.057C54.2109 15.5464 54.5714 15.1478 55.0302 14.8613C55.4891 14.5748 56.0025 14.4316 56.5706 14.4316C56.9967 14.4316 57.39 14.5126 57.7505 14.6745C58.111 14.8364 58.4169 15.0731 58.6681 15.3844L58.283 15.8235C57.8351 15.3066 57.2698 15.0481 56.587 15.0481C56.1336 15.0481 55.7212 15.1665 55.3498 15.4031C54.9783 15.6398 54.6861 15.9636 54.4731 16.3746C54.2655 16.7856 54.1617 17.2465 54.1617 17.7572C54.1617 18.2678 54.2655 18.7287 54.4731 19.1397C54.6861 19.5507 54.9783 19.8745 55.3498 20.1112C55.7212 20.3478 56.1336 20.4662 56.587 20.4662C57.2752 20.4662 57.8406 20.2046 58.283 19.6815L58.6681 20.1205C58.4169 20.4319 58.1083 20.6717 57.7423 20.8398C57.3818 21.0017 56.9885 21.0827 56.5624 21.0827Z" fill="currentColor"/>
    <path d="M63.4675 21.0267L62.1565 18.9248C62.009 18.9435 61.8561 18.9529 61.6977 18.9529H60.1573V21.0267H59.551V14.4877H61.6977C62.4296 14.4877 63.0032 14.6869 63.4183 15.0855C63.8335 15.4841 64.041 16.0321 64.041 16.7296C64.041 17.2403 63.9263 17.6731 63.6969 18.0281C63.473 18.3768 63.1507 18.629 62.7301 18.7847L64.1312 21.0267H63.4675ZM61.6813 18.3643C62.2494 18.3643 62.6836 18.2211 62.9841 17.9346C63.2845 17.6482 63.4347 17.2465 63.4347 16.7296C63.4347 16.2002 63.2845 15.7955 62.9841 15.5152C62.6836 15.2287 62.2494 15.0855 61.6813 15.0855H60.1573V18.3643H61.6813Z" fill="currentColor"/>
    <path d="M69.1182 20.4288V21.0267H65.0624V14.4877H68.9953V15.0855H65.6687V17.4115H68.6348V18H65.6687V20.4288H69.1182Z" fill="currentColor"/>
    <path d="M73.7307 19.2798H70.5352L69.847 21.0267H69.2161L71.838 14.4877H72.4361L75.058 21.0267H74.419L73.7307 19.2798ZM73.5095 18.7193L72.133 15.2069L70.7565 18.7193H73.5095Z" fill="currentColor"/>
    <path d="M76.4234 15.0855H74.4078V14.4877H79.0453V15.0855H77.0297V21.0267H76.4234V15.0855Z" fill="currentColor"/>
    <path d="M79.6043 14.4877H80.2106V21.0267H79.6043V14.4877Z" fill="currentColor"/>
    <path d="M86.3717 14.4877L83.8317 21.0267H83.2336L80.6936 14.4877H81.3491L83.5449 20.1672L85.7572 14.4877H86.3717Z" fill="currentColor"/>
    <path d="M90.8502 20.4288V21.0267H86.7944V14.4877H90.7273V15.0855H87.4007V17.4115H90.3668V18H87.4007V20.4288H90.8502Z" fill="currentColor"/>
    <path d="M97.1974 19.2798H94.0019L93.3137 21.0267H92.6828L95.3047 14.4877H95.9028L98.5248 21.0267H97.8857L97.1974 19.2798ZM96.9762 18.7193L95.5997 15.2069L94.2232 18.7193H96.9762Z" fill="currentColor"/>
    <path d="M103.023 17.7572H103.605V20.2513C103.337 20.5191 103.021 20.7246 102.655 20.8678C102.289 21.0111 101.903 21.0827 101.499 21.0827C100.926 21.0827 100.41 20.9395 99.9507 20.653C99.4918 20.3665 99.1313 19.9711 98.8691 19.4666C98.6069 18.956 98.4759 18.3861 98.4759 17.7572C98.4759 17.1282 98.6069 16.5615 98.8691 16.057C99.1313 15.5464 99.4918 15.1478 99.9507 14.8613C100.41 14.5748 100.928 14.4316 101.507 14.4316C101.944 14.4316 102.346 14.5126 102.712 14.6745C103.078 14.8302 103.386 15.0637 103.638 15.3751L103.261 15.8141C102.807 15.3035 102.231 15.0481 101.532 15.0481C101.068 15.0481 100.647 15.1665 100.27 15.4031C99.8988 15.6335 99.6066 15.9574 99.3935 16.3746C99.1805 16.7856 99.074 17.2465 99.074 17.7572C99.074 18.2678 99.1805 18.7287 99.3935 19.1397C99.6066 19.5507 99.8988 19.8745 100.27 20.1112C100.642 20.3478 101.06 20.4662 101.524 20.4662C102.114 20.4662 102.614 20.298 103.023 19.9617V17.7572Z" fill="currentColor"/>
    <path d="M108.967 20.4288V21.0267H104.911V14.4877H108.844V15.0855H105.518V17.4115H108.484V18H105.518V20.4288H108.967Z" fill="currentColor"/>
    <path d="M114.776 14.4877V21.0267H114.276L110.589 15.7207V21.0267H109.983V14.4877H110.482L114.178 19.7936V14.4877H114.776Z" fill="currentColor"/>
    <path d="M118.729 21.0827C118.161 21.0827 117.648 20.9395 117.189 20.653C116.735 20.3665 116.378 19.9711 116.115 19.4666C115.859 18.956 115.73 18.3861 115.73 17.7572C115.73 17.1282 115.859 16.5615 116.115 16.057C116.378 15.5464 116.738 15.1478 117.197 14.8613C117.656 14.5748 118.169 14.4316 118.737 14.4316C119.163 14.4316 119.557 14.5126 119.917 14.6745C120.278 14.8364 120.584 15.0731 120.835 15.3844L120.45 15.8235C120.002 15.3066 119.436 15.0481 118.754 15.0481C118.3 15.0481 117.888 15.1665 117.516 15.4031C117.145 15.6398 116.853 15.9636 116.64 16.3746C116.432 16.7856 116.328 17.2465 116.328 17.7572C116.328 18.2678 116.432 18.7287 116.64 19.1397C116.853 19.5507 117.145 19.8745 117.516 20.1112C117.888 20.3478 118.3 20.4662 118.754 20.4662C119.442 20.4662 120.007 20.2046 120.45 19.6815L120.835 20.1205C120.584 20.4319 120.275 20.6717 119.909 20.8398C119.548 21.0017 119.155 21.0827 118.729 21.0827Z" fill="currentColor"/>
    <path d="M123.564 18.766V21.0267H122.966V18.766L120.672 14.4877H121.319L123.285 18.1588L125.252 14.4877H125.858L123.564 18.766Z" fill="currentColor"/>
    <line x1="0.5" y1="42.7906" x2="161.433" y2="42.7906" stroke="#5D5955" stroke-width="0.7"/>
</svg>
