<svg width="21" height="20" viewBox="0 0 21 20" fill="none"
    xmlns="http://www.w3.org/2000/svg">
    <path d="M16.1966 3.46C15.9593 3.46 15.7273 3.53038 15.5299 3.66224C15.3326 3.79409 15.1788 3.98151 15.0879 4.20078C14.9971 4.42005 14.9734 4.66133 15.0197 4.89411C15.066 5.12689 15.1802 5.34071 15.3481 5.50853C15.5159 5.67635 15.7297 5.79064 15.9625 5.83694C16.1953 5.88324 16.4365 5.85948 16.6558 5.76866C16.8751 5.67783 17.0625 5.52402 17.1944 5.32668C17.3262 5.12935 17.3966 4.89734 17.3966 4.66C17.3966 4.34174 17.2702 4.03652 17.0451 3.81147C16.8201 3.58643 16.5149 3.46 16.1966 3.46ZM20.7966 5.88C20.7772 5.0503 20.6218 4.2294 20.3366 3.45C20.0823 2.78313 19.6866 2.17928 19.1766 1.68C18.6814 1.16743 18.0762 0.774176 17.4066 0.53C16.6293 0.236161 15.8074 0.07721 14.9766 0.0599999C13.9166 -5.58794e-08 13.5766 0 10.8566 0C8.1366 0 7.7966 -5.58794e-08 6.7366 0.0599999C5.90575 0.07721 5.08394 0.236161 4.3066 0.53C3.63827 0.776649 3.03353 1.16956 2.5366 1.68C2.02402 2.17518 1.63077 2.78044 1.3866 3.45C1.09276 4.22734 0.933808 5.04915 0.916598 5.88C0.856598 6.94 0.856598 7.28 0.856598 10C0.856598 12.72 0.856598 13.06 0.916598 14.12C0.933808 14.9508 1.09276 15.7727 1.3866 16.55C1.63077 17.2196 2.02402 17.8248 2.5366 18.32C3.03353 18.8304 3.63827 19.2234 4.3066 19.47C5.08394 19.7638 5.90575 19.9228 6.7366 19.94C7.7966 20 8.1366 20 10.8566 20C13.5766 20 13.9166 20 14.9766 19.94C15.8074 19.9228 16.6293 19.7638 17.4066 19.47C18.0762 19.2258 18.6814 18.8326 19.1766 18.32C19.6888 17.8226 20.0849 17.2182 20.3366 16.55C20.6218 15.7706 20.7772 14.9497 20.7966 14.12C20.7966 13.06 20.8566 12.72 20.8566 10C20.8566 7.28 20.8566 6.94 20.7966 5.88ZM18.9966 14C18.9893 14.6348 18.8744 15.2637 18.6566 15.86C18.4969 16.2952 18.2405 16.6884 17.9066 17.01C17.5822 17.3405 17.1898 17.5964 16.7566 17.76C16.1603 17.9778 15.5314 18.0927 14.8966 18.1C13.8966 18.15 13.5266 18.16 10.8966 18.16C8.2666 18.16 7.8966 18.16 6.8966 18.1C6.23749 18.1123 5.58119 18.0109 4.9566 17.8C4.54238 17.6281 4.16795 17.3728 3.8566 17.05C3.52469 16.7287 3.27144 16.3352 3.1166 15.9C2.87245 15.2952 2.73704 14.6519 2.7166 14C2.7166 13 2.6566 12.63 2.6566 10C2.6566 7.37 2.6566 7 2.7166 6C2.72108 5.35106 2.83955 4.70795 3.0666 4.1C3.24265 3.67791 3.51286 3.30166 3.8566 3C4.16041 2.65617 4.53589 2.3831 4.9566 2.2C5.56615 1.98004 6.2086 1.86508 6.8566 1.86C7.8566 1.86 8.2266 1.8 10.8566 1.8C13.4866 1.8 13.8566 1.8 14.8566 1.86C15.4914 1.86728 16.1203 1.98225 16.7166 2.2C17.171 2.36865 17.5789 2.64285 17.9066 3C18.2343 3.30718 18.4904 3.68273 18.6566 4.1C18.8789 4.70893 18.9939 5.35178 18.9966 6C19.0466 7 19.0566 7.37 19.0566 10C19.0566 12.63 19.0466 13 18.9966 14ZM10.8566 4.87C9.84241 4.87198 8.85156 5.17453 8.00925 5.73942C7.16694 6.30431 6.51098 7.1062 6.12423 8.04375C5.73749 8.98131 5.63732 10.0125 5.83639 11.0069C6.03546 12.0014 6.52483 12.9145 7.24267 13.631C7.96051 14.3474 8.87461 14.835 9.86946 15.0321C10.8643 15.2293 11.8953 15.1271 12.8321 14.7385C13.7689 14.35 14.5695 13.6924 15.1327 12.849C15.696 12.0056 15.9966 11.0142 15.9966 10C15.9979 9.3251 15.8658 8.65661 15.6078 8.03296C15.3499 7.40931 14.9712 6.84281 14.4935 6.36605C14.0158 5.88929 13.4485 5.51168 12.8244 5.25493C12.2002 4.99818 11.5315 4.86736 10.8566 4.87ZM10.8566 13.33C10.198 13.33 9.55416 13.1347 9.00655 12.7688C8.45893 12.4029 8.03212 11.8828 7.78008 11.2743C7.52804 10.6659 7.46209 9.99631 7.59058 9.35035C7.71907 8.70439 8.03622 8.11104 8.50193 7.64533C8.96764 7.17963 9.56099 6.86247 10.2069 6.73398C10.8529 6.6055 11.5225 6.67144 12.1309 6.92348C12.7394 7.17552 13.2595 7.60234 13.6254 8.14995C13.9913 8.69757 14.1866 9.34139 14.1866 10C14.1866 10.4373 14.1005 10.8703 13.9331 11.2743C13.7658 11.6784 13.5205 12.0454 13.2113 12.3547C12.902 12.6639 12.5349 12.9092 12.1309 13.0765C11.7269 13.2439 11.2939 13.33 10.8566 13.33Z" fill="currentColor" />
</svg>