<svg width="21" height="16" viewBox="0 0 21 16" fill="none"
    xmlns="http://www.w3.org/2000/svg">
    <path fill-rule="evenodd" clip-rule="evenodd" d="M18.2038 0.240134C18.451 0.147268 18.7214 0.11524 18.9871 0.147381C19.2528 0.179523 19.504 0.27466 19.7145 0.42289C19.9251 0.57112 20.0872 0.767025 20.1842 0.990213C20.2812 1.2134 20.3094 1.45571 20.2658 1.69193L17.9978 13.975C17.7778 15.1599 16.3218 15.8393 15.1048 15.2492C14.0868 14.7554 12.5748 13.9947 11.2148 13.2009C10.5348 12.8036 8.45184 11.5313 8.70784 10.6259C8.92784 9.8518 12.4278 6.94285 14.4278 5.21338C15.2128 4.53391 14.8548 4.14194 13.9278 4.76695C11.6258 6.31874 7.92984 8.67858 6.70784 9.34287C5.62984 9.92859 5.06784 10.0286 4.39584 9.92859C3.16984 9.74644 2.03284 9.4643 1.10484 9.12055C-0.149161 8.65626 -0.0881614 7.11696 1.10384 6.66875L18.2038 0.240134Z" fill="currentColor" />
</svg>