<svg width="21" height="16" viewBox="0 0 21 16" fill="none"
    xmlns="http://www.w3.org/2000/svg">
    <path d="M20.1425 7.93734C20.1425 7.88823 20.1425 7.83242 20.1402 7.76769C20.138 7.58689 20.1335 7.38376 20.1291 7.16724C20.1112 6.54447 20.08 5.92393 20.0308 5.3391C19.9639 4.5333 19.8657 3.86142 19.7317 3.35695C19.5904 2.83049 19.3134 2.35036 18.9283 1.96452C18.5433 1.57869 18.0637 1.30068 17.5375 1.15828C16.9058 0.988631 15.6692 0.88372 13.9281 0.818988C13.1 0.787737 12.2138 0.767648 11.3277 0.756487C11.0174 0.752023 10.7295 0.749791 10.4705 0.747559H9.81427C9.55534 0.749791 9.26739 0.752023 8.95712 0.756487C8.07095 0.767648 7.18479 0.787737 6.35666 0.818988C4.61558 0.885952 3.37673 0.990864 2.74726 1.15828C2.22092 1.30033 1.74116 1.57822 1.35606 1.96411C0.970953 2.35 0.694034 2.83032 0.553051 3.35695C0.416889 3.86142 0.320907 4.5333 0.253942 5.3391C0.204834 5.92393 0.173584 6.54447 0.155727 7.16724C0.14903 7.38376 0.146798 7.58689 0.144566 7.76769C0.144566 7.83242 0.142334 7.88823 0.142334 7.93734V8.06234C0.142334 8.11144 0.142334 8.16725 0.144566 8.23198C0.146798 8.41279 0.151263 8.61591 0.155727 8.83243C0.173584 9.4552 0.204834 10.0757 0.253942 10.6606C0.320907 11.4664 0.419121 12.1383 0.553051 12.6427C0.838767 13.7119 1.67806 14.5557 2.74726 14.8414C3.37673 15.011 4.61558 15.116 6.35666 15.1807C7.18479 15.2119 8.07095 15.232 8.95712 15.2432C9.26739 15.2476 9.55534 15.2499 9.81427 15.2521H10.4705C10.7295 15.2499 11.0174 15.2476 11.3277 15.2432C12.2138 15.232 13.1 15.2119 13.9281 15.1807C15.6692 15.1137 16.9081 15.0088 17.5375 14.8414C18.6067 14.5557 19.446 13.7142 19.7317 12.6427C19.8679 12.1383 19.9639 11.4664 20.0308 10.6606C20.08 10.0757 20.1112 9.4552 20.1291 8.83243C20.1358 8.61591 20.138 8.41279 20.1402 8.23198C20.1402 8.16725 20.1425 8.11144 20.1425 8.06234V7.93734ZM18.5353 8.05341C18.5353 8.10028 18.5353 8.15162 18.5331 8.21189C18.5308 8.386 18.5264 8.57796 18.5219 8.78555C18.5063 9.37931 18.475 9.97306 18.4282 10.5244C18.3679 11.2432 18.2831 11.8324 18.1782 12.2275C18.0398 12.7432 17.6335 13.1517 17.1201 13.2878C16.6514 13.4128 15.4706 13.5133 13.8656 13.5735C13.0531 13.6048 12.1781 13.6249 11.3053 13.636C10.9995 13.6405 10.7161 13.6427 10.4616 13.6427H9.8232L8.97944 13.636C8.10667 13.6249 7.2339 13.6048 6.41916 13.5735C4.81424 13.511 3.63119 13.4128 3.16467 13.2878C2.65128 13.1494 2.24503 12.7432 2.10663 12.2275C2.00172 11.8324 1.9169 11.2432 1.85663 10.5244C1.80976 9.97306 1.78074 9.37931 1.76288 8.78555C1.75618 8.57796 1.75395 8.38377 1.75172 8.21189C1.75172 8.15162 1.74949 8.09805 1.74949 8.05341V7.94626C1.74949 7.89939 1.74949 7.84805 1.75172 7.78778C1.75395 7.61367 1.75842 7.42171 1.76288 7.21412C1.7785 6.62036 1.80976 6.02661 1.85663 5.47527C1.9169 4.75651 2.00172 4.16722 2.10663 3.77213C2.24503 3.2565 2.65128 2.84802 3.16467 2.71186C3.63343 2.58686 4.81424 2.48641 6.41916 2.42614C7.23166 2.39489 8.10667 2.3748 8.97944 2.36364C9.28525 2.35918 9.56873 2.35694 9.8232 2.35694H10.4616L11.3053 2.36364C12.1781 2.3748 13.0509 2.39489 13.8656 2.42614C15.4706 2.48864 16.6536 2.58686 17.1201 2.71186C17.6335 2.85025 18.0398 3.2565 18.1782 3.77213C18.2831 4.16722 18.3679 4.75651 18.4282 5.47527C18.475 6.02661 18.5041 6.62036 18.5219 7.21412C18.5286 7.42171 18.5308 7.6159 18.5331 7.78778C18.5331 7.84805 18.5353 7.90162 18.5353 7.94626V8.05341ZM8.15578 10.9909L13.3344 7.97751L8.15578 5.00875V10.9909Z" fill="currentColor" />
</svg>