<svg width="263" height="53" viewBox="0 0 263 53" fill="none"
    xmlns="http://www.w3.org/2000/svg">
    <path d="M14.5331 5.20101C14.1937 5.53418 13.9028 5.65329 13.6604 5.55803C13.4179 5.46278 13.1029 5.51048 12.715 5.70084C12.3271 5.89121 11.9635 5.8675 11.6241 5.62944C11.2848 5.39137 10.9696 5.29626 10.6787 5.34382C10.3878 5.39137 10.0485 5.58188 9.66059 5.91506C9.27268 6.24823 8.95764 6.65295 8.71518 7.12894C8.47272 7.60492 8.35156 7.96194 8.35156 8.20001C8.35156 8.31897 8.35156 8.43807 8.35156 8.55703C8.42429 8.50947 8.49701 8.46178 8.56973 8.41422C8.71518 8.31897 8.93335 7.96194 9.22425 7.34315C9.51514 6.72436 9.78175 6.31964 10.0242 6.12927C10.2667 5.93891 10.509 5.84365 10.7514 5.84365C10.9939 5.84365 11.2121 5.96261 11.406 6.20068C11.5998 6.43874 11.7696 6.5577 11.915 6.5577C12.0605 6.5577 12.2302 6.46244 12.4241 6.27208C12.618 6.08171 12.9574 5.98646 13.4422 5.98646C13.927 5.98646 14.3149 5.84365 14.6058 5.55803C14.8967 5.27241 15.2119 5.17716 15.5512 5.27241C15.8905 5.36767 16.0846 5.72469 16.133 6.34348C16.1814 6.96228 16.036 7.67632 15.6966 8.48562C15.3573 9.29492 15.4058 10.6992 15.8421 12.6985C16.2784 14.6978 16.7391 16.1259 17.2238 16.9828C17.7086 17.8396 18.5813 18.9821 19.8419 20.4102C21.1025 21.8383 22.0963 23.3139 22.8236 24.8373C23.1872 25.5989 23.5508 26.3606 23.9144 27.1222C23.7205 26.4557 23.5265 25.7894 23.3326 25.1229C22.9447 23.7901 22.557 22.838 22.1691 22.2667C21.7811 21.6955 21.0055 20.7911 19.8419 19.5533C18.6783 18.3156 17.8541 17.2445 17.3693 16.3401C16.8845 15.4357 16.4966 14.0313 16.2057 12.1273C15.9148 10.2232 15.9148 9.00931 16.2057 8.48562C16.4966 7.96194 16.6663 7.367 16.7148 6.70051C16.7632 6.03402 16.7148 5.55803 16.5693 5.27241C16.4239 4.9868 16.133 4.82014 15.6966 4.77258C15.2603 4.72503 14.8724 4.86784 14.5331 5.20101Z" fill="#EA8529" stroke="#EA8529" stroke-width="0.8"/>
    <path d="M36.7109 6.84272C36.7109 7.22359 36.8564 7.74713 37.1473 8.41362C37.4382 9.08012 37.9957 9.96068 38.8199 11.0556C39.6442 12.1505 40.4198 13.0549 41.1471 13.769C41.8743 14.483 42.5288 15.3637 43.1106 16.4109C43.4015 16.9346 43.6924 17.4582 43.9833 17.9818C44.0076 17.8152 44.0317 17.6487 44.056 17.482C44.1045 17.1488 44.0317 16.6727 43.8379 16.0539C43.644 15.4351 43.0136 14.5306 41.947 13.3405C41.4137 12.7455 40.8805 12.1505 40.3471 11.5554C40.541 11.5079 40.735 11.4602 40.9289 11.4126C41.3168 11.3174 41.5591 11.1984 41.6561 11.0556C41.7046 10.9842 41.7532 10.9128 41.8016 10.8414C41.4864 10.8652 41.1714 10.8889 40.8562 10.9128C40.226 10.9603 39.6199 10.651 39.0381 9.98453C38.4563 9.31804 37.9229 8.53258 37.4382 7.62817C37.1957 7.1759 36.9534 6.72376 36.7109 6.27148C36.7109 6.46185 36.7109 6.65236 36.7109 6.84272Z" fill="#EA8529" stroke="#EA8529" stroke-width="0.8"/>
    <path d="M7.19869 10.1305C6.89413 10.1619 6.59989 10.2357 6.31568 10.3519C6.01344 10.4756 5.72269 10.6474 5.44358 10.8673C4.90208 11.2938 4.56653 11.6349 4.4368 11.8906C4.37193 12.0184 4.30706 12.1462 4.24219 12.274C4.28553 12.2953 4.32887 12.3164 4.37236 12.3377C4.45905 12.3801 4.84899 12.0922 5.5419 11.4739C6.23496 10.8556 6.89573 10.514 7.52435 10.4493C7.83881 10.4171 8.15312 10.3847 8.46743 10.3522C8.41318 10.2991 8.35892 10.246 8.30453 10.1929C8.19602 10.0866 7.82746 10.0658 7.19869 10.1305Z" fill="#EA8529" stroke="#EA8529" stroke-width="0.8"/>
    <path d="M10.0851 10.2599C9.97558 10.3108 9.69225 10.2857 9.58272 10.3367C9.82882 10.4909 10.4748 10.8488 10.7207 11.0032C11.2128 11.3117 11.5612 11.7342 11.7663 12.2709C11.9714 12.8076 12.0275 13.2134 11.9348 13.4882C11.8884 13.6257 11.8084 13.786 11.9692 13.8134C12.1301 13.8408 12.1363 13.8337 12.2335 13.8569C12.4277 13.9036 12.6717 13.8817 13.0445 14.2624C13.1395 14.3593 13.1308 14.7999 12.5353 15.2546C11.7173 15.879 10.8612 15.6141 9.84918 16.2741C8.83702 16.9341 9.14435 17.8178 9.58258 17.6141C10.0208 17.4105 9.69123 17.1995 10.1996 16.7631C10.708 16.3267 12.7882 15.6752 13.1641 15.2365C13.7044 14.6056 13.5347 14.3491 13.5393 14.1361C13.544 13.9234 13.2025 13.6195 12.5344 13.4595C12.2014 13.3798 12.1134 13.2579 12.2062 12.983C12.299 12.708 12.2946 12.4099 12.1932 12.0884C12.0918 11.7668 11.8076 11.3775 11.3406 10.9205C10.8736 10.4634 10.3043 10.158 10.0851 10.2599Z" fill="#EA8529" stroke="#EA8529" stroke-width="0.8"/>
    <path d="M54.3125 11.9114C54.3125 12.8158 54.3609 13.3633 54.4579 13.5537C54.555 13.744 54.6761 13.8393 54.8216 13.8393C54.8943 13.8393 54.967 13.8393 55.0397 13.8393C54.967 13.2919 54.8943 12.7444 54.8216 12.197C54.6761 11.1021 54.555 10.5547 54.4579 10.5547C54.4095 10.5547 54.3609 10.5547 54.3125 10.5547C54.3125 11.007 54.3125 11.4591 54.3125 11.9114Z" fill="#EA8529" stroke="#EA8529" stroke-width="0.8"/>
    <path d="M23.9837 12.985C21.9959 14.0322 20.6868 14.8653 20.0566 15.4841C19.4264 16.1029 19.0628 16.6505 18.9658 17.1264C18.9173 17.3645 18.8687 17.6024 18.8203 17.8405C18.8687 17.8405 18.9173 17.8405 18.9658 17.8405C19.0628 17.8405 19.1596 17.6738 19.2567 17.3406C19.3537 17.0075 19.7173 16.5313 20.3475 15.9126C20.9777 15.2938 21.6565 14.7462 22.3838 14.2702C23.111 13.7943 24.008 13.342 25.0745 12.9136C26.1411 12.4851 26.7715 12.1995 26.9654 12.0567C27.1592 11.9139 27.2563 11.7711 27.2563 11.6283C27.2563 11.5569 27.2563 11.4855 27.2563 11.4141C27.2078 11.4141 27.1592 11.4141 27.1108 11.4141C27.0138 11.4141 25.9715 11.9377 23.9837 12.985Z" fill="#EA8529" stroke="#EA8529" stroke-width="0.8"/>
    <path d="M23.9837 12.985C21.9959 14.0322 20.6868 14.8653 20.0566 15.4841C19.4264 16.1029 19.0628 16.6505 18.9658 17.1264C18.9173 17.3645 18.8687 17.6024 18.8203 17.8405C18.8687 17.8405 18.9173 17.8405 18.9658 17.8405C19.0628 17.8405 19.1596 17.6738 19.2567 17.3406C19.3537 17.0075 19.7173 16.5313 20.3475 15.9126C20.9777 15.2938 21.6565 14.7462 22.3838 14.2702C23.111 13.7943 24.008 13.342 25.0745 12.9136C26.1411 12.4851 26.7715 12.1995 26.9654 12.0567C27.1592 11.9139 27.2563 11.7711 27.2563 11.6283C27.2563 11.5569 27.2563 11.4855 27.2563 11.4141C27.2078 11.4141 27.1592 11.4141 27.1108 11.4141C27.0138 11.4141 25.9715 11.9377 23.9837 12.985Z" fill="#EA8529" stroke="#EA8529" stroke-width="0.8"/>
    <path d="M1.44016 12.8418C1.1977 13.0321 1.05225 13.3177 1.00382 13.6986C0.955387 14.0795 1.36744 15.3648 2.24012 17.5545C3.11281 19.7442 3.64616 21.6007 3.84004 23.124C4.03392 24.6474 4.54299 26.0041 5.36724 27.1941C6.19149 28.3841 6.87014 29.6694 7.4035 31.0499C7.93685 32.4305 8.59137 33.7872 9.36704 35.12C10.1427 36.4528 10.7004 37.286 11.0397 37.6192C11.379 37.9523 12.2275 38.5474 13.585 39.4043C14.2638 39.8327 14.9425 40.2611 15.6213 40.6896C15.6456 40.6182 15.6697 40.5468 15.694 40.4754C15.7424 40.3325 15.1365 39.8566 13.8759 39.0473C12.6153 38.238 11.8154 37.6667 11.476 37.3336C11.1367 37.0004 10.5306 36.0721 9.65793 34.5488C8.78525 33.0254 8.0823 31.5973 7.54895 30.2645C7.01559 28.9317 6.40966 27.8129 5.73086 26.9085C5.05205 26.0041 4.56728 24.6474 4.27638 22.8384C3.98549 21.0294 3.42799 19.1968 2.60374 17.3402C1.77949 15.4837 1.36744 14.3413 1.36744 13.9128C1.36744 13.4844 1.46445 13.2226 1.65833 13.1274C1.75535 13.0798 1.85221 13.0321 1.94923 12.9846C2.09467 13.3177 2.24012 13.6511 2.38557 13.9842C2.67646 14.6507 2.82191 15.1981 2.82191 15.6265C2.82191 16.055 2.77348 16.3167 2.67646 16.412C2.62803 16.4595 2.57945 16.5072 2.53102 16.5548C2.57945 16.6024 2.62803 16.65 2.67646 16.6976C2.7249 16.7452 2.77348 16.7929 2.82191 16.8404C2.89463 16.769 2.96736 16.6976 3.04008 16.6262C3.18553 16.4834 3.25825 16.1739 3.25825 15.6979C3.25825 15.222 3.08852 14.6507 2.74919 13.9842C2.57945 13.6511 2.40986 13.3177 2.24012 12.9846C2.38557 13.0798 2.53102 13.1749 2.67646 13.2702C2.96736 13.4605 3.16124 13.5082 3.25825 13.413C3.30669 13.3654 3.35527 13.3177 3.4037 13.2702C3.28254 13.1749 3.16124 13.0798 3.04008 12.9846C2.79762 12.7942 2.53102 12.6751 2.24012 12.6275C1.94923 12.58 1.68262 12.6514 1.44016 12.8418Z" fill="#EA8529" stroke="#EA8529" stroke-width="0.8"/>
    <path d="M4.19329 13.4166C4.09016 13.4255 3.9962 13.4478 3.91141 13.4835C3.57208 13.6263 3.40234 13.8881 3.40234 14.269C3.40234 14.6499 3.6448 15.6257 4.12958 17.1966C4.61436 18.7675 4.97797 20.3384 5.22043 21.9093C5.46289 23.4802 5.89924 24.9083 6.52946 26.1936C7.15968 27.4788 7.76576 28.5024 8.34755 29.264C8.92934 30.0256 9.31725 30.6445 9.51113 31.1205C9.70501 31.5965 9.87475 31.8584 10.0202 31.9059C10.0929 31.9298 10.1656 31.9535 10.2384 31.9773C10.1899 31.787 10.1414 31.5965 10.0929 31.4061C9.9959 31.0252 9.65658 30.454 9.07479 29.6924C8.493 28.9308 7.83848 27.8359 7.11125 26.4078C6.38401 24.9797 5.89924 23.5277 5.65678 22.0521C5.41432 20.5764 5.14771 19.434 4.85682 18.6247C4.56592 17.8154 4.4932 17.2918 4.63865 17.0538C4.78409 16.8157 4.78409 16.2445 4.63865 15.34C4.4932 14.4356 4.42047 13.912 4.42047 13.7691C4.42047 13.6977 4.42047 13.6263 4.42047 13.5549C4.46891 13.5549 4.51749 13.5549 4.56592 13.5549C4.66294 13.5549 5.07499 13.8167 5.80222 14.3404C6.52946 14.8641 7.11125 15.4829 7.54759 16.1969C7.98393 16.911 8.37184 17.6726 8.71117 18.4819C9.0505 19.2912 9.38997 20.3384 9.7293 21.6237C10.0686 22.9089 10.6504 24.1228 11.4747 25.2653C12.2989 26.4078 12.9534 27.5502 13.4382 28.6927C13.923 29.8352 14.5048 30.6921 15.1836 31.2633C15.8624 31.8345 16.4683 32.263 17.0017 32.5486C17.535 32.8342 17.9955 33.1674 18.3834 33.5482C18.7713 33.9291 19.0864 34.3812 19.3288 34.9049C19.5713 35.4286 19.7894 35.7379 19.9833 35.8332C20.0803 35.8807 20.1772 35.9284 20.2742 35.976C20.1288 35.619 19.9833 35.2619 19.8379 34.9049C19.547 34.1909 19.1591 33.6196 18.6743 33.1912C18.1895 32.7628 17.438 32.2391 16.4199 31.6203C15.4017 31.0015 14.6261 30.097 14.0927 28.9069C13.5594 27.7169 12.8564 26.503 11.9837 25.2653C11.111 24.0276 10.5293 22.8375 10.2384 21.6951C9.94747 20.5526 9.46269 19.2673 8.78389 17.8392C8.10509 16.4111 7.5233 15.4353 7.03852 14.9116C6.55375 14.3879 5.9961 13.9834 5.36588 13.6977C4.89318 13.4835 4.50236 13.3898 4.19329 13.4166ZM3.83869 13.6977C3.88712 13.7216 3.9357 13.7453 3.98413 13.7691C4.08115 13.8167 4.17801 14.269 4.27503 15.1258C4.32346 15.5543 4.37204 15.9827 4.42047 16.4111C4.37204 16.4111 4.32346 16.4111 4.27503 16.4111C4.17801 16.4111 4.05686 16.1255 3.91141 15.5543C3.76596 14.983 3.71753 14.5307 3.76596 14.1976C3.79025 14.0309 3.8144 13.8644 3.83869 13.6977Z" fill="#EA8529" stroke="#EA8529" stroke-width="0.8"/>
    <path d="M47.7656 17.267C47.7656 17.8382 47.9111 18.3381 48.202 18.7665C48.4929 19.1949 48.6383 19.7186 48.6383 20.3374C48.6383 20.9562 48.8565 21.5037 49.2928 21.9797C49.511 22.2178 49.7292 22.4557 49.9473 22.6938C49.8989 22.5271 49.8503 22.3606 49.8019 22.1939C49.7049 21.8608 49.5353 21.5513 49.2928 21.2657C49.0504 20.9801 48.9292 20.5755 48.9292 20.0518C48.9292 19.5281 48.7838 19.0521 48.4929 18.6237C48.202 18.1953 48.0081 17.7193 47.9111 17.1956C47.8626 16.9338 47.8141 16.6719 47.7656 16.4102C47.7656 16.6958 47.7656 16.9814 47.7656 17.267Z" fill="#EA8529" stroke="#EA8529" stroke-width="0.8"/>
    <path d="M10.3587 17.6732C10.2876 17.9502 10.2986 18.2966 10.3917 18.7125C10.4849 19.1282 10.6544 19.6366 10.9 20.2374C11.1457 20.8383 11.4094 21.2718 11.6911 21.538C11.8319 21.6709 11.9727 21.804 12.1136 21.9371C11.9032 21.2959 11.6929 20.6547 11.4826 20.0135C11.0619 18.731 10.8577 17.9687 10.8701 17.7262C10.8823 17.4839 10.8179 17.3452 10.6769 17.3102C10.6064 17.2928 10.5358 17.2752 10.4653 17.2578C10.4298 17.3963 10.3942 17.5349 10.3587 17.6732Z" fill="#EA8529" stroke="#EA8529" stroke-width="0.8"/>
    <path d="M51.0385 17.6965C51.1839 18.1725 51.2324 18.6723 51.1839 19.196C51.1355 19.7196 51.2324 20.1242 51.4748 20.4098C51.7173 20.6955 52.0323 20.9335 52.4202 21.1239C52.6141 21.2191 52.8081 21.3143 53.002 21.4095C53.002 21.3143 53.002 21.2191 53.002 21.1239C53.002 20.9335 52.7596 20.6716 52.2748 20.3384C51.79 20.0053 51.5718 19.553 51.6203 18.9818C51.6687 18.4105 51.6446 17.9821 51.5475 17.6965C51.4505 17.4108 51.3051 17.2205 51.1112 17.1252C51.0142 17.0777 50.9173 17.03 50.8203 16.9824C50.893 17.2205 50.9658 17.4584 51.0385 17.6965Z" fill="#EA8529" stroke="#EA8529" stroke-width="0.8"/>
    <path d="M57.0003 21.1956C56.9518 21.7193 57.1214 22.2428 57.5093 22.7665C57.8972 23.2902 58.1638 23.5758 58.3093 23.6234C58.382 23.6472 58.4547 23.6709 58.5275 23.6948C58.479 23.5044 58.4304 23.3139 58.382 23.1235C58.285 22.7427 58.0911 22.4333 57.8002 22.1953C57.5093 21.9572 57.3639 21.6002 57.3639 21.1242C57.3639 20.8861 57.3639 20.6482 57.3639 20.4102C57.3154 20.4102 57.2669 20.4102 57.2184 20.4102C57.1214 20.4102 57.0487 20.6719 57.0003 21.1956Z" fill="#EA8529" stroke="#EA8529" stroke-width="0.8"/>
    <path d="M39.4744 22.695C39.1835 23.3615 38.8442 23.9327 38.4563 24.4087C38.0684 24.8847 37.7291 25.1466 37.4382 25.1941C37.1473 25.2417 36.9534 25.1466 36.8564 24.9085C36.808 24.7896 36.7594 24.6705 36.7109 24.5515C36.7352 24.7182 36.7594 24.8847 36.7837 25.0513C36.8321 25.3845 37.0261 25.5512 37.3655 25.5512C37.7048 25.5512 38.02 25.4322 38.3109 25.1941C38.6018 24.9561 38.9654 24.4325 39.4017 23.6232C39.8381 22.8139 40.0319 22.2904 39.9835 22.0523C39.9592 21.9334 39.9351 21.8143 39.9108 21.6953C39.7653 22.0285 39.6199 22.3618 39.4744 22.695Z" fill="#EA8529" stroke="#EA8529" stroke-width="0.8"/>
    <path d="M12.6377 22.338C12.0075 22.6712 11.668 23.0759 11.6196 23.5519C11.5953 23.7899 11.5712 24.0279 11.5469 24.2659C11.6196 24.0756 11.6923 23.885 11.765 23.6947C11.9105 23.3138 12.153 23.0045 12.4923 22.7664C12.8316 22.5284 13.2438 22.3855 13.7286 22.338C14.2134 22.2904 14.6256 22.338 14.9649 22.4808C15.3042 22.6236 16.3466 23.6471 18.092 25.5512C19.8374 27.4553 21.0737 28.6454 21.8009 29.1214C22.5281 29.5974 23.4008 30.0021 24.419 30.3353C25.4371 30.6685 26.4795 31.2874 27.5461 32.1918C28.6126 33.0962 29.5823 34.0959 30.455 35.1908C31.3277 36.2857 31.9822 37.4282 32.4186 38.6183C32.8549 39.8083 33.1701 40.4509 33.364 40.5462C33.461 40.5937 33.5578 40.6414 33.6549 40.689C33.5578 40.2844 33.461 39.8797 33.364 39.4751C33.1701 38.6658 32.9276 37.9756 32.6367 37.4044C32.3458 36.8331 31.5702 35.8096 30.3096 34.334C29.049 32.8583 28.0551 31.8348 27.3279 31.2636C26.6007 30.6923 25.5582 30.1449 24.2008 29.6213C22.8433 29.0976 21.5827 28.3121 20.4192 27.2649C19.2556 26.2177 18.2859 25.218 17.5102 24.2659C16.7345 23.3138 16.1769 22.7189 15.8376 22.4808C15.4982 22.2427 15.0376 22.0762 14.4558 21.981C13.874 21.8857 13.268 22.0048 12.6377 22.338Z" fill="#EA8529" stroke="#EA8529" stroke-width="0.8"/>
    <path d="M41.0003 23.3372C40.3701 24.2416 39.9094 24.8128 39.6185 25.0509C39.3276 25.2889 39.0125 25.4317 38.6731 25.4793C38.5034 25.5031 38.3338 25.5269 38.1641 25.5507C38.1884 25.5983 38.2125 25.646 38.2368 25.6935C38.2852 25.7888 38.4792 25.8125 38.8186 25.7649C39.1579 25.7174 39.4974 25.5507 39.8367 25.2651C40.176 24.9795 40.6367 24.4558 41.2185 23.6942C41.8002 22.9326 42.1154 22.4565 42.1639 22.2661C42.1882 22.1708 42.2123 22.0757 42.2366 21.9805C42.1882 21.9805 42.1396 21.9805 42.0911 21.9805C41.9941 21.9805 41.6305 22.4327 41.0003 23.3372Z" fill="#EA8529" stroke="#EA8529" stroke-width="0.8"/>
    <path d="M29.1706 20.7099C29.1549 19.9524 29.0976 19.4523 28.9987 19.2097C28.9 18.9671 28.7342 18.7728 28.5013 18.6269C28.3849 18.5539 28.046 18.3587 27.9297 18.2857C27.9723 18.2657 28.1137 18.2646 28.1564 18.2446C28.2417 18.2047 28.5246 18.3611 28.7573 18.5071C28.9901 18.6529 29.1621 18.8698 29.2733 19.1576C29.3846 19.4453 29.4662 19.917 29.5181 20.5725C29.57 21.2282 29.5657 21.621 29.5052 21.7513C29.4751 21.8165 29.4448 21.8817 29.4146 21.9468C29.3778 21.9299 29.3411 21.9132 29.3043 21.8964C29.2309 21.8628 29.1864 21.4674 29.1706 20.7099Z" fill="#EA8529" stroke="#EA8529" stroke-width="0.8"/>
    <path d="M30.7486 23.9793C30.5547 25.1218 30.5062 25.812 30.6032 26.0501C30.7002 26.2881 30.9668 26.5738 31.4031 26.9069C31.8395 27.2401 32.1788 27.5971 32.4213 27.978C32.6637 28.3589 32.9788 28.9538 33.3667 29.7631C33.7546 30.5724 34.0455 31.3816 34.2394 32.1909C34.3364 32.5955 34.4332 33.0002 34.5303 33.4048C34.6514 33.3572 34.7727 33.3095 34.8939 33.2619C35.1363 33.1667 35.3545 32.9288 35.5484 32.5479C35.7423 32.167 36.1545 31.8577 36.7847 31.6196C37.4149 31.3816 38.433 31.1198 39.8391 30.8342C41.2451 30.5486 42.6753 30.3344 44.1298 30.1915C45.5842 30.0487 46.3115 29.9298 46.3115 29.8345C46.3115 29.787 46.3115 29.7393 46.3115 29.6917C46.1417 29.6917 45.9722 29.6917 45.8024 29.6917C45.4631 29.6917 44.1541 29.8821 41.8753 30.2629C39.5966 30.6438 38.0694 30.9531 37.2938 31.1912C36.5181 31.4293 35.912 31.7149 35.4757 32.0481C35.2575 32.2147 35.0393 32.3812 34.8212 32.5479C34.603 31.9291 34.3848 31.3102 34.1666 30.6914C33.7303 29.4536 33.3424 28.5731 33.0031 28.0494C32.6637 27.5257 32.2515 27.0497 31.7668 26.6213C31.282 26.1929 31.0395 25.3599 31.0395 24.1221C31.0395 23.5034 31.0395 22.8844 31.0395 22.2656C30.9425 22.8369 30.8456 23.4081 30.7486 23.9793Z" fill="#EA8529" stroke="#EA8529" stroke-width="0.8"/>
    <path d="M44.8543 23.2663C44.5634 23.7423 44.2968 24.3612 44.0543 25.1228C43.8118 25.8844 43.5937 26.3367 43.3998 26.4795C43.2059 26.6223 42.9877 26.6937 42.7453 26.6937C42.5028 26.6937 42.3089 26.6223 42.1635 26.4795C42.0908 26.4081 42.018 26.3367 41.9453 26.2653C41.9453 26.3606 41.9453 26.4557 41.9453 26.5509C41.9453 26.7413 42.1635 26.8604 42.5998 26.9079C43.0362 26.9555 43.3998 26.8604 43.6907 26.6223C43.9816 26.3843 44.3695 25.6702 44.8543 24.4802C45.339 23.2902 45.5331 22.6712 45.436 22.6237C45.339 22.5761 45.1452 22.7903 44.8543 23.2663Z" fill="#EA8529" stroke="#EA8529" stroke-width="0.8"/>
    <path d="M30.8907 22.2794C30.9371 21.6518 31.0808 21.1637 30.9755 20.9834C30.87 20.8034 30.7243 20.6623 30.5381 20.5603C30.3519 20.4583 30.1812 20.4259 30.026 20.4633C29.9483 20.482 29.8706 20.5006 29.793 20.5193C29.8221 20.4536 29.8511 20.3879 29.8801 20.3222C29.9383 20.1909 30.1422 20.2006 30.4918 20.3512C30.8415 20.502 31.0917 20.7207 31.2423 21.0073C31.3932 21.2941 31.3351 21.8136 31.2236 22.6626C31.1366 23.3248 31.0207 23.951 30.8941 23.5105C30.8262 23.2745 30.8745 22.4984 30.8907 22.2794Z" fill="#EA8529" stroke="#EA8529" stroke-width="0.8"/>
    <path d="M43.5449 23.4094C43.3511 23.8853 43.0359 24.3852 42.5995 24.9089C42.1632 25.4325 41.6784 25.8371 41.1451 26.1227C40.6117 26.4084 40.1997 26.5273 39.9088 26.4798C39.6179 26.4322 39.424 26.3369 39.327 26.1941C39.23 26.0513 39.1331 25.9799 39.0361 25.9799C38.9876 25.9799 38.9391 25.9799 38.8906 25.9799C38.9149 26.0513 38.9391 26.1227 38.9633 26.1941C39.0118 26.3369 39.2785 26.4798 39.7633 26.6226C40.2481 26.7654 40.7571 26.694 41.2905 26.4084C41.8239 26.1227 42.3086 25.7182 42.745 25.1945C43.1813 24.6708 43.5206 24.1473 43.7631 23.6236C44.0056 23.0999 44.0783 22.8143 43.9813 22.7667C43.9328 22.7429 43.8843 22.7192 43.8358 22.6953C43.7388 22.9334 43.6419 23.1713 43.5449 23.4094Z" fill="#EA8529" stroke="#EA8529" stroke-width="0.8"/>
    <path d="M13.9505 23.9801C14.2898 24.6466 14.4352 25.1226 14.3868 25.4082C14.3384 25.6938 14.2414 25.9081 14.0959 26.0509C13.9505 26.1937 13.8777 26.3365 13.8777 26.4793C13.8777 26.5507 13.8777 26.6221 13.8777 26.6935C13.9262 26.6935 13.9748 26.6935 14.0232 26.6935C14.1202 26.6935 14.2657 26.5746 14.4595 26.3365C14.6534 26.0984 14.7747 25.8128 14.8232 25.4796C14.8716 25.1465 14.7989 24.7656 14.605 24.3372C14.4111 23.9087 14.1686 23.5756 13.8777 23.3375C13.7323 23.2185 13.5869 23.0994 13.4414 22.9805C13.6111 23.3136 13.7807 23.647 13.9505 23.9801Z" fill="#EA8529" stroke="#EA8529" stroke-width="0.8"/>
    <path d="M25.3165 3.00041C24.4166 2.99141 23.1485 3.1298 21.5122 3.41542C19.3305 3.79629 18.0215 4.08191 17.5851 4.27227C17.1488 4.46264 16.9063 4.65314 16.8579 4.84351C16.8336 4.93876 16.8094 5.03387 16.7852 5.12913C17.1245 4.98632 17.464 4.84351 17.8033 4.7007C18.4821 4.41508 19.6941 4.15331 21.4395 3.91525C23.1848 3.67718 24.3727 3.55822 25.0029 3.55822C25.6331 3.55822 26.3847 3.72488 27.2574 4.05806C28.13 4.39123 28.5907 4.60545 28.6391 4.7007C28.6634 4.74826 28.6875 4.79595 28.7118 4.84351C28.4937 4.93876 28.2755 5.03387 28.0573 5.12913C27.621 5.31949 27.524 6.22405 27.7664 7.8425C28.0089 9.46096 28.5421 10.7462 29.3663 11.6984C30.1906 12.6505 31.451 13.6977 33.148 14.8402C34.8449 15.9826 35.7417 16.887 35.8387 17.5535C35.9358 18.22 36.1296 18.9578 36.4205 19.7671C36.7114 20.5764 36.8569 21.5046 36.8569 22.5519C36.8569 23.0755 36.8569 23.5991 36.8569 24.1228C36.9539 23.7896 37.0508 23.4563 37.1478 23.1231C37.3416 22.4566 37.4387 21.8617 37.4387 21.338C37.4387 20.8143 37.2448 20.0289 36.8569 18.9816C36.469 17.9344 36.2508 17.1013 36.2024 16.4825C36.1539 15.8637 36.0569 15.5067 35.9115 15.4114C35.8387 15.3638 35.766 15.3161 35.6933 15.2686C35.669 15.3638 35.6449 15.459 35.6206 15.5542C35.5963 15.6495 35.5721 15.7446 35.5478 15.8398C35.2085 15.6256 34.869 15.4114 34.5297 15.1972C33.8509 14.7688 33.051 14.2214 32.1298 13.5549C31.2087 12.8884 30.4329 12.222 29.8027 11.5555C29.1725 10.8891 28.7603 10.3178 28.5664 9.84183C28.3725 9.36585 28.2028 8.55655 28.0573 7.41408C27.9119 6.2716 28.4937 5.4623 29.8027 4.98632C31.1117 4.51033 33.3177 4.46264 36.4205 4.84351C39.5234 5.22438 41.7778 5.65281 43.1838 6.12879C44.5899 6.60478 45.5594 7.15231 46.0928 7.7711C46.6261 8.38989 46.9655 9.00883 47.1109 9.62762C47.2563 10.2464 47.1593 10.6987 46.82 10.9843C46.4807 11.2699 46.1655 11.9601 45.8746 13.055C45.5837 14.15 45.3898 15.7446 45.2928 17.8392C45.1958 19.9337 45.4625 21.576 46.0928 22.7661C46.723 23.9561 47.4261 24.9796 48.2018 25.8365C48.9774 26.6933 49.6805 27.2884 50.3107 27.6216C50.941 27.9548 51.2561 28.2642 51.2561 28.5499C51.2561 28.8355 51.038 29.3829 50.6016 30.1922C50.1653 31.0015 49.341 31.7155 48.129 32.3343C46.917 32.9531 45.0262 34.3098 42.4566 36.4044C39.887 38.499 38.5779 39.6414 38.5295 39.8318C38.5052 39.927 38.4811 40.0222 38.4568 40.1174C38.6507 40.046 38.8447 39.9746 39.0386 39.9032C39.4265 39.7604 39.6931 39.57 39.8385 39.332C39.984 39.0939 40.1779 38.9274 40.4203 38.8321C40.6628 38.7369 41.0991 38.3798 41.7294 37.7611C42.3596 37.1423 43.3777 36.2854 44.7837 35.1905C46.1898 34.0956 47.2563 33.334 47.9836 32.9055C48.7108 32.4771 49.5351 32.1201 50.4562 31.8345C51.3773 31.5489 52.0561 31.4536 52.4925 31.5489C52.9288 31.6441 53.7045 31.6678 54.8196 31.6203C55.9347 31.5727 56.977 31.2871 57.9467 30.7634C58.9164 30.2397 59.6678 29.6448 60.2012 28.9783C60.7345 28.3118 61.3163 27.7169 61.9465 27.1932C62.5767 26.6695 63.3767 26.1697 64.3464 25.6937C65.3161 25.2177 65.9948 25.0035 66.3827 25.051C66.5765 25.0749 66.7706 25.0986 66.9644 25.1224C66.7463 25.2891 66.5281 25.4556 66.3099 25.6223C65.8736 25.9554 65.51 26.3125 65.2191 26.6933C64.9282 27.0742 64.7584 27.4074 64.71 27.693C64.6616 27.9786 64.71 28.2167 64.8555 28.407C65.0009 28.5974 65.2918 28.7402 65.7281 28.8355C66.1645 28.9307 66.3827 29.0497 66.3827 29.1925C66.3827 29.3353 66.0433 29.9304 65.3645 30.9776C64.6857 32.0248 63.8373 32.8817 62.8192 33.5482C61.8011 34.2147 61.195 34.6907 61.0011 34.9763C60.9041 35.1191 60.8072 35.2619 60.7102 35.4047C61.0011 35.2619 61.292 35.1191 61.5829 34.9763C62.1647 34.6907 62.8435 34.2384 63.6192 33.6196C64.3948 33.0008 65.2918 31.9534 66.3099 30.4778C67.3281 29.0021 67.9341 28.2881 68.128 28.3356C68.3219 28.3832 68.9037 28.1214 69.8734 27.5502C70.8431 26.979 71.6672 26.3125 72.346 25.5509C73.0248 24.7893 73.4126 24.4322 73.5096 24.4798C73.6066 24.5273 73.655 24.694 73.655 24.9796C73.655 25.2652 73.1944 26.4553 72.2733 28.5499C71.3522 30.6444 69.6068 32.7152 67.0372 34.7621C64.4676 36.8089 62.2617 38.2133 60.4193 38.9749C58.5769 39.7365 57.2679 40.3078 56.4922 40.6886C55.7166 41.0695 55.2559 41.3551 55.1105 41.5455C55.0378 41.6408 54.9651 41.7359 54.8923 41.8311C56.2984 41.236 57.7043 40.6411 59.1103 40.046C61.9222 38.856 64.4434 37.4279 66.6736 35.7617C68.9037 34.0956 70.2613 33.0008 70.7461 32.4771C71.2309 31.9534 71.9097 30.6681 72.7823 28.6213C73.655 26.5744 74.1157 25.3842 74.1641 25.051C74.2125 24.7179 74.1884 24.4322 74.0914 24.1942C73.9944 23.9561 74.2125 23.5515 74.7459 22.9803C75.2792 22.4091 75.7156 21.7903 76.0549 21.1238C76.3942 20.4573 76.6367 19.9099 76.7821 19.4815C76.9276 19.053 77.0003 18.3628 77.0003 17.4107C77.0003 16.4586 76.9033 15.459 76.7094 14.4117C76.5155 13.3645 76.2003 12.2934 75.764 11.1985C75.3277 10.1036 74.358 8.81832 72.8551 7.34267C71.3522 5.86702 70.1886 4.91491 69.3643 4.48649C68.5401 4.05806 67.7887 3.74859 67.1099 3.55822C66.4311 3.36786 65.6311 3.24876 64.71 3.2012C63.7889 3.15365 62.9646 3.17735 62.2374 3.27261C61.5102 3.36786 60.6859 3.55822 59.7648 3.84384C58.8437 4.12946 57.8256 4.58174 56.7104 5.20053C55.5953 5.81932 54.6742 6.24775 53.9469 6.48582C53.2197 6.72388 52.0077 7.34267 50.3107 8.34234C49.4623 8.84217 48.6138 9.342 47.7654 9.84183C47.717 9.60377 47.6684 9.36585 47.62 9.12779C47.523 8.6518 47.2806 8.15197 46.8927 7.62829C46.5048 7.10461 45.7049 6.58107 44.4929 6.05739C43.2808 5.53371 41.0506 5.01017 37.8023 4.48649C34.554 3.9628 32.3237 3.81999 31.1117 4.05806C29.8997 4.29612 28.9784 4.22472 28.3482 3.84384C27.718 3.46297 26.9665 3.2012 26.0938 3.05839C25.8756 3.02269 25.6166 3.00341 25.3165 3.00041ZM64.7827 3.48682C65.8493 3.53438 66.916 3.77244 67.9826 4.20087C69.0491 4.62929 69.9946 5.15298 70.8188 5.77177C71.6431 6.39056 72.249 6.98565 72.6369 7.55689C73.0248 8.12812 73.4611 8.62796 73.9459 9.05638C74.4307 9.48481 74.8913 10.3178 75.3277 11.5555C75.764 12.7933 76.0549 13.9357 76.2003 14.983C76.3458 16.0302 76.4185 16.8395 76.4185 17.4107C76.4185 17.982 76.2246 18.7913 75.8367 19.8385C75.4488 20.8857 75.0125 21.7903 74.5277 22.5519C74.0429 23.3135 73.3641 24.1466 72.4914 25.051C71.6188 25.9554 70.7461 26.6458 69.8734 27.1218C69.0007 27.5977 68.5159 27.7883 68.4189 27.693C68.3219 27.5977 68.3705 27.2884 68.5644 26.7647C68.7582 26.2411 68.7825 25.8365 68.6371 25.5509C68.4916 25.2652 68.225 25.0272 67.8371 24.8368C67.4492 24.6465 66.9887 24.5512 66.4554 24.5512C65.922 24.5512 65.0009 24.9082 63.6919 25.6223C62.3829 26.3363 61.2193 27.217 60.2012 28.2642C59.183 29.3115 58.0679 30.0494 56.8559 30.4778C55.6439 30.9062 54.2621 31.1204 52.7106 31.1204C51.935 31.1204 51.1591 31.1204 50.3835 31.1204C50.6259 30.7873 50.8682 30.4539 51.1107 30.1208C51.5955 29.4543 51.8379 28.9783 51.8379 28.6927C51.8379 28.5499 51.8379 28.407 51.8379 28.2642C52.1531 28.3595 52.4682 28.4546 52.7833 28.5499C53.4136 28.7402 54.2135 28.8355 55.1832 28.8355C56.1529 28.8355 56.9043 28.7879 57.4377 28.6927C57.971 28.5974 58.2376 28.5023 58.2376 28.407C58.2376 28.3595 58.2376 28.3118 58.2376 28.2642C57.4377 28.2642 56.6377 28.2642 55.8377 28.2642C54.2378 28.2642 53.0742 28.169 52.347 27.9786C51.6198 27.7883 50.8198 27.3598 49.9471 26.6933C49.0744 26.0268 48.3472 25.3128 47.7654 24.5512C47.1836 23.7896 46.6746 22.9564 46.2382 22.052C45.8019 21.1476 45.5837 20.3859 45.5837 19.7671C45.5837 19.1483 45.6321 18.339 45.7292 17.3393C45.8262 16.3397 46.0443 15.1019 46.3837 13.6263C46.723 12.1506 47.0625 11.2224 47.4018 10.8415C47.7411 10.4606 48.2018 10.0799 48.7835 9.69903C49.3653 9.31815 51.1591 8.36619 54.1651 6.84284C57.1711 5.31949 59.4255 4.36753 60.9284 3.98665C62.4313 3.60578 63.7162 3.43926 64.7827 3.48682ZM67.6417 25.3054C67.9325 25.3531 68.1266 25.6148 68.2234 26.0908C68.3205 26.5669 68.1507 27.1143 67.7144 27.7331C67.278 28.3521 66.8417 28.6614 66.4053 28.6614C65.969 28.6614 65.654 28.5663 65.4599 28.3758C65.2661 28.1854 65.169 27.995 65.169 27.8045C65.169 27.6142 65.5085 27.1382 66.1872 26.3764C66.866 25.6148 67.3508 25.2578 67.6417 25.3054Z" fill="#EA8529" stroke="#EA8529" stroke-width="0.8"/>
    <path d="M35.9837 42.3609C35.8867 42.599 35.8625 43.2892 35.9109 44.4317C35.9594 45.5741 36.0321 46.1929 36.1291 46.2882C36.1776 46.3357 36.2261 46.3834 36.2746 46.431C36.2989 45.6931 36.323 44.9553 36.3473 44.2175C36.3716 43.4796 36.3957 42.7418 36.42 42.0039C36.3716 42.0039 36.323 42.0039 36.2746 42.0039C36.1776 42.0039 36.0807 42.1229 35.9837 42.3609Z" fill="#EA8529" stroke="#EA8529" stroke-width="0.8"/>
    <path d="M47.3309 45.4309C47.6218 47.5255 47.8399 48.9297 47.9854 49.6437C48.1308 50.3578 48.2763 50.7624 48.4217 50.8576C48.4945 50.9052 48.5672 50.9529 48.6399 51.0004C48.446 49.5485 48.252 48.0967 48.0581 46.6447C47.6702 43.741 47.3793 42.2891 47.1854 42.2891C47.0884 42.2891 46.9915 42.2891 46.8945 42.2891C47.04 43.3363 47.1854 44.3836 47.3309 45.4309Z" fill="#EA8529" stroke="#EA8529" stroke-width="0.8"/>
    <path d="M25.2223 44.0759C25.1252 45.1708 25.1495 45.861 25.295 46.1466C25.3677 46.2894 25.4404 46.4323 25.5132 46.5751C25.4889 46.0991 25.4647 45.623 25.4404 45.147C25.392 44.1949 25.4404 43.6475 25.5859 43.5047C25.7313 43.3619 25.8041 43.1952 25.8041 43.0048C25.8041 42.8145 25.7313 42.6717 25.5859 42.5764C25.5132 42.5288 25.4404 42.4811 25.3677 42.4336C25.3193 42.981 25.2707 43.5285 25.2223 44.0759Z" fill="#EA8529" stroke="#EA8529" stroke-width="0.8"/>
    <path d="M25.5883 48.0031C25.6368 48.4791 25.7338 48.7647 25.8792 48.86C25.952 48.9075 26.0247 48.9552 26.0974 49.0028C26.1217 48.86 26.1458 48.7172 26.1701 48.5743C26.2186 48.2887 26.1944 48.027 26.0974 47.7889C26.0004 47.5508 25.8792 47.408 25.7338 47.3605C25.6611 47.3366 25.5883 47.3129 25.5156 47.2891C25.5399 47.5271 25.5641 47.765 25.5883 48.0031Z" fill="#EA8529" stroke="#EA8529" stroke-width="0.8"/>
    <path d="M27.8268 18.1684C27.749 18.1754 27.6726 18.1985 27.6134 18.2141C27.5104 18.2411 27.3805 18.2135 27.2758 18.2368C27.0243 18.2931 26.8837 18.6344 26.859 18.8122C26.8501 18.8754 26.8947 19.1446 26.8143 19.182C26.7493 19.2122 25.8213 19.1445 25.5387 19.2003C24.9668 19.3131 24.1852 20.0462 24.0249 20.4513C23.966 20.6004 23.9093 20.6701 23.8165 20.7984C23.7403 20.9036 23.2823 21.0928 23.2258 21.369H23.2209C23.1451 21.5467 23.2074 21.4893 23.0322 21.8257C23.0183 21.8526 22.8915 22.0382 22.8983 22.0905C22.89 22.0906 22.8817 22.0904 22.8734 22.0905C22.8552 22.1238 22.8371 22.1578 22.8189 22.1909C22.7825 22.2573 22.9019 22.9594 23.1713 24.2959C23.4407 25.6323 23.756 26.5089 24.1192 26.9259C24.4825 27.3427 24.8756 27.5785 25.3005 27.6335C25.5129 27.6611 25.7235 27.6882 25.9358 27.7158C25.954 27.6825 25.9722 27.6485 25.9904 27.6152C26.0267 27.5488 25.9045 27.4865 25.6182 27.4281C25.3316 27.3696 25.0036 27.1327 24.6403 26.7158C24.2771 26.2989 24.139 26.3532 23.9505 25.8665C23.762 25.3798 23.524 24.2719 23.5087 23.5516C23.4936 22.8313 23.4554 22.4071 23.3896 22.2777C23.3761 22.251 23.3516 22.2395 23.3351 22.2183C23.3422 22.0825 23.2561 21.7459 23.3499 21.7023C23.556 21.6068 23.7762 21.5858 23.9157 21.4604C24.5842 20.8595 24.253 20.4209 25.0672 19.835C25.432 19.5723 25.5787 19.6063 26.0399 19.5154C26.186 19.4865 26.4961 19.4114 26.6604 19.424C26.8012 19.4348 26.9714 19.6266 27.0822 19.5975C27.4728 19.4951 27.2912 19.026 27.4445 18.8396C27.5526 18.7083 27.7597 18.4907 27.9459 18.4194C27.99 18.4026 28.1214 18.3983 28.1543 18.3785C28.1882 18.3579 28.0628 18.2188 28.0401 18.2049C27.9814 18.1688 27.9046 18.1614 27.8268 18.1684Z" fill="#EA8529" stroke="#EA8529" stroke-width="0.8"/>
    <path d="M98.0138 23.0572C97.8671 23.0572 97.7425 23.0132 97.6398 22.9252C97.5518 22.8372 97.5078 22.7126 97.5078 22.5512V18.5252C97.5078 18.3786 97.5518 18.2612 97.6398 18.1732C97.7425 18.0706 97.8671 18.0192 98.0138 18.0192H98.4758C98.8278 18.0192 99.1358 17.8579 99.3998 17.5352C99.6638 17.2126 99.8838 16.7212 100.06 16.0612C100.25 15.3866 100.39 14.5359 100.478 13.5092C100.566 12.4826 100.61 11.2652 100.61 9.85722V5.10522C100.61 4.95855 100.654 4.84122 100.742 4.75322C100.844 4.65055 100.969 4.59922 101.116 4.59922H109.696C109.857 4.59922 109.982 4.65055 110.07 4.75322C110.172 4.84122 110.224 4.96589 110.224 5.12722V18.0192H111.302C111.463 18.0192 111.588 18.0706 111.676 18.1732C111.778 18.2612 111.83 18.3786 111.83 18.5252V22.5512C111.83 22.6979 111.778 22.8152 111.676 22.9032C111.588 23.0059 111.463 23.0572 111.302 23.0572H110.18C110.018 23.0572 109.894 23.0059 109.806 22.9032C109.718 22.8152 109.674 22.6979 109.674 22.5512V19.9992H99.6638V22.5512C99.6638 22.6979 99.6125 22.8152 99.5098 22.9032C99.4218 23.0059 99.2971 23.0572 99.1358 23.0572H98.0138ZM101.292 18.0192H108.068V6.57922H102.722V10.1212C102.722 12.2039 102.597 13.8832 102.348 15.1592C102.113 16.4352 101.761 17.3886 101.292 18.0192Z" fill="#62500F"/>
    <path d="M115.658 19.9992C115.497 19.9992 115.372 19.9552 115.284 19.8672C115.196 19.7646 115.152 19.6399 115.152 19.4932V5.10522C115.152 4.95855 115.196 4.84122 115.284 4.75322C115.372 4.65055 115.497 4.59922 115.658 4.59922H116.824C116.971 4.59922 117.088 4.65055 117.176 4.75322C117.279 4.84122 117.33 4.95855 117.33 5.10522V19.4932C117.33 19.6399 117.279 19.7646 117.176 19.8672C117.088 19.9552 116.971 19.9992 116.824 19.9992H115.658Z" fill="#62500F"/>
    <path d="M122.334 19.9992C122.187 19.9992 122.062 19.9552 121.96 19.8672C121.872 19.7646 121.828 19.6399 121.828 19.4932V5.12722C121.828 4.96589 121.872 4.84122 121.96 4.75322C122.062 4.65055 122.187 4.59922 122.334 4.59922H123.434C123.61 4.59922 123.742 4.64322 123.83 4.73122C123.918 4.81922 123.969 4.89255 123.984 4.95122L128.648 13.8392L133.334 4.95122C133.363 4.89255 133.414 4.81922 133.488 4.73122C133.576 4.64322 133.708 4.59922 133.884 4.59922H134.962C135.123 4.59922 135.248 4.65055 135.336 4.75322C135.438 4.84122 135.49 4.96589 135.49 5.12722V19.4932C135.49 19.6399 135.438 19.7646 135.336 19.8672C135.248 19.9552 135.123 19.9992 134.962 19.9992H133.884C133.737 19.9992 133.612 19.9552 133.51 19.8672C133.422 19.7646 133.378 19.6399 133.378 19.4932V8.66922L129.704 15.8412C129.645 15.9879 129.557 16.1052 129.44 16.1932C129.322 16.2666 129.176 16.3032 129 16.3032H128.318C128.127 16.3032 127.973 16.2666 127.856 16.1932C127.753 16.1052 127.665 15.9879 127.592 15.8412L123.918 8.66922V19.4932C123.918 19.6399 123.866 19.7646 123.764 19.8672C123.676 19.9552 123.558 19.9992 123.412 19.9992H122.334Z" fill="#62500F"/>
    <path d="M151.529 20.2192C150.282 20.2192 149.212 20.0066 148.317 19.5812C147.422 19.1412 146.733 18.4739 146.249 17.5792C145.765 16.6699 145.494 15.5332 145.435 14.1692C145.42 13.5239 145.413 12.9079 145.413 12.3212C145.413 11.7199 145.42 11.0966 145.435 10.4512C145.494 9.10189 145.772 7.97989 146.271 7.08522C146.784 6.17589 147.488 5.50122 148.383 5.06122C149.292 4.60655 150.341 4.37922 151.529 4.37922C152.732 4.37922 153.78 4.60655 154.675 5.06122C155.584 5.50122 156.296 6.17589 156.809 7.08522C157.322 7.97989 157.601 9.10189 157.645 10.4512C157.674 11.0966 157.689 11.7199 157.689 12.3212C157.689 12.9079 157.674 13.5239 157.645 14.1692C157.601 15.5332 157.33 16.6699 156.831 17.5792C156.347 18.4739 155.658 19.1412 154.763 19.5812C153.868 20.0066 152.79 20.2192 151.529 20.2192ZM151.529 18.3492C152.658 18.3492 153.575 18.0119 154.279 17.3372C154.998 16.6626 155.386 15.5699 155.445 14.0592C155.474 13.3992 155.489 12.8126 155.489 12.2992C155.489 11.7712 155.474 11.1846 155.445 10.5392C155.416 9.52722 155.225 8.70589 154.873 8.07522C154.536 7.44455 154.081 6.98255 153.509 6.68922C152.937 6.39589 152.277 6.24922 151.529 6.24922C150.81 6.24922 150.165 6.39589 149.593 6.68922C149.021 6.98255 148.559 7.44455 148.207 8.07522C147.87 8.70589 147.679 9.52722 147.635 10.5392C147.62 11.1846 147.613 11.7712 147.613 12.2992C147.613 12.8126 147.62 13.3992 147.635 14.0592C147.694 15.5699 148.082 16.6626 148.801 17.3372C149.52 18.0119 150.429 18.3492 151.529 18.3492Z" fill="#62500F"/>
    <path d="M162.062 19.9992C161.9 19.9992 161.776 19.9552 161.688 19.8672C161.6 19.7646 161.556 19.6399 161.556 19.4932V5.12722C161.556 4.96589 161.6 4.84122 161.688 4.75322C161.776 4.65055 161.9 4.59922 162.062 4.59922H167.65C168.735 4.59922 169.674 4.77522 170.466 5.12722C171.272 5.47922 171.896 6.00722 172.336 6.71122C172.776 7.40055 172.996 8.26589 172.996 9.30722C172.996 10.3486 172.776 11.2139 172.336 11.9032C171.896 12.5926 171.272 13.1132 170.466 13.4652C169.674 13.8172 168.735 13.9932 167.65 13.9932H163.756V19.4932C163.756 19.6399 163.704 19.7646 163.602 19.8672C163.514 19.9552 163.389 19.9992 163.228 19.9992H162.062ZM163.734 12.1452H167.54C168.625 12.1452 169.439 11.9032 169.982 11.4192C170.524 10.9352 170.796 10.2312 170.796 9.30722C170.796 8.39789 170.532 7.69389 170.004 7.19522C169.476 6.69655 168.654 6.44722 167.54 6.44722H163.734V12.1452Z" fill="#62500F"/>
    <path d="M180.203 19.9992C180.056 19.9992 179.932 19.9552 179.829 19.8672C179.741 19.7646 179.697 19.6399 179.697 19.4932V6.55722H175.473C175.326 6.55722 175.202 6.51322 175.099 6.42522C175.011 6.32255 174.967 6.19789 174.967 6.05122V5.12722C174.967 4.96589 175.011 4.84122 175.099 4.75322C175.202 4.65055 175.326 4.59922 175.473 4.59922H186.077C186.238 4.59922 186.363 4.65055 186.451 4.75322C186.554 4.84122 186.605 4.96589 186.605 5.12722V6.05122C186.605 6.19789 186.554 6.32255 186.451 6.42522C186.363 6.51322 186.238 6.55722 186.077 6.55722H181.875V19.4932C181.875 19.6399 181.824 19.7646 181.721 19.8672C181.633 19.9552 181.508 19.9992 181.347 19.9992H180.203Z" fill="#62500F"/>
    <path d="M195.253 20.2192C194.006 20.2192 192.936 20.0066 192.041 19.5812C191.146 19.1412 190.457 18.4739 189.973 17.5792C189.489 16.6699 189.218 15.5332 189.159 14.1692C189.144 13.5239 189.137 12.9079 189.137 12.3212C189.137 11.7199 189.144 11.0966 189.159 10.4512C189.218 9.10189 189.496 7.97989 189.995 7.08522C190.508 6.17589 191.212 5.50122 192.107 5.06122C193.016 4.60655 194.065 4.37922 195.253 4.37922C196.456 4.37922 197.504 4.60655 198.399 5.06122C199.308 5.50122 200.02 6.17589 200.533 7.08522C201.046 7.97989 201.325 9.10189 201.369 10.4512C201.398 11.0966 201.413 11.7199 201.413 12.3212C201.413 12.9079 201.398 13.5239 201.369 14.1692C201.325 15.5332 201.054 16.6699 200.555 17.5792C200.071 18.4739 199.382 19.1412 198.487 19.5812C197.592 20.0066 196.514 20.2192 195.253 20.2192ZM195.253 18.3492C196.382 18.3492 197.299 18.0119 198.003 17.3372C198.722 16.6626 199.11 15.5699 199.169 14.0592C199.198 13.3992 199.213 12.8126 199.213 12.2992C199.213 11.7712 199.198 11.1846 199.169 10.5392C199.14 9.52722 198.949 8.70589 198.597 8.07522C198.26 7.44455 197.805 6.98255 197.233 6.68922C196.661 6.39589 196.001 6.24922 195.253 6.24922C194.534 6.24922 193.889 6.39589 193.317 6.68922C192.745 6.98255 192.283 7.44455 191.931 8.07522C191.594 8.70589 191.403 9.52722 191.359 10.5392C191.344 11.1846 191.337 11.7712 191.337 12.2992C191.337 12.8126 191.344 13.3992 191.359 14.0592C191.418 15.5699 191.806 16.6626 192.525 17.3372C193.244 18.0119 194.153 18.3492 195.253 18.3492Z" fill="#62500F"/>
    <path d="M205.786 19.9992C205.624 19.9992 205.5 19.9552 205.412 19.8672C205.324 19.7646 205.28 19.6399 205.28 19.4932V5.12722C205.28 4.96589 205.324 4.84122 205.412 4.75322C205.5 4.65055 205.624 4.59922 205.786 4.59922H216.632C216.793 4.59922 216.918 4.65055 217.006 4.75322C217.108 4.84122 217.16 4.96589 217.16 5.12722V19.4932C217.16 19.6399 217.108 19.7646 217.006 19.8672C216.918 19.9552 216.793 19.9992 216.632 19.9992H215.51C215.363 19.9992 215.238 19.9552 215.136 19.8672C215.048 19.7646 215.004 19.6399 215.004 19.4932V6.57922H207.436V19.4932C207.436 19.6399 207.384 19.7646 207.282 19.8672C207.194 19.9552 207.069 19.9992 206.908 19.9992H205.786Z" fill="#62500F"/>
    <path d="M222.129 19.9992C221.968 19.9992 221.843 19.9552 221.755 19.8672C221.667 19.7646 221.623 19.6399 221.623 19.4932V5.12722C221.623 4.96589 221.667 4.84122 221.755 4.75322C221.843 4.65055 221.968 4.59922 222.129 4.59922H231.215C231.377 4.59922 231.501 4.65055 231.589 4.75322C231.677 4.84122 231.721 4.96589 231.721 5.12722V5.96322C231.721 6.12455 231.677 6.24922 231.589 6.33722C231.501 6.42522 231.377 6.46922 231.215 6.46922H223.735V11.2872H230.731C230.893 11.2872 231.017 11.3386 231.105 11.4412C231.193 11.5292 231.237 11.6539 231.237 11.8152V12.6292C231.237 12.7759 231.193 12.9006 231.105 13.0032C231.017 13.0912 230.893 13.1352 230.731 13.1352H223.735V18.1292H231.391C231.553 18.1292 231.677 18.1732 231.765 18.2612C231.853 18.3492 231.897 18.4739 231.897 18.6352V19.4932C231.897 19.6399 231.853 19.7646 231.765 19.8672C231.677 19.9552 231.553 19.9992 231.391 19.9992H222.129Z" fill="#62500F"/>
    <path d="M234.723 23.0572C234.577 23.0572 234.452 23.0132 234.349 22.9252C234.261 22.8372 234.217 22.7126 234.217 22.5512V18.5252C234.217 18.3786 234.261 18.2612 234.349 18.1732C234.452 18.0706 234.577 18.0192 234.723 18.0192H235.185C235.537 18.0192 235.845 17.8579 236.109 17.5352C236.373 17.2126 236.593 16.7212 236.769 16.0612C236.96 15.3866 237.099 14.5359 237.187 13.5092C237.275 12.4826 237.319 11.2652 237.319 9.85722V5.10522C237.319 4.95855 237.363 4.84122 237.451 4.75322C237.554 4.65055 237.679 4.59922 237.825 4.59922H246.405C246.567 4.59922 246.691 4.65055 246.779 4.75322C246.882 4.84122 246.933 4.96589 246.933 5.12722V18.0192H248.011C248.173 18.0192 248.297 18.0706 248.385 18.1732C248.488 18.2612 248.539 18.3786 248.539 18.5252V22.5512C248.539 22.6979 248.488 22.8152 248.385 22.9032C248.297 23.0059 248.173 23.0572 248.011 23.0572H246.889C246.728 23.0572 246.603 23.0059 246.515 22.9032C246.427 22.8152 246.383 22.6979 246.383 22.5512V19.9992H236.373V22.5512C236.373 22.6979 236.322 22.8152 236.219 22.9032C236.131 23.0059 236.007 23.0572 235.845 23.0572H234.723ZM238.001 18.0192H244.777V6.57922H239.431V10.1212C239.431 12.2039 239.307 13.8832 239.057 15.1592C238.823 16.4352 238.471 17.3886 238.001 18.0192Z" fill="#62500F"/>
    <path d="M252.367 19.9992C252.206 19.9992 252.081 19.9552 251.993 19.8672C251.905 19.7646 251.861 19.6399 251.861 19.4932V5.10522C251.861 4.95855 251.905 4.84122 251.993 4.75322C252.081 4.65055 252.206 4.59922 252.367 4.59922H253.533C253.68 4.59922 253.797 4.65055 253.885 4.75322C253.988 4.84122 254.039 4.95855 254.039 5.10522V19.4932C254.039 19.6399 253.988 19.7646 253.885 19.8672C253.797 19.9552 253.68 19.9992 253.533 19.9992H252.367Z" fill="#62500F"/>
    <path d="M259.043 19.9992C258.882 19.9992 258.757 19.9552 258.669 19.8672C258.581 19.7646 258.537 19.6399 258.537 19.4932V5.10522C258.537 4.95855 258.581 4.84122 258.669 4.75322C258.757 4.65055 258.882 4.59922 259.043 4.59922H260.209C260.356 4.59922 260.473 4.65055 260.561 4.75322C260.664 4.84122 260.715 4.95855 260.715 5.10522V19.4932C260.715 19.6399 260.664 19.7646 260.561 19.8672C260.473 19.9552 260.356 19.9992 260.209 19.9992H259.043ZM260.891 2.37722C260.73 2.37722 260.605 2.33322 260.517 2.24522C260.429 2.15722 260.385 2.03989 260.385 1.89322V0.705219C260.385 0.558552 260.429 0.441219 260.517 0.353218C260.605 0.250552 260.73 0.199219 260.891 0.199219H262.079C262.226 0.199219 262.343 0.250552 262.431 0.353218C262.534 0.441219 262.585 0.558552 262.585 0.705219V1.89322C262.585 2.03989 262.534 2.15722 262.431 2.24522C262.343 2.33322 262.226 2.37722 262.079 2.37722H260.891ZM257.151 2.37722C257.004 2.37722 256.887 2.33322 256.799 2.24522C256.711 2.15722 256.667 2.03989 256.667 1.89322V0.705219C256.667 0.558552 256.711 0.441219 256.799 0.353218C256.887 0.250552 257.004 0.199219 257.151 0.199219H258.361C258.508 0.199219 258.625 0.250552 258.713 0.353218C258.816 0.441219 258.867 0.558552 258.867 0.705219V1.89322C258.867 2.03989 258.816 2.15722 258.713 2.24522C258.625 2.33322 258.508 2.37722 258.361 2.37722H257.151Z" fill="#62500F"/>
    <path d="M99.4557 48.8813C99.3157 48.8813 99.1967 48.8393 99.0987 48.7553C99.0147 48.6713 98.9727 48.5593 98.9727 48.4193V34.6642C98.9727 34.5102 99.0147 34.3913 99.0987 34.3073C99.1967 34.2232 99.3157 34.1812 99.4557 34.1812H99.9807C100.121 34.1812 100.226 34.2162 100.296 34.2862C100.366 34.3562 100.408 34.4122 100.422 34.4542L105.189 43.7362L109.977 34.4542C110.005 34.4122 110.047 34.3562 110.103 34.2862C110.173 34.2162 110.278 34.1812 110.418 34.1812H110.922C111.076 34.1812 111.195 34.2232 111.279 34.3073C111.363 34.3913 111.405 34.5102 111.405 34.6642V48.4193C111.405 48.5593 111.363 48.6713 111.279 48.7553C111.195 48.8393 111.076 48.8813 110.922 48.8813H110.544C110.404 48.8813 110.292 48.8393 110.208 48.7553C110.124 48.6713 110.082 48.5593 110.082 48.4193V37.0373L106.071 44.9333C106.015 45.0733 105.931 45.1783 105.819 45.2483C105.721 45.3182 105.588 45.3533 105.42 45.3533H104.958C104.79 45.3533 104.657 45.3182 104.559 45.2483C104.461 45.1783 104.377 45.0733 104.307 44.9333L100.296 37.0373V48.4193C100.296 48.5593 100.254 48.6713 100.17 48.7553C100.086 48.8393 99.9737 48.8813 99.8337 48.8813H99.4557Z" fill="#62500F"/>
    <path d="M119.138 49.0913C117.78 49.0913 116.702 48.6503 115.904 47.7683C115.106 46.8723 114.651 45.7033 114.539 44.2613C114.525 44.0513 114.518 43.7713 114.518 43.4213C114.518 43.0712 114.525 42.7913 114.539 42.5813C114.609 41.6293 114.833 40.7892 115.211 40.0613C115.589 39.3333 116.107 38.7662 116.765 38.3602C117.437 37.9542 118.228 37.7512 119.138 37.7512C120.118 37.7512 120.951 37.9683 121.637 38.4023C122.323 38.8363 122.848 39.4592 123.212 40.2712C123.59 41.0832 123.779 42.0493 123.779 43.1693V43.4843C123.779 43.6243 123.73 43.7363 123.632 43.8203C123.548 43.9043 123.436 43.9462 123.296 43.9462H115.82C115.82 43.9462 115.82 43.9743 115.82 44.0303C115.82 44.0863 115.82 44.1283 115.82 44.1562C115.848 44.7863 115.995 45.3883 116.261 45.9622C116.527 46.5223 116.905 46.9843 117.395 47.3483C117.885 47.6983 118.466 47.8733 119.138 47.8733C119.74 47.8733 120.237 47.7823 120.629 47.6003C121.035 47.4183 121.357 47.2223 121.595 47.0123C121.833 46.7883 121.987 46.6203 122.057 46.5083C122.183 46.3263 122.281 46.2213 122.351 46.1933C122.421 46.1513 122.533 46.1302 122.687 46.1302H123.023C123.149 46.1302 123.254 46.1722 123.338 46.2563C123.436 46.3263 123.478 46.4242 123.464 46.5503C123.45 46.7463 123.338 46.9913 123.128 47.2853C122.932 47.5653 122.645 47.8453 122.267 48.1253C121.903 48.4053 121.455 48.6363 120.923 48.8183C120.391 49.0003 119.796 49.0913 119.138 49.0913ZM115.82 42.7703H122.498V42.6862C122.498 41.9862 122.365 41.3562 122.099 40.7962C121.833 40.2362 121.448 39.7953 120.944 39.4733C120.44 39.1372 119.838 38.9692 119.138 38.9692C118.438 38.9692 117.836 39.1372 117.332 39.4733C116.842 39.7953 116.464 40.2362 116.198 40.7962C115.946 41.3562 115.82 41.9862 115.82 42.6862V42.7703Z" fill="#62500F"/>
    <path d="M125.73 51.1912C125.59 51.1912 125.478 51.1493 125.394 51.0653C125.31 50.9813 125.268 50.8692 125.268 50.7292V48.1253C125.268 47.9853 125.31 47.8733 125.394 47.7893C125.478 47.7053 125.59 47.6633 125.73 47.6633H125.793C126.185 47.6493 126.528 47.4253 126.822 46.9913C127.116 46.5573 127.34 45.8573 127.494 44.8913C127.662 43.9113 127.746 42.6163 127.746 41.0062V38.4233C127.746 38.2833 127.788 38.1713 127.872 38.0873C127.956 38.0033 128.068 37.9612 128.208 37.9612H134.256C134.396 37.9612 134.508 38.0033 134.592 38.0873C134.676 38.1713 134.718 38.2833 134.718 38.4233V47.6213H135.747C135.887 47.6213 135.999 47.6633 136.083 47.7473C136.167 47.8313 136.209 47.9432 136.209 48.0833V50.7292C136.209 50.8692 136.167 50.9813 136.083 51.0653C135.999 51.1493 135.887 51.1912 135.747 51.1912H135.39C135.25 51.1912 135.138 51.1493 135.054 51.0653C134.97 50.9813 134.928 50.8692 134.928 50.7292V48.8813H126.549V50.7292C126.549 50.8692 126.507 50.9813 126.423 51.0653C126.339 51.1493 126.227 51.1912 126.087 51.1912H125.73ZM127.641 47.6633L133.437 47.6213V39.1793H129.027V41.1532C129.027 42.8333 128.908 44.1982 128.67 45.2483C128.432 46.2983 128.089 47.1033 127.641 47.6633Z" fill="#62500F"/>
    <path d="M139.069 48.8813C138.957 48.8813 138.859 48.8393 138.775 48.7553C138.691 48.6713 138.649 48.5733 138.649 48.4613V38.4233C138.649 38.2833 138.691 38.1713 138.775 38.0873C138.859 38.0033 138.971 37.9612 139.111 37.9612H139.468C139.608 37.9612 139.72 38.0033 139.804 38.0873C139.888 38.1713 139.93 38.2833 139.93 38.4233V47.8523L139.552 47.2433L146.398 38.2763C146.468 38.1923 146.538 38.1222 146.608 38.0662C146.692 37.9962 146.804 37.9612 146.944 37.9612H147.343C147.455 37.9612 147.553 38.0033 147.637 38.0873C147.721 38.1573 147.763 38.2483 147.763 38.3602V48.4193C147.763 48.5593 147.721 48.6713 147.637 48.7553C147.553 48.8393 147.441 48.8813 147.301 48.8813H146.944C146.804 48.8813 146.692 48.8393 146.608 48.7553C146.524 48.6713 146.482 48.5593 146.482 48.4193V39.6203L146.923 39.5153L140.014 48.5663C139.958 48.6363 139.888 48.7063 139.804 48.7763C139.72 48.8463 139.608 48.8813 139.468 48.8813H139.069Z" fill="#62500F"/>
    <path d="M158.005 48.8813C157.865 48.8813 157.753 48.8393 157.669 48.7553C157.585 48.6713 157.543 48.5593 157.543 48.4193V44.1353C157.151 44.5273 156.675 44.8142 156.115 44.9963C155.555 45.1643 154.911 45.2483 154.183 45.2483C152.993 45.2483 152.062 45.0033 151.39 44.5133C150.732 44.0233 150.403 43.2253 150.403 42.1193V38.4233C150.403 38.2833 150.445 38.1713 150.529 38.0873C150.613 38.0033 150.725 37.9612 150.865 37.9612H151.222C151.362 37.9612 151.474 38.0033 151.558 38.0873C151.642 38.1713 151.684 38.2833 151.684 38.4233V42.0142C151.684 42.7002 151.894 43.2113 152.314 43.5473C152.748 43.8693 153.399 44.0303 154.267 44.0303C155.261 44.0303 156.052 43.9113 156.64 43.6733C157.242 43.4353 157.543 42.9943 157.543 42.3503V38.4233C157.543 38.2833 157.585 38.1713 157.669 38.0873C157.753 38.0033 157.865 37.9612 158.005 37.9612H158.362C158.502 37.9612 158.614 38.0033 158.698 38.0873C158.782 38.1713 158.824 38.2833 158.824 38.4233V48.4193C158.824 48.5593 158.782 48.6713 158.698 48.7553C158.614 48.8393 158.502 48.8813 158.362 48.8813H158.005Z" fill="#62500F"/>
    <path d="M162.695 48.8813C162.555 48.8813 162.443 48.8393 162.359 48.7553C162.275 48.6713 162.233 48.5593 162.233 48.4193V38.4233C162.233 38.2833 162.275 38.1713 162.359 38.0873C162.443 38.0033 162.555 37.9612 162.695 37.9612H163.052C163.192 37.9612 163.304 38.0033 163.388 38.0873C163.472 38.1713 163.514 38.2833 163.514 38.4233V42.6862H170.066V38.4233C170.066 38.2833 170.108 38.1713 170.192 38.0873C170.276 38.0033 170.388 37.9612 170.528 37.9612H170.885C171.025 37.9612 171.137 38.0033 171.221 38.0873C171.305 38.1713 171.347 38.2833 171.347 38.4233V48.4193C171.347 48.5593 171.305 48.6713 171.221 48.7553C171.137 48.8393 171.025 48.8813 170.885 48.8813H170.528C170.388 48.8813 170.276 48.8393 170.192 48.7553C170.108 48.6713 170.066 48.5593 170.066 48.4193V43.9043H163.514V48.4193C163.514 48.5593 163.472 48.6713 163.388 48.7553C163.304 48.8393 163.192 48.8813 163.052 48.8813H162.695Z" fill="#62500F"/>
    <path d="M175.163 48.8813C175.051 48.8813 174.953 48.8393 174.869 48.7553C174.785 48.6713 174.743 48.5733 174.743 48.4613V38.4233C174.743 38.2833 174.785 38.1713 174.869 38.0873C174.953 38.0033 175.065 37.9612 175.205 37.9612H175.562C175.702 37.9612 175.814 38.0033 175.898 38.0873C175.982 38.1713 176.024 38.2833 176.024 38.4233V47.8523L175.646 47.2433L182.492 38.2763C182.562 38.1923 182.632 38.1222 182.702 38.0662C182.786 37.9962 182.898 37.9612 183.038 37.9612H183.437C183.549 37.9612 183.647 38.0033 183.731 38.0873C183.815 38.1573 183.857 38.2483 183.857 38.3602V48.4193C183.857 48.5593 183.815 48.6713 183.731 48.7553C183.647 48.8393 183.535 48.8813 183.395 48.8813H183.038C182.898 48.8813 182.786 48.8393 182.702 48.7553C182.618 48.6713 182.576 48.5593 182.576 48.4193V39.6203L183.017 39.5153L176.108 48.5663C176.052 48.6363 175.982 48.7063 175.898 48.7763C175.814 48.8463 175.702 48.8813 175.562 48.8813H175.163Z" fill="#62500F"/>
    <path d="M187.672 48.8813C187.56 48.8813 187.462 48.8393 187.378 48.7553C187.294 48.6713 187.252 48.5733 187.252 48.4613V38.4233C187.252 38.2833 187.294 38.1713 187.378 38.0873C187.462 38.0033 187.574 37.9612 187.714 37.9612H188.071C188.211 37.9612 188.323 38.0033 188.407 38.0873C188.491 38.1713 188.533 38.2833 188.533 38.4233V47.8523L188.155 47.2433L195.001 38.2763C195.071 38.1923 195.141 38.1222 195.211 38.0662C195.295 37.9962 195.407 37.9612 195.547 37.9612H195.946C196.058 37.9612 196.156 38.0033 196.24 38.0873C196.324 38.1573 196.366 38.2483 196.366 38.3602V48.4193C196.366 48.5593 196.324 48.6713 196.24 48.7553C196.156 48.8393 196.044 48.8813 195.904 48.8813H195.547C195.407 48.8813 195.295 48.8393 195.211 48.7553C195.127 48.6713 195.085 48.5593 195.085 48.4193V39.6203L195.526 39.5153L188.617 48.5663C188.561 48.6363 188.491 48.7063 188.407 48.7763C188.323 48.8463 188.211 48.8813 188.071 48.8813H187.672ZM191.809 36.4912C191.025 36.4912 190.416 36.3722 189.982 36.1342C189.562 35.8963 189.268 35.5883 189.1 35.2103C188.946 34.8322 188.869 34.4472 188.869 34.0552C188.869 33.9432 188.904 33.8522 188.974 33.7822C189.044 33.6982 189.142 33.6562 189.268 33.6562H189.583C189.709 33.6562 189.807 33.6982 189.877 33.7822C189.947 33.8522 189.982 33.9432 189.982 34.0552C189.982 34.3912 190.101 34.7062 190.339 35.0003C190.591 35.2942 191.081 35.4412 191.809 35.4412C192.551 35.4412 193.041 35.2942 193.279 35.0003C193.517 34.7062 193.636 34.3912 193.636 34.0552C193.636 33.9432 193.671 33.8522 193.741 33.7822C193.811 33.6982 193.909 33.6562 194.035 33.6562H194.35C194.476 33.6562 194.574 33.6982 194.644 33.7822C194.714 33.8522 194.749 33.9432 194.749 34.0552C194.749 34.4472 194.665 34.8322 194.497 35.2103C194.343 35.5883 194.049 35.8963 193.615 36.1342C193.195 36.3722 192.593 36.4912 191.809 36.4912Z" fill="#62500F"/>
    <path d="M214.542 51.6112C214.402 51.6112 214.29 51.5693 214.206 51.4853C214.122 51.4013 214.08 51.2892 214.08 51.1493V48.8813H205.638C205.498 48.8813 205.386 48.8393 205.302 48.7553C205.218 48.6713 205.176 48.5593 205.176 48.4193V38.4233C205.176 38.2833 205.218 38.1713 205.302 38.0873C205.386 38.0033 205.498 37.9612 205.638 37.9612H205.995C206.135 37.9612 206.247 38.0033 206.331 38.0873C206.415 38.1713 206.457 38.2833 206.457 38.4233V47.6633H212.589V38.4233C212.589 38.2833 212.631 38.1713 212.715 38.0873C212.799 38.0033 212.911 37.9612 213.051 37.9612H213.408C213.548 37.9612 213.66 38.0033 213.744 38.0873C213.828 38.1713 213.87 38.2833 213.87 38.4233L213.849 47.6633H214.899C215.039 47.6633 215.151 47.7053 215.235 47.7893C215.319 47.8733 215.361 47.9853 215.361 48.1253V51.1493C215.361 51.2892 215.319 51.4013 215.235 51.4853C215.151 51.5693 215.039 51.6112 214.899 51.6112H214.542Z" fill="#62500F"/>
    <path d="M221.842 49.0913C220.484 49.0913 219.406 48.6503 218.608 47.7683C217.81 46.8723 217.355 45.7033 217.243 44.2613C217.229 44.0513 217.222 43.7713 217.222 43.4213C217.222 43.0712 217.229 42.7913 217.243 42.5813C217.313 41.6293 217.537 40.7892 217.915 40.0613C218.293 39.3333 218.811 38.7662 219.469 38.3602C220.141 37.9542 220.932 37.7512 221.842 37.7512C222.822 37.7512 223.655 37.9683 224.341 38.4023C225.027 38.8363 225.552 39.4592 225.916 40.2712C226.294 41.0832 226.483 42.0493 226.483 43.1693V43.4843C226.483 43.6243 226.434 43.7363 226.336 43.8203C226.252 43.9043 226.14 43.9462 226 43.9462H218.524C218.524 43.9462 218.524 43.9743 218.524 44.0303C218.524 44.0863 218.524 44.1283 218.524 44.1562C218.552 44.7863 218.699 45.3883 218.965 45.9622C219.231 46.5223 219.609 46.9843 220.099 47.3483C220.589 47.6983 221.17 47.8733 221.842 47.8733C222.444 47.8733 222.941 47.7823 223.333 47.6003C223.739 47.4183 224.061 47.2223 224.299 47.0123C224.537 46.7883 224.691 46.6203 224.761 46.5083C224.887 46.3263 224.985 46.2213 225.055 46.1933C225.125 46.1513 225.237 46.1302 225.391 46.1302H225.727C225.853 46.1302 225.958 46.1722 226.042 46.2563C226.14 46.3263 226.182 46.4242 226.168 46.5503C226.154 46.7463 226.042 46.9913 225.832 47.2853C225.636 47.5653 225.349 47.8453 224.971 48.1253C224.607 48.4053 224.159 48.6363 223.627 48.8183C223.095 49.0003 222.5 49.0913 221.842 49.0913ZM218.524 42.7703H225.202V42.6862C225.202 41.9862 225.069 41.3562 224.803 40.7962C224.537 40.2362 224.152 39.7953 223.648 39.4733C223.144 39.1372 222.542 38.9692 221.842 38.9692C221.142 38.9692 220.54 39.1372 220.036 39.4733C219.546 39.7953 219.168 40.2362 218.902 40.7962C218.65 41.3562 218.524 41.9862 218.524 42.6862V42.7703Z" fill="#62500F"/>
    <path d="M229.714 48.8813C229.574 48.8813 229.462 48.8393 229.378 48.7553C229.294 48.6713 229.252 48.5593 229.252 48.4193V38.4233C229.252 38.2833 229.294 38.1713 229.378 38.0873C229.462 38.0033 229.574 37.9612 229.714 37.9612H230.071C230.211 37.9612 230.323 38.0033 230.407 38.0873C230.491 38.1713 230.533 38.2833 230.533 38.4233V42.6862H237.085V38.4233C237.085 38.2833 237.127 38.1713 237.211 38.0873C237.295 38.0033 237.407 37.9612 237.547 37.9612H237.904C238.044 37.9612 238.156 38.0033 238.24 38.0873C238.324 38.1713 238.366 38.2833 238.366 38.4233V48.4193C238.366 48.5593 238.324 48.6713 238.24 48.7553C238.156 48.8393 238.044 48.8813 237.904 48.8813H237.547C237.407 48.8813 237.295 48.8393 237.211 48.7553C237.127 48.6713 237.085 48.5593 237.085 48.4193V43.9043H230.533V48.4193C230.533 48.5593 230.491 48.6713 230.407 48.7553C230.323 48.8393 230.211 48.8813 230.071 48.8813H229.714Z" fill="#62500F"/>
    <path d="M245.101 48.8813C244.961 48.8813 244.849 48.8393 244.765 48.7553C244.681 48.6713 244.639 48.5593 244.639 48.4193V39.1793H240.796C240.656 39.1793 240.544 39.1372 240.46 39.0532C240.376 38.9692 240.334 38.8572 240.334 38.7172V38.4233C240.334 38.2833 240.376 38.1713 240.46 38.0873C240.544 38.0033 240.656 37.9612 240.796 37.9612H249.763C249.903 37.9612 250.015 38.0033 250.099 38.0873C250.183 38.1713 250.225 38.2833 250.225 38.4233V38.7172C250.225 38.8572 250.183 38.9692 250.099 39.0532C250.015 39.1372 249.903 39.1793 249.763 39.1793H245.92V48.4193C245.92 48.5593 245.878 48.6713 245.794 48.7553C245.71 48.8393 245.598 48.8813 245.458 48.8813H245.101Z" fill="#62500F"/>
    <path d="M252.684 52.8713C252.544 52.8713 252.432 52.8293 252.348 52.7453C252.264 52.6613 252.222 52.5492 252.222 52.4093V38.4233C252.222 38.2833 252.264 38.1713 252.348 38.0873C252.432 38.0033 252.544 37.9612 252.684 37.9612H253.041C253.181 37.9612 253.293 38.0033 253.377 38.0873C253.461 38.1713 253.503 38.2833 253.503 38.4233V39.4102C253.853 38.9342 254.308 38.5423 254.868 38.2343C255.442 37.9123 256.163 37.7512 257.031 37.7512C257.857 37.7512 258.55 37.8982 259.11 38.1923C259.67 38.4722 260.125 38.8502 260.475 39.3263C260.825 39.8022 261.084 40.3342 261.252 40.9223C261.42 41.5103 261.511 42.1123 261.525 42.7283C261.539 42.9383 261.546 43.1693 261.546 43.4213C261.546 43.6733 261.539 43.9043 261.525 44.1143C261.511 44.7303 261.42 45.3323 261.252 45.9203C261.084 46.5083 260.825 47.0403 260.475 47.5163C260.125 47.9923 259.67 48.3773 259.11 48.6713C258.55 48.9513 257.857 49.0913 257.031 49.0913C256.163 49.0913 255.442 48.9303 254.868 48.6083C254.308 48.2863 253.853 47.8942 253.503 47.4323V52.4093C253.503 52.5492 253.461 52.6613 253.377 52.7453C253.293 52.8293 253.181 52.8713 253.041 52.8713H252.684ZM256.905 47.8733C257.731 47.8733 258.382 47.6913 258.858 47.3273C259.334 46.9633 259.677 46.4873 259.887 45.8993C260.097 45.3112 260.216 44.6813 260.244 44.0093C260.258 43.6173 260.258 43.2253 260.244 42.8333C260.216 42.1613 260.097 41.5312 259.887 40.9433C259.677 40.3553 259.334 39.8793 258.858 39.5153C258.382 39.1512 257.731 38.9692 256.905 38.9692C256.107 38.9692 255.463 39.1582 254.973 39.5363C254.483 39.9143 254.119 40.3903 253.881 40.9643C253.657 41.5243 253.531 42.0913 253.503 42.6653C253.489 42.8753 253.482 43.1482 253.482 43.4843C253.482 43.8202 253.489 44.0933 253.503 44.3033C253.517 44.8633 253.643 45.4163 253.881 45.9622C254.133 46.5083 254.504 46.9633 254.994 47.3273C255.498 47.6913 256.135 47.8733 256.905 47.8733Z" fill="#62500F"/>
    <line opacity="0.3" x1="97" y1="28.6394" x2="261" y2="28.6394" stroke="#62500F" stroke-width="0.721277"/>
    <line opacity="0.3" x1="87.3565" y1="4" x2="87.3565" y2="49" stroke="#62500F" stroke-width="0.71309"/>
</svg>
