<svg width="17" height="20" viewBox="0 0 17 20" fill="none"
    xmlns="http://www.w3.org/2000/svg">
    <path d="M16.015 8.5075C16.015 13.87 8.5075 18.875 8.5075 18.875C8.5075 18.875 1 13.87 1 8.5075C1 6.51639 1.79097 4.60683 3.1989 3.1989C4.60682 1.79097 6.51639 1 8.5075 1C10.4986 1 12.4082 1.79097 13.8161 3.1989C15.224 4.60683 16.015 6.51639 16.015 8.5075Z" stroke="currentColor" stroke-width="1.2" stroke-linecap="round" stroke-linejoin="round"/>
    <path d="M8.50625 10.2937C9.49346 10.2937 10.2937 9.49346 10.2937 8.50625C10.2937 7.51904 9.49346 6.71875 8.50625 6.71875C7.51904 6.71875 6.71875 7.51904 6.71875 8.50625C6.71875 9.49346 7.51904 10.2937 8.50625 10.2937Z" fill="currentColor" stroke="currentColor" stroke-width="1.2" stroke-linecap="round" stroke-linejoin="round"/>
</svg>
