<svg width="33" height="32" viewBox="0 0 33 32" fill="none"
    xmlns="http://www.w3.org/2000/svg">
    <path d="M11.1667 12.0002H21.8333M11.1667 17.3335H19.1667M24.5 5.3335C25.5609 5.3335 26.5783 5.75492 27.3284 6.50507C28.0786 7.25521 28.5 8.27263 28.5 9.3335V20.0002C28.5 21.061 28.0786 22.0784 27.3284 22.8286C26.5783 23.5787 25.5609 24.0002 24.5 24.0002H17.8333L11.1667 28.0002V24.0002H8.5C7.43913 24.0002 6.42172 23.5787 5.67157 22.8286C4.92143 22.0784 4.5 21.061 4.5 20.0002V9.3335C4.5 8.27263 4.92143 7.25521 5.67157 6.50507C6.42172 5.75492 7.43913 5.3335 8.5 5.3335H24.5Z" stroke="currentColor" stroke-width="2" stroke-linecap="round" stroke-linejoin="round"/>
</svg>
