<svg width="27" height="25" viewBox="0 0 27 25" fill="none"
    xmlns="http://www.w3.org/2000/svg">
    <path d="M8.16667 8.00016H18.8333M8.16667 13.3335H16.1667M21.5 1.3335C22.5609 1.3335 23.5783 1.75492 24.3284 2.50507C25.0786 3.25521 25.5 4.27263 25.5 5.3335V16.0002C25.5 17.061 25.0786 18.0784 24.3284 18.8286C23.5783 19.5787 22.5609 20.0002 21.5 20.0002H14.8333L8.16667 24.0002V20.0002H5.5C4.43913 20.0002 3.42172 19.5787 2.67157 18.8286C1.92143 18.0784 1.5 17.061 1.5 16.0002V5.3335C1.5 4.27263 1.92143 3.25521 2.67157 2.50507C3.42172 1.75492 4.43913 1.3335 5.5 1.3335H21.5Z" stroke="currentColor" stroke-width="2" stroke-linecap="round" stroke-linejoin="round"/>
</svg>
