<svg width="20" height="20" viewBox="0 0 20 20" fill="none"
    xmlns="http://www.w3.org/2000/svg">
    <path d="M6.90625 7.67969H13.0938M6.90625 10.7734H11.5469M14.6406 3.8125C15.256 3.8125 15.8462 4.05696 16.2813 4.4921C16.7165 4.92725 16.9609 5.51743 16.9609 6.13281V12.3203C16.9609 12.9357 16.7165 13.5259 16.2813 13.961C15.8462 14.3962 15.256 14.6406 14.6406 14.6406H10.7734L6.90625 16.9609V14.6406H5.35938C4.74399 14.6406 4.15381 14.3962 3.71867 13.961C3.28352 13.5259 3.03906 12.9357 3.03906 12.3203V6.13281C3.03906 5.51743 3.28352 4.92725 3.71867 4.4921C4.15381 4.05696 4.74399 3.8125 5.35938 3.8125H14.6406Z" stroke="currentColor" stroke-width="1.14391" stroke-linecap="round" stroke-linejoin="round"/>
</svg>
