<svg width="20" height="20" viewBox="0 0 20 20" fill="none"
    xmlns="http://www.w3.org/2000/svg">
    <path d="M5.83891 9.06414C6.95266 11.253 8.74703 13.0396 10.9359 14.1611L12.6374 12.4595C12.8462 12.2507 13.1556 12.1811 13.4263 12.2739C14.2926 12.5601 15.2284 12.7148 16.1875 12.7148C16.6129 12.7148 16.9609 13.0628 16.9609 13.4882V16.1875C16.9609 16.6129 16.6129 16.9609 16.1875 16.9609C8.92492 16.9609 3.03906 11.0751 3.03906 3.8125C3.03906 3.38711 3.38711 3.03906 3.8125 3.03906H6.51953C6.94492 3.03906 7.29297 3.38711 7.29297 3.8125C7.29297 4.7793 7.44766 5.70742 7.73383 6.57367C7.81891 6.84438 7.75703 7.14602 7.54047 7.36258L5.83891 9.06414Z" fill="currentColor"/>
</svg>
