<svg width="24" height="24" viewBox="0 0 24 24" fill="none"
    xmlns="http://www.w3.org/2000/svg">
    <path d="M22.7168 22.7148L17.4431 17.4412M17.4431 17.4412C18.3452 16.5391 19.0608 15.4682 19.549 14.2895C20.0372 13.1109 20.2884 11.8477 20.2884 10.572C20.2884 9.29623 20.0372 8.03299 19.549 6.85437C19.0608 5.67574 18.3452 4.60482 17.4431 3.70274C16.541 2.80067 15.4701 2.0851 14.2915 1.5969C13.1129 1.1087 11.8496 0.857422 10.5739 0.857422C9.29818 0.857422 8.03494 1.1087 6.85632 1.5969C5.6777 2.0851 4.60677 2.80067 3.7047 3.70274C1.88287 5.52457 0.859375 7.9955 0.859375 10.572C0.859375 13.1484 1.88287 15.6193 3.7047 17.4412C5.52653 19.263 7.99746 20.2865 10.5739 20.2865C13.1504 20.2865 15.6213 19.263 17.4431 17.4412Z" stroke="currentColor" stroke-width="1.71429" stroke-linecap="round" stroke-linejoin="round"/>
</svg>
