<svg width="64" height="64" viewBox="0 0 64 64" fill="none"
    xmlns="http://www.w3.org/2000/svg">
    <path d="M51.3749 43.3333C53.9522 43.3333 56.0416 41.244 56.0416 38.6667C56.0416 36.0893 53.9522 34 51.3749 34C48.7976 34 46.7083 36.0893 46.7083 38.6667C46.7083 41.244 48.7976 43.3333 51.3749 43.3333Z" stroke="currentColor" stroke-width="1.7" stroke-linejoin="round"/>
    <path d="M33.3748 19.3332C36.3204 19.3332 38.7082 16.9454 38.7082 13.9998C38.7082 11.0543 36.3204 8.6665 33.3748 8.6665C30.4293 8.6665 28.0415 11.0543 28.0415 13.9998C28.0415 16.9454 30.4293 19.3332 33.3748 19.3332Z" stroke="currentColor" stroke-width="1.7" stroke-linejoin="round"/>
    <path d="M28.8415 33.1999L33.4415 35.2666L30.9082 39.0666C30.7082 39.3999 30.5082 39.7999 30.4415 40.2666C30.2415 41.7999 31.3082 43.1333 32.7748 43.3333C32.9082 43.3333 42.7082 43.3333 42.7082 43.3333C44.1748 43.3333 45.3748 42.1333 45.3748 40.6666L44.7082 33.1999C44.6415 32.4666 43.9748 31.9333 43.2415 31.9999C42.5082 32.0666 41.9748 32.7333 42.0415 33.4666L42.5082 37.9999H36.2415L36.6415 34.7999C36.7082 34.2666 36.4415 33.6666 35.9082 33.4666L29.9082 30.7999C29.2415 30.5333 28.4415 30.7999 28.1748 31.4666C27.8415 32.1333 28.1748 32.9333 28.8415 33.1999Z" stroke="currentColor" stroke-width="1.7" stroke-linejoin="round"/>
    <path d="M56.5579 46.0859H27.8912V45.4193H56.5579V46.0859Z" stroke="currentColor" stroke-width="1.7" stroke-linejoin="round"/>
    <path d="M36.0415 30.6666C37.0415 30.6666 38.0415 30.0666 38.4415 29.1332C39.0415 27.7999 38.4415 26.1999 37.1082 25.5999L29.3749 21.9999L26.3749 15.3999C24.9082 13.7332 22.3749 13.5332 20.7082 14.9999L8.7082 25.3999C7.7082 26.2666 7.17486 27.3332 7.37486 28.9999L8.7082 40.2666L7.37486 53.0666C7.24153 54.5332 8.3082 55.8666 9.77486 55.9999C9.84153 55.9999 9.97486 55.9999 10.0415 55.9999C11.3749 55.9999 12.5749 54.9999 12.7082 53.5999L14.0415 40.5332C14.0415 40.3332 14.0415 40.1332 14.0415 39.9332L13.7082 36.9999L16.7082 41.9999L16.0415 53.1999C15.9749 54.6666 17.1082 55.9332 18.5749 55.9999C18.6415 55.9999 18.7082 55.9999 18.7082 55.9999C20.1082 55.9999 21.3082 54.9332 21.3749 53.4666L22.0415 41.4666C22.0415 40.9332 21.9082 40.3999 21.6415 39.9332L15.6415 29.9332L23.9082 22.7999L24.9082 25.0666C25.1749 25.6666 25.6415 26.1332 26.2415 26.3999L34.9082 30.3999C35.3082 30.5999 35.6415 30.6666 36.0415 30.6666Z" stroke="currentColor" stroke-width="1.7" stroke-linejoin="round"/>
</svg>
