<svg width="64" height="64" viewBox="0 0 64 64" fill="none"
    xmlns="http://www.w3.org/2000/svg">
    <path d="M31.0227 13.9136C33.7247 13.9136 35.9151 11.7233 35.9151 9.02127C35.9151 6.31929 33.7247 4.12891 31.0227 4.12891C28.3208 4.12891 26.1304 6.31929 26.1304 9.02127C26.1304 11.7233 28.3208 13.9136 31.0227 13.9136Z" stroke="currentColor" stroke-width="1.7" stroke-linejoin="round"/>
    <path d="M43.4771 17.6608C45.5036 17.6608 47.1464 16.018 47.1464 13.9915C47.1464 11.9651 45.5036 10.3223 43.4771 10.3223C41.4507 10.3223 39.8079 11.9651 39.8079 13.9915C39.8079 16.018 41.4507 17.6608 43.4771 17.6608Z" stroke="currentColor" stroke-width="1.7" stroke-linejoin="round"/>
    <path d="M34.9977 33.9723C34.8142 33.9723 34.3861 34.0946 34.0803 34.0946C31.6953 34.0946 29.7995 32.1988 29.7995 29.8138C29.7995 27.8569 31.0838 26.1445 32.9796 25.6553C33.1019 25.5942 35.6092 24.7991 36.6488 20.2737C36.9546 18.9895 37.8108 17.9498 38.9727 17.3994C37.8108 16.6656 36.5265 16.054 35.0588 15.626C33.7746 15.3813 32.4292 15.1367 31.0226 15.1367C29.6772 15.1367 28.3318 15.3813 26.9864 15.7483C25.0295 16.2375 23.3171 17.216 21.8494 18.4391C21.4825 18.806 21.2379 19.2952 21.1156 19.7845L17.6909 34.3393C17.6909 34.4616 17.5686 34.7062 17.5686 34.9508C17.5686 36.2962 18.6694 37.397 20.0148 37.397C21.1156 37.397 22.094 36.5408 22.3387 35.5623L24.9072 24.9215V59.168H29.7995V37.1524H32.2457V59.168H37.1381V33.1773C35.915 33.7889 35.12 33.9723 34.9977 33.9723Z" stroke="currentColor" stroke-width="1.7" stroke-linejoin="round"/>
    <path d="M44.2709 32.3465C45.0706 31.5531 45.044 30.2296 44.2114 29.3904C43.3789 28.5512 42.0556 28.5141 41.2559 29.3075C40.4562 30.1009 40.4828 31.4244 41.3154 32.2636C42.1479 33.1028 43.4712 33.1399 44.2709 32.3465Z" stroke="currentColor" stroke-width="1.7" stroke-linejoin="round"/>
    <path d="M39.0335 27.0184C39.6787 26.4022 40.5389 26.0427 41.399 26.0427C41.8291 26.0427 42.2055 26.1454 42.5818 26.2995C43.1194 25.3237 43.5495 24.1425 43.8721 22.756C44.1947 21.3694 43.2807 19.9828 41.8291 19.6746C40.3776 19.3665 38.926 20.2396 38.6034 21.6261C37.5282 26.0427 34.7863 26.8644 34.625 26.9157H34.6788C33.496 27.1725 32.582 28.1996 32.582 29.4321C32.582 30.8701 33.7648 31.9999 35.2701 31.9999C35.4852 31.9999 35.8615 31.9485 35.8615 31.9485C35.9691 31.9485 37.0443 31.6918 38.4421 30.8187C37.6894 29.6889 37.8507 28.0969 39.0335 27.0184Z" stroke="currentColor" stroke-width="1.7" stroke-linejoin="round"/>
</svg>
