<svg width="64" height="65" viewBox="0 0 64 65" fill="none"
    xmlns="http://www.w3.org/2000/svg">
    <path d="M48.1021 31.6856C52.0496 31.6856 55.2498 28.4854 55.2498 24.5379C55.2498 20.5903 52.0496 17.3901 48.1021 17.3901C44.1545 17.3901 40.9543 20.5903 40.9543 24.5379C40.9543 28.4854 44.1545 31.6856 48.1021 31.6856Z" stroke="currentColor" stroke-width="1.7" stroke-linejoin="round"/>
    <path d="M14.309 39.0341C14.309 39.9811 14.663 40.8096 15.2528 41.4607C13.8371 40.7504 13.1292 39.5076 13.1292 37.2586C13.1292 32.879 17.1405 32.2871 22.5675 31.932V40.0994L21.3877 37.8504C20.6208 36.3116 19.5001 35.4831 17.8484 35.4831C15.9017 35.4831 14.309 37.081 14.309 39.0341ZM9 46.1362C9 47.4383 10.0618 48.5036 11.3596 48.5036H23.1574C24.0422 48.5036 24.927 47.9709 25.281 47.1423C25.6939 46.3138 25.4579 45.3668 24.986 44.6566L24.1602 43.177L23.6883 42.2892L38.0226 38.3239L38.5535 41.2239C38.6125 41.6974 38.8485 42.1709 39.2024 42.4668L44.5114 47.7934C44.9833 48.2668 45.5732 48.5036 46.1631 48.5036C46.753 48.5036 47.3429 48.2668 47.8148 47.7934C48.7586 46.8464 48.7586 45.3668 47.8148 44.4199L43.0367 39.6259L41.385 30.2749C41.208 29.1504 40.2052 28.3218 39.0844 28.3218L22.5675 29.5055C17.9663 29.8014 10.7697 30.2749 10.7697 37.1994C10.7697 40.928 12.4214 42.7627 14.7219 43.7097H11.3596C10.0618 43.7688 9 44.8342 9 46.1362Z" stroke="currentColor" stroke-width="1.7" stroke-linejoin="round"/>
</svg>
