<svg width="24" height="24" viewBox="0 0 24 24" fill="none"
    xmlns="http://www.w3.org/2000/svg">
    <path d="M11.0365 3.46679C11.3079 2.49048 12.6922 2.49048 12.9635 3.46679L14.1995 7.91427C14.3241 8.36249 14.7413 8.66561 15.2061 8.64557L19.8178 8.44677C20.8302 8.40312 21.258 9.71967 20.4133 10.2794L16.5654 12.8293C16.1777 13.0863 16.0183 13.5767 16.181 14.0126L17.7952 18.3372C18.1495 19.2865 17.0296 20.1002 16.2362 19.4698L12.6221 16.5983C12.2578 16.3089 11.7422 16.3089 11.3779 16.5983L7.76378 19.4698C6.97041 20.1002 5.85048 19.2865 6.20483 18.3372L7.81902 14.0126C7.9817 13.5767 7.82234 13.0863 7.43455 12.8293L3.5867 10.2794C2.74202 9.71967 3.1698 8.40312 4.18217 8.44677L8.79393 8.64557C9.25871 8.66561 9.67591 8.36249 9.80048 7.91427L11.0365 3.46679Z" fill="currentColor"/>
</svg>
