<svg width="25" height="21" viewBox="0 0 25 21" fill="none"
    xmlns="http://www.w3.org/2000/svg">
    <path fill-rule="evenodd" clip-rule="evenodd" d="M21.7571 0.573328C22.049 0.450465 22.3685 0.408091 22.6823 0.450615C22.9962 0.493138 23.2929 0.619006 23.5416 0.815116C23.7903 1.01123 23.9819 1.27041 24.0964 1.56569C24.2109 1.86097 24.2442 2.18155 24.1928 2.49407L21.5137 18.7448C21.2538 20.3123 19.5339 21.2112 18.0963 20.4304C16.8938 19.7772 15.1077 18.7707 13.5012 17.7206C12.6979 17.1949 10.2373 15.5116 10.5397 14.3138C10.7996 13.2897 14.9341 9.4411 17.2966 7.15298C18.2239 6.25404 17.801 5.73546 16.706 6.56235C13.9867 8.61539 9.62072 11.7375 8.17721 12.6163C6.90381 13.3913 6.23993 13.5236 5.44612 13.3913C3.99789 13.1503 2.65479 12.777 1.55857 12.3222C0.0772661 11.708 0.149323 9.67145 1.55739 9.07845L21.7571 0.573328Z" fill="currentColor"/>
</svg>
