<svg width="25" height="27" viewBox="0 0 25 27" fill="none"
    xmlns="http://www.w3.org/2000/svg">
    <path d="M7.95624 5.7525C7.72393 5.71869 7.48704 5.76545 7.28499 5.885H7.26749C6.79874 6.16 6.37624 6.50625 6.01624 6.91375C5.71624 7.26 5.55374 7.61 5.51124 7.9475C5.48624 8.1475 5.50374 8.35 5.56249 8.54125L5.58499 8.55375C5.92249 9.545 6.36249 10.4988 6.89999 11.3962C7.59306 12.6569 8.44594 13.8227 9.43749 14.865L9.46749 14.9075L9.51499 14.9425L9.54374 14.9763L9.57874 15.0062C10.6247 16.0008 11.7933 16.8577 13.0562 17.5563C14.5 18.3425 15.3762 18.7137 15.9025 18.8687V18.8763C16.0562 18.9237 16.1962 18.945 16.3375 18.945C16.7857 18.9119 17.2099 18.7297 17.5425 18.4275C17.9487 18.0675 18.2925 17.6438 18.56 17.1725V17.1638C18.8112 16.6888 18.7262 16.2413 18.3637 15.9375C17.6356 15.3013 16.8483 14.7362 16.0125 14.25C15.4525 13.9462 14.8837 14.13 14.6537 14.4375L14.1625 15.0575C13.91 15.365 13.4525 15.3225 13.4525 15.3225L13.44 15.33C10.0262 14.4588 9.11499 11.0025 9.11499 11.0025C9.11499 11.0025 9.07249 10.5325 9.38874 10.2925L10.0037 9.7975C10.2987 9.5575 10.5037 8.99 10.1875 8.43C9.7045 7.59345 9.14055 6.80634 8.50374 6.08C8.36485 5.90906 8.17008 5.79263 7.95374 5.75125L7.95624 5.7525ZM13.725 4.25C13.5592 4.25 13.4003 4.31585 13.2831 4.43306C13.1658 4.55027 13.1 4.70924 13.1 4.875C13.1 5.04076 13.1658 5.19973 13.2831 5.31694C13.4003 5.43415 13.5592 5.5 13.725 5.5C15.305 5.5 16.6175 6.01625 17.6562 7.00625C18.19 7.5475 18.6062 8.18875 18.8787 8.89125C19.1525 9.595 19.2775 10.3463 19.245 11.0988C19.238 11.2645 19.2972 11.4262 19.4095 11.5484C19.5218 11.6705 19.678 11.743 19.8437 11.75C20.0095 11.757 20.1712 11.6978 20.2934 11.5855C20.4155 11.4732 20.488 11.317 20.495 11.1512C20.5338 10.2256 20.3801 9.30198 20.0437 8.43875C19.7059 7.57142 19.1937 6.78265 18.5387 6.12125L18.5262 6.10875C17.2375 4.8775 15.6075 4.25 13.725 4.25Z" fill="currentColor"/>
    <path d="M13.6816 6.30496C13.5159 6.30496 13.3569 6.37081 13.2397 6.48802C13.1225 6.60523 13.0566 6.7642 13.0566 6.92996C13.0566 7.09572 13.1225 7.25469 13.2397 7.3719C13.3569 7.48911 13.5159 7.55496 13.6816 7.55496H13.7029C14.8429 7.63621 15.6729 8.01621 16.2541 8.63996C16.8504 9.28246 17.1591 10.0812 17.1354 11.0687C17.1316 11.2345 17.1938 11.395 17.3083 11.5149C17.4228 11.6348 17.5803 11.7043 17.746 11.7081C17.9118 11.7119 18.0723 11.6497 18.1922 11.5352C18.3121 11.4207 18.3816 11.2632 18.3854 11.0975C18.4154 9.80121 17.9979 8.68246 17.1704 7.78996V7.78746C16.3241 6.87996 15.1629 6.39996 13.7654 6.30621L13.7441 6.30371L13.6816 6.30496Z" fill="currentColor"/>
    <path d="M13.6575 8.3989C13.5738 8.39152 13.4896 8.40107 13.4097 8.42698C13.3298 8.45289 13.256 8.49463 13.1926 8.5497C13.1292 8.60477 13.0776 8.67205 13.0408 8.74753C13.004 8.823 12.9828 8.90511 12.9784 8.98896C12.974 9.07282 12.9866 9.15669 13.0154 9.23558C13.0441 9.31447 13.0885 9.38675 13.1458 9.44811C13.2031 9.50947 13.2722 9.55866 13.3489 9.59273C13.4257 9.6268 13.5085 9.64505 13.5925 9.6464C14.115 9.6739 14.4487 9.8314 14.6587 10.0427C14.87 10.2552 15.0275 10.5964 15.0562 11.1302C15.0578 11.214 15.0762 11.2967 15.1104 11.3733C15.1446 11.4499 15.1939 11.5189 15.2553 11.576C15.3167 11.6332 15.389 11.6774 15.4678 11.706C15.5467 11.7346 15.6305 11.7471 15.7143 11.7427C15.798 11.7382 15.88 11.7169 15.9554 11.6801C16.0308 11.6433 16.098 11.5917 16.153 11.5283C16.208 11.465 16.2497 11.3912 16.2756 11.3115C16.3015 11.2317 16.3111 11.1475 16.3037 11.0639C16.2637 10.3139 16.0287 9.6514 15.5475 9.1639C15.0637 8.6764 14.405 8.4389 13.6575 8.3989Z" fill="currentColor"/>
    <path fill-rule="evenodd" clip-rule="evenodd" d="M6.83376 0.980317C10.8113 0.0911965 14.9362 0.0911965 18.9138 0.980317L19.3375 1.07407C20.5003 1.334 21.5682 1.91123 22.4226 2.74159C23.277 3.57196 23.8845 4.62296 24.1775 5.77782C25.1871 9.75643 25.1871 13.9242 24.1775 17.9028C23.8845 19.0577 23.277 20.1087 22.4226 20.939C21.5682 21.7694 20.5003 22.3466 19.3375 22.6066L18.9125 22.7003C16.4213 23.2574 13.865 23.4673 11.3163 23.3241L8.00001 26.2916C7.87498 26.4035 7.7222 26.4798 7.55762 26.5126C7.39303 26.5453 7.22267 26.5333 7.06431 26.4778C6.90596 26.4222 6.76542 26.3252 6.65737 26.1968C6.54931 26.0684 6.4777 25.9133 6.45001 25.7478L5.90126 22.4703C4.84898 22.1429 3.89827 21.5511 3.13997 20.7514C2.38167 19.9518 1.84113 18.971 1.57001 17.9028C0.560323 13.9242 0.560323 9.75642 1.57001 5.77782C1.86303 4.62296 2.4705 3.57196 3.32492 2.74159C4.17935 1.91123 5.24726 1.334 6.41001 1.07407L6.83376 0.980317ZM18.505 2.80907C14.7966 1.98007 10.9509 1.98007 7.24251 2.80907L6.81751 2.90407C5.99341 3.08864 5.23659 3.49801 4.6311 4.08673C4.02561 4.67545 3.59514 5.42047 3.38751 6.23907C2.45465 9.91497 2.45465 13.7657 3.38751 17.4416C3.59524 18.2603 4.0259 19.0055 4.63162 19.5942C5.23735 20.1829 5.99443 20.5922 6.81876 20.7766L6.93126 20.8016C7.11325 20.8423 7.27897 20.9363 7.40722 21.0717C7.53548 21.2071 7.62044 21.3776 7.65126 21.5616L8.01876 23.7591L10.3588 21.6653C10.4522 21.5815 10.5615 21.5172 10.6803 21.4764C10.799 21.4356 10.9248 21.4191 11.05 21.4278C13.5488 21.6051 16.0602 21.4177 18.505 20.8716L18.9288 20.7766C19.7531 20.5922 20.5102 20.1829 21.1159 19.5942C21.7216 19.0055 22.1523 18.2603 22.36 17.4416C23.2925 13.7666 23.2925 9.91532 22.36 6.23907C22.1523 5.42031 21.7216 4.67518 21.1159 4.08645C20.5102 3.49771 19.7531 3.08843 18.9288 2.90407L18.505 2.80907Z" fill="currentColor"/>
</svg>
