<svg width="64" height="65" viewBox="0 0 64 65" fill="none" xmlns="http://www.w3.org/2000/svg">
<path d="M39.7278 14.1667C39.7278 18.2996 36.3774 21.65 32.2445 21.65C28.1115 21.65 24.7611 18.2996 24.7611 14.1667C24.7611 11.9958 25.3149 9.98224 26.3478 8.53639C27.3616 7.11738 28.8482 6.21963 30.853 6.21963C32.9114 6.21963 35.1503 7.16708 36.8816 8.68196C38.6149 10.1987 39.7278 12.1824 39.7278 14.1667Z" stroke="#EA8529" stroke-width="1.7"/>
<path d="M38.2446 42.1668C38.2446 42.2335 38.2446 42.3002 38.2446 42.3668C35.9113 42.5668 34.178 44.5002 34.2446 46.8335C34.2446 47.5002 34.4446 48.1668 34.778 48.7002C34.0446 48.9668 33.1113 49.1002 32.1113 49.1002C31.0446 49.1002 30.178 48.9668 29.5113 48.7002C30.5113 47.2335 30.5113 45.2335 29.4446 43.7002C28.6446 42.6335 27.5113 41.9668 26.2446 41.8335V40.5002H38.2446V42.1668ZM51.0446 29.9668L39.578 23.9668C39.3113 23.9002 39.0446 23.8335 38.778 23.8335H26.2446C25.9113 23.8335 25.6446 23.9002 25.3113 23.9668L13.3113 30.6335C11.9113 31.1668 11.2446 32.7002 11.7113 34.0335C12.1113 35.1668 13.178 35.8335 14.2446 35.8335C14.578 35.8335 14.8446 35.7668 15.178 35.7002L23.578 31.3002C23.578 31.3002 23.578 42.3002 23.578 42.5002C23.4446 42.5668 18.1113 46.3002 18.1113 46.3002C16.978 47.1002 16.6446 48.7002 17.378 49.9002L22.0446 57.2335C22.8446 58.5002 24.5113 58.8335 25.7113 58.0335C26.9113 57.2335 27.3113 55.5668 26.5113 54.3668L24.2446 50.7002H25.7113C26.178 50.7002 26.6446 50.6335 27.1113 50.5002C28.3113 51.3002 29.9113 51.7668 32.0446 51.7668C34.0446 51.7668 35.6446 51.3002 36.9113 50.6335C37.4446 50.9002 38.1113 50.9668 38.778 50.9668L39.978 50.9002L37.578 54.2335C36.7113 55.4335 36.978 57.1002 38.178 57.9668C39.378 58.8335 41.0446 58.5668 41.9113 57.3668L47.2446 50.0335C47.3113 49.9668 47.378 49.9002 47.378 49.7668C48.1113 48.5002 47.6446 46.8335 46.378 46.1002L40.9113 43.0335C40.9113 42.7668 40.9113 31.0335 40.9113 31.0335L49.4446 35.1002C49.7113 35.1668 49.978 35.2335 50.2446 35.2335C51.378 35.2335 52.4446 34.5002 52.778 33.3668C53.2446 31.9002 52.4446 30.4335 51.0446 29.9668Z" stroke="#EA8529" stroke-width="1.7" stroke-linejoin="round"/>
</svg>
