<svg width="42" height="42" viewBox="0 0 42 42" fill="none" xmlns="http://www.w3.org/2000/svg">
<path opacity="0.5" d="M3.81818 7.63636H0V38.1818C0 40.2818 1.71818 42 3.81818 42H34.3636V38.1818H3.81818V7.63636ZM24.8182 26.7273H28.6364V7.63636H21V11.4545H24.8182V26.7273ZM38.1818 0H11.4545C9.35455 0 7.63636 1.71818 7.63636 3.81818V30.5455C7.63636 32.6455 9.35455 34.3636 11.4545 34.3636H38.1818C40.2818 34.3636 42 32.6455 42 30.5455V3.81818C42 1.71818 40.2818 0 38.1818 0ZM38.1818 30.5455H11.4545V3.81818H38.1818V30.5455Z" fill="white"/>
</svg>
