<svg width="14" height="14" viewBox="0 0 14 14" fill="none" xmlns="http://www.w3.org/2000/svg">
<path d="M7.00966 0.328125C10.6956 0.328125 13.6834 3.31279 13.6834 6.99479C13.6834 10.6768 10.6956 13.6615 7.00966 13.6615C3.32376 13.6615 0.335938 10.6768 0.335938 6.99479C0.335938 3.31279 3.32376 0.328125 7.00966 0.328125ZM7.00966 1.66146C5.59368 1.66146 4.23569 2.22336 3.23443 3.22356C2.23318 4.22375 1.67068 5.5803 1.67068 6.99479C1.67068 8.40928 2.23318 9.76583 3.23443 10.766C4.23569 11.7662 5.59368 12.3281 7.00966 12.3281C8.42565 12.3281 9.78364 11.7662 10.7849 10.766C11.7861 9.76583 12.3486 8.40928 12.3486 6.99479C12.3486 5.5803 11.7861 4.22375 10.7849 3.22356C9.78364 2.22336 8.42565 1.66146 7.00966 1.66146ZM7.00966 2.99479C7.17312 2.99481 7.33089 3.05476 7.45305 3.16327C7.5752 3.27177 7.65324 3.42129 7.67236 3.58346L7.67703 3.66146V6.71879L9.48361 8.52346C9.6033 8.64343 9.67279 8.80441 9.67797 8.97371C9.68314 9.14301 9.62362 9.30793 9.51147 9.43498C9.39933 9.56202 9.24299 9.64166 9.07419 9.65772C8.9054 9.67379 8.73682 9.62507 8.60268 9.52146L8.53995 9.46613L6.53783 7.46613C6.43411 7.36242 6.36749 7.22746 6.3483 7.08212L6.34229 6.99479V3.66146C6.34229 3.48465 6.4126 3.31508 6.53776 3.19005C6.66291 3.06503 6.83266 2.99479 7.00966 2.99479Z" fill="#62500F" stroke="#62500F" stroke-width="0.2"/>
</svg>
