<svg width="63" height="80" viewBox="0 0 63 80" fill="none" xmlns="http://www.w3.org/2000/svg">
<path d="M30.6667 47.6523C32.775 47.6523 34.5805 46.9023 36.0832 45.4022C37.5858 43.9021 38.3359 42.0966 38.3333 39.9857C38.3333 37.8773 37.5833 36.0731 36.0832 34.573C34.5831 33.0729 32.7776 32.3216 30.6667 32.319C28.5583 32.319 26.7541 33.0703 25.254 34.573C23.7539 36.0757 23.0026 37.8799 23 39.9857C23 42.094 23.7513 43.8995 25.254 45.4022C26.7567 46.9048 28.5609 47.6549 30.6667 47.6523ZM15.3333 60.9857C15.3333 62.0902 16.2288 62.9857 17.3333 62.9857H44C45.1046 62.9857 46 62.0902 46 60.9857V60.7815C46 59.2482 45.5847 57.8426 44.7542 56.5648C43.9236 55.2871 42.7736 54.3287 41.3042 53.6898C39.6431 52.9871 37.9334 52.444 36.1752 52.0607C34.4169 51.6773 32.5808 51.4857 30.6667 51.4857C28.75 51.4857 26.9138 51.6773 25.1582 52.0607C23.4025 52.444 21.6928 52.9871 20.0292 53.6898C18.5597 54.3287 17.4097 55.2871 16.5792 56.5648C15.7486 57.8426 15.3333 59.2482 15.3333 60.7815V60.9857ZM53.6667 78.319H7.66667C5.55833 78.319 3.75411 77.569 2.254 76.0688C0.753888 74.5687 0.00255556 72.7632 0 70.6523V9.31901C0 7.21068 0.751333 5.40646 2.254 3.90634C3.75667 2.40623 5.56089 1.6549 7.66667 1.65234H37.5049C38.0353 1.65234 38.544 1.86306 38.9191 2.23813L60.7475 24.0666C61.1226 24.4416 61.3333 24.9503 61.3333 25.4808V70.6523C61.3333 72.7607 60.5833 74.5662 59.0832 76.0688C57.5831 77.5715 55.7776 78.3216 53.6667 78.319ZM51.6667 70.6523C52.7712 70.6523 53.6667 69.7569 53.6667 68.6523V28.7391C53.6667 28.2087 53.456 27.7 53.0809 27.3249L35.6608 9.9048C35.2857 9.52972 34.777 9.31901 34.2466 9.31901H9.66667C8.5621 9.31901 7.66667 10.2144 7.66667 11.319V68.6523C7.66667 69.7569 8.5621 70.6523 9.66667 70.6523H51.6667Z" fill="#EA8529" stroke="#FFF8F0" stroke-width="3" stroke-linejoin="round"/>
</svg>
