<svg width="21" height="16" viewBox="0 0 21 16" fill="none" xmlns="http://www.w3.org/2000/svg">
<path d="M3.50006 0C2.5718 0 1.68156 0.337142 1.02519 0.937258C0.36881 1.53737 6.10352e-05 2.35131 6.10352e-05 3.2V3.5216L10.5001 8.6912L21.0001 3.5232V3.2C21.0001 2.35131 20.6313 1.53737 19.9749 0.937258C19.3186 0.337142 18.4283 0 17.5001 0H3.50006ZM21.0001 5.3392L10.9148 10.304C10.7873 10.3667 10.6448 10.3996 10.5001 10.3996C10.3553 10.3996 10.2128 10.3667 10.0853 10.304L6.10352e-05 5.3392V12.8C6.10352e-05 13.6487 0.36881 14.4626 1.02519 15.0627C1.68156 15.6629 2.5718 16 3.50006 16H17.5001C18.4283 16 19.3186 15.6629 19.9749 15.0627C20.6313 14.4626 21.0001 13.6487 21.0001 12.8V5.3392Z" fill="#62500F"/>
</svg>
