<svg width="891" height="557" viewBox="0 0 891 557" fill="none" xmlns="http://www.w3.org/2000/svg">
<path d="M3.24975 471.842C2.48593 471.842 1.83668 471.575 1.30201 471.04C0.767337 470.582 0.5 469.932 0.5 469.092V444.344C0.5 443.581 0.767337 442.931 1.30201 442.397C1.83668 441.862 2.48593 441.595 3.24975 441.595H5.54121C7.37437 441.595 8.9402 440.754 10.2387 439.074C11.5372 437.317 12.6065 434.797 13.4467 431.512C14.2869 428.151 14.898 424.027 15.2799 419.138C15.6618 414.25 15.8528 408.674 15.8528 402.411V378.465C15.8528 377.701 16.1201 377.052 16.6548 376.517C17.1895 375.983 17.8769 375.715 18.7171 375.715H67.8689C68.7091 375.715 69.3965 375.983 69.9312 376.517C70.4659 377.052 70.7332 377.739 70.7332 378.58V441.595H76.2327C77.0729 441.595 77.7603 441.862 78.295 442.397C78.8297 442.931 79.097 443.581 79.097 444.344V469.092C79.097 469.932 78.8297 470.582 78.295 471.04C77.7603 471.575 77.0729 471.842 76.2327 471.842H65.9211C65.0809 471.842 64.3935 471.575 63.8588 471.04C63.4005 470.582 63.1714 469.932 63.1714 469.092V455.916H16.4256V469.092C16.4256 469.932 16.1583 470.582 15.6236 471.04C15.089 471.575 14.4015 471.842 13.5613 471.842H3.24975ZM25.0186 441.595H54.8076V390.037H31.3201V404.473C31.3201 413.944 30.7854 421.697 29.7161 427.731C28.6467 433.689 27.0809 438.31 25.0186 441.595Z" fill="#62500F"/>
<path d="M98.015 455.916C97.2512 455.916 96.6019 455.649 96.0672 455.114C95.5326 454.58 95.2652 453.93 95.2652 453.167V378.465C95.2652 377.701 95.5326 377.052 96.0672 376.517C96.6019 375.983 97.2512 375.715 98.015 375.715H108.785C109.625 375.715 110.274 375.983 110.733 376.517C111.267 377.052 111.535 377.701 111.535 378.465V453.167C111.535 453.93 111.267 454.58 110.733 455.114C110.274 455.649 109.625 455.916 108.785 455.916H98.015Z" fill="#62500F"/>
<path d="M135.804 455.916C134.964 455.916 134.277 455.649 133.742 455.114C133.207 454.58 132.94 453.93 132.94 453.167V378.58C132.94 377.739 133.207 377.052 133.742 376.517C134.277 375.983 134.964 375.715 135.804 375.715H144.856C145.925 375.715 146.727 376.021 147.262 376.632C147.796 377.167 148.14 377.587 148.293 377.892L170.405 419.138L192.747 377.892C192.9 377.587 193.244 377.167 193.778 376.632C194.313 376.021 195.115 375.715 196.184 375.715H205.121C205.961 375.715 206.649 375.983 207.183 376.517C207.718 377.052 207.985 377.739 207.985 378.58V453.167C207.985 453.93 207.718 454.58 207.183 455.114C206.649 455.649 205.961 455.916 205.121 455.916H195.497C194.657 455.916 193.969 455.649 193.435 455.114C192.976 454.58 192.747 453.93 192.747 453.167V403.556L176.707 434.147C176.325 434.835 175.828 435.446 175.217 435.981C174.606 436.439 173.804 436.668 172.811 436.668H168.114C167.045 436.668 166.204 436.439 165.593 435.981C165.059 435.446 164.6 434.835 164.218 434.147L148.178 403.556V453.167C148.178 453.93 147.911 454.58 147.376 455.114C146.842 455.649 146.192 455.916 145.428 455.916H135.804Z" fill="#62500F"/>
<path d="M289.683 457.062C282.885 457.062 277.042 455.954 272.153 453.739C267.265 451.448 263.446 447.973 260.696 443.313C257.946 438.578 256.457 432.696 256.228 425.669C256.151 422.385 256.113 419.138 256.113 415.93C256.113 412.722 256.151 409.438 256.228 406.077C256.457 399.126 257.984 393.321 260.811 388.662C263.637 384.003 267.494 380.489 272.382 378.121C277.347 375.753 283.114 374.57 289.683 374.57C296.252 374.57 302.019 375.753 306.983 378.121C311.948 380.489 315.844 384.003 318.67 388.662C321.496 393.321 323.024 399.126 323.253 406.077C323.406 409.438 323.482 412.722 323.482 415.93C323.482 419.138 323.406 422.385 323.253 425.669C323.024 432.696 321.534 438.578 318.784 443.313C316.035 447.973 312.177 451.448 307.213 453.739C302.324 455.954 296.481 457.062 289.683 457.062ZM289.683 443.886C294.648 443.886 298.696 442.435 301.828 439.532C304.959 436.553 306.64 431.741 306.869 425.096C307.022 421.735 307.098 418.642 307.098 415.816C307.098 412.913 307.022 409.82 306.869 406.535C306.716 402.105 305.876 398.515 304.348 395.766C302.897 392.939 300.911 390.915 298.39 389.693C295.87 388.395 292.967 387.745 289.683 387.745C286.475 387.745 283.611 388.395 281.09 389.693C278.569 390.915 276.545 392.939 275.018 395.766C273.566 398.515 272.764 402.105 272.612 406.535C272.535 409.82 272.497 412.913 272.497 415.816C272.497 418.642 272.535 421.735 272.612 425.096C272.841 431.741 274.521 436.553 277.653 439.532C280.784 442.435 284.794 443.886 289.683 443.886Z" fill="#62500F"/>
<path d="M344.714 455.916C343.95 455.916 343.301 455.649 342.766 455.114C342.231 454.58 341.964 453.93 341.964 453.167V378.58C341.964 377.739 342.231 377.052 342.766 376.517C343.301 375.983 343.95 375.715 344.714 375.715H375.419C381.377 375.715 386.571 376.67 391.001 378.58C395.431 380.413 398.868 383.239 401.313 387.058C403.757 390.801 404.979 395.498 404.979 401.15C404.979 406.879 403.757 411.615 401.313 415.357C398.868 419.024 395.431 421.774 391.001 423.607C386.571 425.44 381.377 426.356 375.419 426.356H358.348V453.167C358.348 453.93 358.081 454.58 357.546 455.114C357.088 455.649 356.438 455.916 355.598 455.916H344.714ZM358.119 413.639H374.846C379.277 413.639 382.676 412.608 385.043 410.545C387.411 408.407 388.595 405.275 388.595 401.15C388.595 397.331 387.488 394.276 385.273 391.985C383.057 389.617 379.582 388.433 374.846 388.433H358.119V413.639Z" fill="#62500F"/>
<path d="M441.319 455.916C440.555 455.916 439.906 455.649 439.372 455.114C438.837 454.58 438.57 453.93 438.57 453.167V389.808H417.374C416.61 389.808 415.96 389.54 415.426 389.006C414.891 388.471 414.624 387.822 414.624 387.058V378.58C414.624 377.739 414.891 377.052 415.426 376.517C415.96 375.983 416.61 375.715 417.374 375.715H475.806C476.646 375.715 477.333 375.983 477.868 376.517C478.403 377.052 478.67 377.739 478.67 378.58V387.058C478.67 387.822 478.403 388.471 477.868 389.006C477.333 389.54 476.646 389.808 475.806 389.808H454.724V453.167C454.724 453.93 454.457 454.58 453.922 455.114C453.388 455.649 452.7 455.916 451.86 455.916H441.319Z" fill="#62500F"/>
<path d="M524.553 457.062C517.755 457.062 511.912 455.954 507.023 453.739C502.135 451.448 498.316 447.973 495.566 443.313C492.816 438.578 491.327 432.696 491.098 425.669C491.021 422.385 490.983 419.138 490.983 415.93C490.983 412.722 491.021 409.438 491.098 406.077C491.327 399.126 492.854 393.321 495.681 388.662C498.507 384.003 502.364 380.489 507.252 378.121C512.217 375.753 517.984 374.57 524.553 374.57C531.122 374.57 536.889 375.753 541.853 378.121C546.818 380.489 550.714 384.003 553.54 388.662C556.366 393.321 557.894 399.126 558.123 406.077C558.276 409.438 558.352 412.722 558.352 415.93C558.352 419.138 558.276 422.385 558.123 425.669C557.894 432.696 556.404 438.578 553.654 443.313C550.905 447.973 547.047 451.448 542.083 453.739C537.194 455.954 531.351 457.062 524.553 457.062ZM524.553 443.886C529.518 443.886 533.566 442.435 536.698 439.532C539.829 436.553 541.51 431.741 541.739 425.096C541.892 421.735 541.968 418.642 541.968 415.816C541.968 412.913 541.892 409.82 541.739 406.535C541.586 402.105 540.746 398.515 539.218 395.766C537.767 392.939 535.781 390.915 533.26 389.693C530.74 388.395 527.837 387.745 524.553 387.745C521.345 387.745 518.481 388.395 515.96 389.693C513.439 390.915 511.415 392.939 509.888 395.766C508.436 398.515 507.634 402.105 507.482 406.535C507.405 409.82 507.367 412.913 507.367 415.816C507.367 418.642 507.405 421.735 507.482 425.096C507.711 431.741 509.391 436.553 512.523 439.532C515.654 442.435 519.664 443.886 524.553 443.886Z" fill="#62500F"/>
<path d="M579.584 455.916C578.82 455.916 578.171 455.687 577.636 455.229C577.101 454.694 576.834 454.007 576.834 453.167V378.58C576.834 377.739 577.101 377.052 577.636 376.517C578.171 375.983 578.82 375.715 579.584 375.715H639.62C640.46 375.715 641.148 375.983 641.682 376.517C642.217 377.052 642.484 377.739 642.484 378.58V453.167C642.484 453.93 642.217 454.58 641.682 455.114C641.148 455.649 640.46 455.916 639.62 455.916H629.308C628.545 455.916 627.895 455.649 627.361 455.114C626.826 454.58 626.559 453.93 626.559 453.167V390.037H592.76V453.167C592.76 453.93 592.492 454.58 591.958 455.114C591.499 455.649 590.85 455.916 590.01 455.916H579.584Z" fill="#62500F"/>
<path d="M666.489 455.916C665.725 455.916 665.076 455.649 664.541 455.114C664.007 454.58 663.739 453.93 663.739 453.167V378.58C663.739 377.739 664.007 377.052 664.541 376.517C665.076 375.983 665.725 375.715 666.489 375.715H716.901C717.741 375.715 718.429 375.983 718.964 376.517C719.498 377.052 719.765 377.739 719.765 378.58V386.141C719.765 386.905 719.498 387.554 718.964 388.089C718.429 388.624 717.741 388.891 716.901 388.891H679.207V409.171H714.381C715.221 409.171 715.908 409.438 716.443 409.973C716.978 410.431 717.245 411.08 717.245 411.92V419.024C717.245 419.864 716.978 420.551 716.443 421.086C715.908 421.544 715.221 421.774 714.381 421.774H679.207V442.74H717.818C718.658 442.74 719.345 443.008 719.88 443.542C720.415 444.077 720.682 444.765 720.682 445.605V453.167C720.682 453.93 720.415 454.58 719.88 455.114C719.345 455.649 718.658 455.916 717.818 455.916H666.489Z" fill="#62500F"/>
<path d="M735.241 471.842C734.477 471.842 733.828 471.575 733.293 471.04C732.758 470.582 732.491 469.932 732.491 469.092V444.344C732.491 443.581 732.758 442.931 733.293 442.397C733.828 441.862 734.477 441.595 735.241 441.595H737.532C739.366 441.595 740.931 440.754 742.23 439.074C743.528 437.317 744.598 434.797 745.438 431.512C746.278 428.151 746.889 424.027 747.271 419.138C747.653 414.25 747.844 408.674 747.844 402.411V378.465C747.844 377.701 748.111 377.052 748.646 376.517C749.181 375.983 749.868 375.715 750.708 375.715H799.86C800.7 375.715 801.388 375.983 801.922 376.517C802.457 377.052 802.724 377.739 802.724 378.58V441.595H808.224C809.064 441.595 809.751 441.862 810.286 442.397C810.821 442.931 811.088 443.581 811.088 444.344V469.092C811.088 469.932 810.821 470.582 810.286 471.04C809.751 471.575 809.064 471.842 808.224 471.842H797.912C797.072 471.842 796.385 471.575 795.85 471.04C795.392 470.582 795.163 469.932 795.163 469.092V455.916H748.417V469.092C748.417 469.932 748.149 470.582 747.615 471.04C747.08 471.575 746.393 471.842 745.552 471.842H735.241ZM757.01 441.595H786.799V390.037H763.311V404.473C763.311 413.944 762.777 421.697 761.707 427.731C760.638 433.689 759.072 438.31 757.01 441.595Z" fill="#62500F"/>
<path d="M830.006 455.916C829.242 455.916 828.593 455.649 828.058 455.114C827.524 454.58 827.256 453.93 827.256 453.167V378.465C827.256 377.701 827.524 377.052 828.058 376.517C828.593 375.983 829.242 375.715 830.006 375.715H840.776C841.616 375.715 842.265 375.983 842.724 376.517C843.258 377.052 843.526 377.701 843.526 378.465V453.167C843.526 453.93 843.258 454.58 842.724 455.114C842.265 455.649 841.616 455.916 840.776 455.916H830.006Z" fill="#62500F"/>
<path d="M867.681 455.916C866.917 455.916 866.268 455.649 865.733 455.114C865.198 454.58 864.931 453.93 864.931 453.167V378.465C864.931 377.701 865.198 377.052 865.733 376.517C866.268 375.983 866.917 375.715 867.681 375.715H878.451C879.291 375.715 879.94 375.983 880.398 376.517C880.933 377.052 881.201 377.701 881.201 378.465V453.167C881.201 453.93 880.933 454.58 880.398 455.114C879.94 455.649 879.291 455.916 878.451 455.916H867.681ZM879.596 364.945C878.833 364.945 878.222 364.716 877.763 364.258C877.305 363.8 877.076 363.189 877.076 362.425V354.061C877.076 353.297 877.305 352.686 877.763 352.228C878.222 351.693 878.833 351.426 879.596 351.426H887.96C888.724 351.426 889.335 351.693 889.794 352.228C890.328 352.686 890.595 353.297 890.595 354.061V362.425C890.595 363.189 890.328 363.8 889.794 364.258C889.335 364.716 888.724 364.945 887.96 364.945H879.596ZM858.057 364.945C857.293 364.945 856.682 364.716 856.224 364.258C855.765 363.8 855.536 363.189 855.536 362.425V354.061C855.536 353.297 855.765 352.686 856.224 352.228C856.682 351.693 857.293 351.426 858.057 351.426H866.421C867.184 351.426 867.795 351.693 868.254 352.228C868.788 352.686 869.056 353.297 869.056 354.061V362.425C869.056 363.189 868.788 363.8 868.254 364.258C867.795 364.716 867.184 364.945 866.421 364.945H858.057Z" fill="#62500F"/>
<path d="M167.815 543.757C167.357 543.757 166.968 543.62 166.647 543.345C166.372 543.07 166.234 542.703 166.234 542.245V497.218C166.234 496.714 166.372 496.324 166.647 496.049C166.968 495.774 167.357 495.637 167.815 495.637H169.534C169.992 495.637 170.336 495.751 170.565 495.98C170.794 496.209 170.932 496.393 170.978 496.53L186.583 526.915L202.256 496.53C202.348 496.393 202.485 496.209 202.669 495.98C202.898 495.751 203.241 495.637 203.7 495.637H205.35C205.854 495.637 206.243 495.774 206.518 496.049C206.793 496.324 206.931 496.714 206.931 497.218V542.245C206.931 542.703 206.793 543.07 206.518 543.345C206.243 543.62 205.854 543.757 205.35 543.757H204.112C203.654 543.757 203.287 543.62 203.012 543.345C202.737 543.07 202.6 542.703 202.6 542.245V504.986L189.47 530.833C189.286 531.292 189.011 531.635 188.645 531.865C188.324 532.094 187.889 532.208 187.339 532.208H185.826C185.276 532.208 184.841 532.094 184.52 531.865C184.199 531.635 183.924 531.292 183.695 530.833L170.565 504.986V542.245C170.565 542.703 170.428 543.07 170.153 543.345C169.878 543.62 169.511 543.757 169.053 543.757H167.815Z" fill="#62500F"/>
<path d="M232.247 544.445C227.802 544.445 224.273 543.001 221.661 540.114C219.048 537.181 217.559 533.354 217.192 528.634C217.146 527.946 217.124 527.03 217.124 525.884C217.124 524.738 217.146 523.821 217.192 523.134C217.421 520.018 218.155 517.268 219.392 514.885C220.629 512.502 222.325 510.646 224.479 509.317C226.679 507.988 229.268 507.323 232.247 507.323C235.455 507.323 238.182 508.033 240.428 509.454C242.673 510.875 244.392 512.914 245.583 515.572C246.821 518.23 247.44 521.393 247.44 525.059V526.09C247.44 526.548 247.279 526.915 246.958 527.19C246.683 527.465 246.317 527.602 245.858 527.602H221.386C221.386 527.602 221.386 527.694 221.386 527.877C221.386 528.061 221.386 528.198 221.386 528.29C221.477 530.352 221.959 532.323 222.829 534.202C223.7 536.035 224.937 537.547 226.541 538.739C228.145 539.885 230.047 540.457 232.247 540.457C234.218 540.457 235.845 540.16 237.128 539.564C238.457 538.968 239.511 538.326 240.29 537.639C241.069 536.906 241.573 536.356 241.803 535.989C242.215 535.393 242.536 535.05 242.765 534.958C242.994 534.82 243.361 534.752 243.865 534.752H244.965C245.377 534.752 245.721 534.889 245.996 535.164C246.317 535.393 246.454 535.714 246.408 536.127C246.363 536.768 245.996 537.57 245.308 538.533C244.667 539.449 243.727 540.366 242.49 541.282C241.298 542.199 239.832 542.955 238.09 543.551C236.349 544.147 234.401 544.445 232.247 544.445ZM221.386 523.753H243.246V523.478C243.246 521.186 242.811 519.124 241.94 517.291C241.069 515.458 239.809 514.014 238.159 512.96C236.509 511.86 234.539 511.31 232.247 511.31C229.956 511.31 227.985 511.86 226.335 512.96C224.731 514.014 223.494 515.458 222.623 517.291C221.798 519.124 221.386 521.186 221.386 523.478V523.753Z" fill="#62500F"/>
<path d="M253.826 551.319C253.367 551.319 253.001 551.182 252.726 550.907C252.451 550.632 252.313 550.265 252.313 549.807V541.282C252.313 540.824 252.451 540.457 252.726 540.183C253.001 539.908 253.367 539.77 253.826 539.77H254.032C255.315 539.724 256.438 538.991 257.4 537.57C258.363 536.15 259.096 533.858 259.6 530.696C260.15 527.488 260.425 523.249 260.425 517.978V509.523C260.425 509.065 260.563 508.698 260.838 508.423C261.113 508.148 261.479 508.01 261.937 508.01H281.736C282.194 508.01 282.561 508.148 282.836 508.423C283.111 508.698 283.248 509.065 283.248 509.523V539.633H286.617C287.075 539.633 287.441 539.77 287.716 540.045C287.991 540.32 288.129 540.687 288.129 541.145V549.807C288.129 550.265 287.991 550.632 287.716 550.907C287.441 551.182 287.075 551.319 286.617 551.319H285.448C284.99 551.319 284.623 551.182 284.348 550.907C284.073 550.632 283.935 550.265 283.935 549.807V543.757H256.507V549.807C256.507 550.265 256.369 550.632 256.094 550.907C255.819 551.182 255.453 551.319 254.994 551.319H253.826ZM260.081 539.77L279.055 539.633V511.998H264.618V518.459C264.618 523.959 264.229 528.427 263.45 531.865C262.671 535.302 261.548 537.937 260.081 539.77Z" fill="#62500F"/>
<path d="M297.49 543.757C297.123 543.757 296.802 543.62 296.527 543.345C296.252 543.07 296.115 542.749 296.115 542.382V509.523C296.115 509.065 296.252 508.698 296.527 508.423C296.802 508.148 297.169 508.01 297.627 508.01H298.796C299.254 508.01 299.621 508.148 299.896 508.423C300.171 508.698 300.308 509.065 300.308 509.523V540.389L299.071 538.395L321.481 509.042C321.711 508.767 321.94 508.537 322.169 508.354C322.444 508.125 322.81 508.01 323.269 508.01H324.575C324.942 508.01 325.262 508.148 325.537 508.423C325.812 508.652 325.95 508.95 325.95 509.317V542.245C325.95 542.703 325.812 543.07 325.537 543.345C325.262 543.62 324.896 543.757 324.437 543.757H323.269C322.81 543.757 322.444 543.62 322.169 543.345C321.894 543.07 321.756 542.703 321.756 542.245V513.441L323.2 513.097L300.583 542.726C300.4 542.955 300.171 543.184 299.896 543.413C299.621 543.643 299.254 543.757 298.796 543.757H297.49Z" fill="#62500F"/>
<path d="M359.476 543.757C359.018 543.757 358.651 543.62 358.376 543.345C358.101 543.07 357.964 542.703 357.964 542.245V528.221C356.681 529.504 355.123 530.444 353.289 531.04C351.456 531.59 349.348 531.865 346.965 531.865C343.069 531.865 340.022 531.063 337.822 529.458C335.668 527.854 334.591 525.242 334.591 521.622V509.523C334.591 509.065 334.729 508.698 335.004 508.423C335.278 508.148 335.645 508.01 336.103 508.01H337.272C337.73 508.01 338.097 508.148 338.372 508.423C338.647 508.698 338.784 509.065 338.784 509.523V521.278C338.784 523.524 339.472 525.196 340.847 526.296C342.267 527.35 344.398 527.877 347.24 527.877C350.494 527.877 353.083 527.488 355.008 526.709C356.979 525.93 357.964 524.486 357.964 522.378V509.523C357.964 509.065 358.101 508.698 358.376 508.423C358.651 508.148 359.018 508.01 359.476 508.01H360.645C361.103 508.01 361.47 508.148 361.745 508.423C362.02 508.698 362.157 509.065 362.157 509.523V542.245C362.157 542.703 362.02 543.07 361.745 543.345C361.47 543.62 361.103 543.757 360.645 543.757H359.476Z" fill="#62500F"/>
<path d="M374.83 543.757C374.371 543.757 374.005 543.62 373.73 543.345C373.455 543.07 373.317 542.703 373.317 542.245V509.523C373.317 509.065 373.455 508.698 373.73 508.423C374.005 508.148 374.371 508.01 374.83 508.01H375.998C376.457 508.01 376.823 508.148 377.098 508.423C377.373 508.698 377.511 509.065 377.511 509.523V523.478H398.959V509.523C398.959 509.065 399.096 508.698 399.371 508.423C399.646 508.148 400.013 508.01 400.471 508.01H401.64C402.098 508.01 402.465 508.148 402.74 508.423C403.015 508.698 403.152 509.065 403.152 509.523V542.245C403.152 542.703 403.015 543.07 402.74 543.345C402.465 543.62 402.098 543.757 401.64 543.757H400.471C400.013 543.757 399.646 543.62 399.371 543.345C399.096 543.07 398.959 542.703 398.959 542.245V527.465H377.511V542.245C377.511 542.703 377.373 543.07 377.098 543.345C376.823 543.62 376.457 543.757 375.998 543.757H374.83Z" fill="#62500F"/>
<path d="M415.643 543.757C415.277 543.757 414.956 543.62 414.681 543.345C414.406 543.07 414.268 542.749 414.268 542.382V509.523C414.268 509.065 414.406 508.698 414.681 508.423C414.956 508.148 415.322 508.01 415.781 508.01H416.949C417.408 508.01 417.774 508.148 418.049 508.423C418.324 508.698 418.462 509.065 418.462 509.523V540.389L417.224 538.395L439.635 509.042C439.864 508.767 440.093 508.537 440.322 508.354C440.597 508.125 440.964 508.01 441.422 508.01H442.728C443.095 508.01 443.416 508.148 443.691 508.423C443.966 508.652 444.103 508.95 444.103 509.317V542.245C444.103 542.703 443.966 543.07 443.691 543.345C443.416 543.62 443.049 543.757 442.591 543.757H441.422C440.964 543.757 440.597 543.62 440.322 543.345C440.047 543.07 439.91 542.703 439.91 542.245V513.441L441.353 513.097L418.737 542.726C418.553 542.955 418.324 543.184 418.049 543.413C417.774 543.643 417.408 543.757 416.949 543.757H415.643Z" fill="#62500F"/>
<path d="M456.594 543.757C456.227 543.757 455.907 543.62 455.632 543.345C455.357 543.07 455.219 542.749 455.219 542.382V509.523C455.219 509.065 455.357 508.698 455.632 508.423C455.907 508.148 456.273 508.01 456.732 508.01H457.9C458.358 508.01 458.725 508.148 459 508.423C459.275 508.698 459.413 509.065 459.413 509.523V540.389L458.175 538.395L480.586 509.042C480.815 508.767 481.044 508.537 481.273 508.354C481.548 508.125 481.915 508.01 482.373 508.01H483.679C484.046 508.01 484.366 508.148 484.641 508.423C484.916 508.652 485.054 508.95 485.054 509.317V542.245C485.054 542.703 484.916 543.07 484.641 543.345C484.366 543.62 484 543.757 483.542 543.757H482.373C481.915 543.757 481.548 543.62 481.273 543.345C480.998 543.07 480.861 542.703 480.861 542.245V513.441L482.304 513.097L459.687 542.726C459.504 542.955 459.275 543.184 459 543.413C458.725 543.643 458.358 543.757 457.9 543.757H456.594ZM470.137 503.198C467.57 503.198 465.577 502.809 464.156 502.03C462.781 501.251 461.819 500.242 461.269 499.005C460.764 497.768 460.512 496.507 460.512 495.224C460.512 494.857 460.627 494.56 460.856 494.33C461.085 494.055 461.406 493.918 461.819 493.918H462.85C463.262 493.918 463.583 494.055 463.812 494.33C464.041 494.56 464.156 494.857 464.156 495.224C464.156 496.324 464.545 497.355 465.324 498.318C466.149 499.28 467.753 499.761 470.137 499.761C472.565 499.761 474.169 499.28 474.949 498.318C475.728 497.355 476.117 496.324 476.117 495.224C476.117 494.857 476.232 494.56 476.461 494.33C476.69 494.055 477.011 493.918 477.423 493.918H478.455C478.867 493.918 479.188 494.055 479.417 494.33C479.646 494.56 479.761 494.857 479.761 495.224C479.761 496.507 479.486 497.768 478.936 499.005C478.432 500.242 477.469 501.251 476.048 502.03C474.674 502.809 472.703 503.198 470.137 503.198Z" fill="#62500F"/>
<path d="M544.553 552.694C544.094 552.694 543.728 552.556 543.453 552.281C543.178 552.006 543.04 551.64 543.04 551.182V543.757H515.405C514.947 543.757 514.58 543.62 514.305 543.345C514.03 543.07 513.893 542.703 513.893 542.245V509.523C513.893 509.065 514.03 508.698 514.305 508.423C514.58 508.148 514.947 508.01 515.405 508.01H516.574C517.032 508.01 517.399 508.148 517.674 508.423C517.949 508.698 518.086 509.065 518.086 509.523V539.77H538.16V509.523C538.16 509.065 538.297 508.698 538.572 508.423C538.847 508.148 539.214 508.01 539.672 508.01H540.841C541.299 508.01 541.665 508.148 541.94 508.423C542.215 508.698 542.353 509.065 542.353 509.523L542.284 539.77H545.721C546.18 539.77 546.546 539.908 546.821 540.183C547.096 540.457 547.234 540.824 547.234 541.282V551.182C547.234 551.64 547.096 552.006 546.821 552.281C546.546 552.556 546.18 552.694 545.721 552.694H544.553Z" fill="#62500F"/>
<path d="M568.447 544.445C564.002 544.445 560.473 543.001 557.861 540.114C555.248 537.181 553.759 533.354 553.392 528.634C553.346 527.946 553.323 527.03 553.323 525.884C553.323 524.738 553.346 523.821 553.392 523.134C553.621 520.018 554.355 517.268 555.592 514.885C556.829 512.502 558.525 510.646 560.679 509.317C562.879 507.988 565.468 507.323 568.447 507.323C571.655 507.323 574.382 508.033 576.628 509.454C578.873 510.875 580.592 512.914 581.783 515.572C583.021 518.23 583.639 521.393 583.639 525.059V526.09C583.639 526.548 583.479 526.915 583.158 527.19C582.883 527.465 582.517 527.602 582.058 527.602H557.586C557.586 527.602 557.586 527.694 557.586 527.877C557.586 528.061 557.586 528.198 557.586 528.29C557.677 530.352 558.158 532.323 559.029 534.202C559.9 536.035 561.137 537.547 562.741 538.739C564.345 539.885 566.247 540.457 568.447 540.457C570.418 540.457 572.045 540.16 573.328 539.564C574.657 538.968 575.711 538.326 576.49 537.639C577.269 536.906 577.773 536.356 578.002 535.989C578.415 535.393 578.736 535.05 578.965 534.958C579.194 534.82 579.561 534.752 580.065 534.752H581.165C581.577 534.752 581.921 534.889 582.196 535.164C582.517 535.393 582.654 535.714 582.608 536.127C582.562 536.768 582.196 537.57 581.508 538.533C580.867 539.449 579.927 540.366 578.69 541.282C577.498 542.199 576.032 542.955 574.29 543.551C572.549 544.147 570.601 544.445 568.447 544.445ZM557.586 523.753H579.446V523.478C579.446 521.186 579.011 519.124 578.14 517.291C577.269 515.458 576.009 514.014 574.359 512.96C572.709 511.86 570.739 511.31 568.447 511.31C566.156 511.31 564.185 511.86 562.535 512.96C560.931 514.014 559.694 515.458 558.823 517.291C557.998 519.124 557.586 521.186 557.586 523.478V523.753Z" fill="#62500F"/>
<path d="M594.219 543.757C593.761 543.757 593.394 543.62 593.119 543.345C592.844 543.07 592.707 542.703 592.707 542.245V509.523C592.707 509.065 592.844 508.698 593.119 508.423C593.394 508.148 593.761 508.01 594.219 508.01H595.388C595.846 508.01 596.213 508.148 596.488 508.423C596.763 508.698 596.9 509.065 596.9 509.523V523.478H618.348V509.523C618.348 509.065 618.486 508.698 618.761 508.423C619.035 508.148 619.402 508.01 619.86 508.01H621.029C621.487 508.01 621.854 508.148 622.129 508.423C622.404 508.698 622.541 509.065 622.541 509.523V542.245C622.541 542.703 622.404 543.07 622.129 543.345C621.854 543.62 621.487 543.757 621.029 543.757H619.86C619.402 543.757 619.035 543.62 618.761 543.345C618.486 543.07 618.348 542.703 618.348 542.245V527.465H596.9V542.245C596.9 542.703 596.763 543.07 596.488 543.345C596.213 543.62 595.846 543.757 595.388 543.757H594.219Z" fill="#62500F"/>
<path d="M644.588 543.757C644.129 543.757 643.763 543.62 643.488 543.345C643.213 543.07 643.075 542.703 643.075 542.245V511.998H630.495C630.037 511.998 629.67 511.86 629.395 511.585C629.12 511.31 628.983 510.944 628.983 510.485V509.523C628.983 509.065 629.12 508.698 629.395 508.423C629.67 508.148 630.037 508.01 630.495 508.01H659.849C660.307 508.01 660.674 508.148 660.949 508.423C661.224 508.698 661.361 509.065 661.361 509.523V510.485C661.361 510.944 661.224 511.31 660.949 511.585C660.674 511.86 660.307 511.998 659.849 511.998H647.269V542.245C647.269 542.703 647.131 543.07 646.856 543.345C646.581 543.62 646.215 543.757 645.756 543.757H644.588Z" fill="#62500F"/>
<path d="M669.409 556.818C668.951 556.818 668.584 556.681 668.309 556.406C668.034 556.131 667.897 555.764 667.897 555.306V509.523C667.897 509.065 668.034 508.698 668.309 508.423C668.584 508.148 668.951 508.01 669.409 508.01H670.578C671.036 508.01 671.403 508.148 671.678 508.423C671.953 508.698 672.09 509.065 672.09 509.523V512.754C673.236 511.196 674.725 509.912 676.558 508.904C678.437 507.85 680.798 507.323 683.639 507.323C686.343 507.323 688.612 507.804 690.445 508.767C692.278 509.683 693.767 510.921 694.913 512.479C696.059 514.037 696.907 515.778 697.457 517.703C698.007 519.628 698.304 521.599 698.35 523.615C698.396 524.303 698.419 525.059 698.419 525.884C698.419 526.709 698.396 527.465 698.35 528.152C698.304 530.169 698.007 532.139 697.457 534.064C696.907 535.989 696.059 537.731 694.913 539.289C693.767 540.847 692.278 542.107 690.445 543.07C688.612 543.986 686.343 544.445 683.639 544.445C680.798 544.445 678.437 543.918 676.558 542.864C674.725 541.809 673.236 540.526 672.09 539.014V555.306C672.09 555.764 671.953 556.131 671.678 556.406C671.403 556.681 671.036 556.818 670.578 556.818H669.409ZM683.227 540.457C685.931 540.457 688.062 539.862 689.62 538.67C691.178 537.479 692.301 535.92 692.988 533.996C693.676 532.071 694.065 530.008 694.157 527.809C694.203 526.525 694.203 525.242 694.157 523.959C694.065 521.759 693.676 519.697 692.988 517.772C692.301 515.847 691.178 514.289 689.62 513.097C688.062 511.906 685.931 511.31 683.227 511.31C680.614 511.31 678.506 511.929 676.902 513.166C675.298 514.404 674.107 515.962 673.327 517.841C672.594 519.674 672.182 521.53 672.09 523.409C672.044 524.096 672.021 524.99 672.021 526.09C672.021 527.19 672.044 528.084 672.09 528.771C672.136 530.604 672.548 532.414 673.327 534.202C674.152 535.989 675.367 537.479 676.971 538.67C678.621 539.862 680.706 540.457 683.227 540.457Z" fill="#62500F"/>
<path d="M248.948 21.0977C245.978 24.0677 243.432 25.1294 241.309 24.2803C239.187 23.4312 236.43 23.8564 233.035 25.5534C229.64 27.2503 226.457 27.039 223.487 24.9168C220.517 22.7947 217.758 21.9469 215.212 22.3708C212.666 22.7947 209.696 24.4929 206.301 27.4629C202.906 30.4329 200.148 34.0407 198.026 38.2837C195.904 42.5267 194.844 45.7093 194.844 47.8314C194.844 48.8919 194.844 49.9536 194.844 51.014C195.48 50.5901 196.117 50.1649 196.753 49.741C198.026 48.8919 199.936 45.7093 202.482 40.1932C205.028 34.6772 207.361 31.0694 209.484 29.3725C211.606 27.6755 213.727 26.8264 215.849 26.8264C217.971 26.8264 219.88 27.8868 221.577 30.009C223.274 32.1311 224.76 33.1915 226.033 33.1915C227.306 33.1915 228.792 32.3424 230.489 30.6455C232.186 28.9485 235.157 28.0994 239.4 28.0994C243.643 28.0994 247.038 26.8264 249.584 24.2803C252.13 21.7343 254.889 20.8851 257.859 21.7343C260.829 22.5834 262.527 25.766 262.951 31.282C263.375 36.798 262.102 43.1632 259.132 50.3775C256.162 57.5918 256.586 70.1095 260.405 87.9319C264.224 105.754 268.256 118.485 272.499 126.123C276.742 133.761 284.38 143.945 295.413 156.676C306.447 169.406 315.145 182.56 321.51 196.14C324.693 202.929 327.876 209.719 331.058 216.508C329.361 210.567 327.663 204.627 325.966 198.686C322.571 186.805 319.177 178.317 315.782 173.225C312.387 168.133 305.598 160.071 295.413 149.038C285.229 138.004 278.015 128.456 273.772 120.394C269.529 112.332 266.134 99.8132 263.587 82.8398C261.041 65.8665 261.041 55.0457 263.587 50.3775C266.134 45.7093 267.619 40.4058 268.043 34.4646C268.467 28.5233 268.043 24.2803 266.77 21.7343C265.497 19.1882 262.951 17.7026 259.132 17.2786C255.313 16.8547 251.918 18.1278 248.948 21.0977Z" fill="#EA8529" stroke="#EA8529"/>
<path d="M443.082 35.7367C443.082 39.1318 444.355 43.7988 446.901 49.74C449.447 55.6813 454.327 63.5308 461.541 73.2911C468.755 83.0514 475.544 91.1136 481.91 97.4787C488.275 103.844 494.003 111.695 499.095 121.03C501.642 125.698 504.188 130.365 506.734 135.033C506.946 133.548 507.158 132.063 507.37 130.578C507.794 127.608 507.158 123.363 505.461 117.847C503.764 112.331 498.246 104.268 488.911 93.6596C484.243 88.3549 479.576 83.0514 474.908 77.7467C476.605 77.3228 478.303 76.8976 480 76.4737C483.395 75.6246 485.516 74.5641 486.365 73.2911C486.789 72.6546 487.214 72.0181 487.638 71.3816C484.879 71.5942 482.122 71.8055 479.363 72.0181C473.847 72.442 468.543 69.6846 463.451 63.7434C458.358 57.8021 453.69 50.8004 449.447 42.7383C447.325 38.7066 445.204 34.6762 443.082 30.6445C443.082 32.3415 443.082 34.0397 443.082 35.7367Z" fill="#EA8529" stroke="#EA8529"/>
<path d="M184.795 65.0615C182.129 65.3416 179.554 65.9998 177.066 67.036C174.421 68.1385 171.876 69.6699 169.433 71.6304C164.694 75.4317 161.757 78.4729 160.621 80.7517C160.054 81.891 159.486 83.0304 158.918 84.1698C159.297 84.3594 159.677 84.5478 160.057 84.7375C160.816 85.1156 164.229 82.5492 170.294 77.037C176.36 71.526 182.143 68.4809 187.645 67.9042C190.398 67.6165 193.149 67.3275 195.9 67.0385C195.425 66.565 194.95 66.0914 194.474 65.6178C193.524 64.6707 190.298 64.4849 184.795 65.0615Z" fill="#EA8529" stroke="#EA8529"/>
<path d="M210.048 66.1945C209.089 66.649 206.609 66.4249 205.651 66.8794C207.805 68.2543 213.458 71.4445 215.611 72.8207C219.918 75.5704 222.968 79.3373 224.763 84.1214C226.558 88.9054 227.049 92.5234 226.237 94.9727C225.831 96.1986 225.131 97.627 226.539 97.8714C227.947 98.1158 228.001 98.0521 228.852 98.2596C230.551 98.6759 232.687 98.4799 235.95 101.874C236.781 102.738 236.705 106.665 231.493 110.719C224.334 116.285 216.841 113.923 207.983 119.807C199.124 125.69 201.814 133.567 205.649 131.752C209.485 129.937 206.6 128.056 211.05 124.166C215.5 120.275 233.707 114.468 236.997 110.557C241.726 104.933 240.24 102.647 240.281 100.748C240.322 98.8516 237.333 96.1426 231.486 94.7168C228.57 94.0065 227.8 92.9193 228.612 90.4687C229.425 88.0181 229.386 85.36 228.499 82.4944C227.612 79.6276 225.124 76.1573 221.037 72.0836C216.949 68.0086 211.966 65.2868 210.048 66.1945Z" fill="#EA8529" stroke="#EA8529"/>
<path d="M597.121 80.9376C597.121 88.9997 597.545 93.8805 598.394 95.5774C599.243 97.2744 600.304 98.1235 601.577 98.1235C602.213 98.1235 602.85 98.1235 603.486 98.1235C602.85 93.244 602.213 88.3632 601.577 83.4836C600.304 73.7233 599.243 68.8438 598.394 68.8438C597.97 68.8438 597.545 68.8438 597.121 68.8438C597.121 72.8754 597.121 76.9059 597.121 80.9376Z" fill="#EA8529" stroke="#EA8529"/>
<path d="M331.693 90.4877C314.294 99.8229 302.837 107.25 297.321 112.766C291.805 118.282 288.622 123.163 287.773 127.406C287.349 129.528 286.924 131.649 286.5 133.771C286.924 133.771 287.349 133.771 287.773 133.771C288.622 133.771 289.47 132.285 290.319 129.315C291.168 126.345 294.351 122.101 299.867 116.585C305.383 111.069 311.324 106.188 317.689 101.945C324.054 97.702 331.905 93.6703 341.24 89.8512C350.576 86.0321 356.093 83.4861 357.79 82.213C359.487 80.94 360.336 79.667 360.336 78.3939C360.336 77.7574 360.336 77.1209 360.336 76.4844C359.912 76.4844 359.487 76.4844 359.063 76.4844C358.214 76.4844 349.091 81.1526 331.693 90.4877Z" fill="#EA8529" stroke="#EA8529"/>
<path d="M331.693 90.4877C314.294 99.8229 302.837 107.25 297.321 112.766C291.805 118.282 288.622 123.163 287.773 127.406C287.349 129.528 286.924 131.649 286.5 133.771C286.924 133.771 287.349 133.771 287.773 133.771C288.622 133.771 289.47 132.285 290.319 129.315C291.168 126.345 294.351 122.101 299.867 116.585C305.383 111.069 311.324 106.188 317.689 101.945C324.054 97.702 331.905 93.6703 341.24 89.8512C350.576 86.0321 356.093 83.4861 357.79 82.213C359.487 80.94 360.336 79.667 360.336 78.3939C360.336 77.7574 360.336 77.1209 360.336 76.4844C359.912 76.4844 359.487 76.4844 359.063 76.4844C358.214 76.4844 349.091 81.1526 331.693 90.4877Z" fill="#EA8529" stroke="#EA8529"/>
<path d="M134.372 89.2085C132.25 90.9055 130.977 93.4515 130.553 96.8467C130.129 100.242 133.736 111.699 141.374 131.219C149.012 150.738 153.68 167.287 155.377 180.867C157.074 194.446 161.53 206.54 168.744 217.148C175.958 227.756 181.898 239.214 186.566 251.52C191.235 263.827 196.963 275.92 203.752 287.802C210.541 299.683 215.422 307.11 218.392 310.08C221.362 313.05 228.789 318.354 240.67 325.993C246.612 329.812 252.551 333.631 258.493 337.45C258.705 336.813 258.917 336.177 259.129 335.54C259.553 334.267 254.25 330.024 243.216 322.81C232.183 315.596 225.181 310.504 222.211 307.534C219.241 304.564 213.937 296.289 206.298 282.709C198.66 269.13 192.508 256.4 187.839 244.518C183.171 232.637 177.868 222.664 171.927 214.602C165.985 206.54 161.742 194.446 159.196 178.321C156.65 162.195 151.771 145.858 144.556 129.309C137.342 112.76 133.736 102.575 133.736 98.7563C133.736 94.9372 134.585 92.6037 136.282 91.7546C137.131 91.3307 137.979 90.9055 138.828 90.4816C140.101 93.4515 141.374 96.4228 142.647 99.3928C145.193 105.334 146.466 110.214 146.466 114.033C146.466 117.852 146.042 120.185 145.193 121.034C144.769 121.458 144.344 121.883 143.92 122.307C144.344 122.731 144.769 123.156 145.193 123.58C145.617 124.004 146.042 124.43 146.466 124.853C147.102 124.217 147.739 123.58 148.375 122.944C149.648 121.671 150.285 118.912 150.285 114.669C150.285 110.426 148.799 105.334 145.829 99.3928C144.344 96.4228 142.859 93.4515 141.374 90.4816C142.647 91.3307 143.92 92.1785 145.193 93.0276C147.739 94.7246 149.436 95.1498 150.285 94.3007C150.709 93.8767 151.134 93.4515 151.558 93.0276C150.498 92.1785 149.436 91.3307 148.375 90.4816C146.253 88.7846 143.92 87.7229 141.374 87.299C138.828 86.8751 136.494 87.5116 134.372 89.2085Z" fill="#EA8529" stroke="#EA8529"/>
<path d="M158.481 94.3404C157.579 94.4206 156.756 94.6192 156.014 94.9374C153.044 96.2105 151.559 98.5439 151.559 101.939C151.559 105.334 153.681 114.033 157.924 128.036C162.167 142.04 165.349 156.043 167.471 170.046C169.594 184.05 173.413 196.78 178.929 208.237C184.445 219.695 189.75 228.818 194.842 235.607C199.934 242.397 203.329 247.914 205.026 252.157C206.723 256.4 208.209 258.735 209.482 259.159C210.118 259.371 210.755 259.583 211.391 259.795C210.967 258.098 210.542 256.4 210.118 254.703C209.269 251.308 206.299 246.216 201.207 239.427C196.115 232.638 190.386 222.877 184.021 210.147C177.656 197.417 173.413 184.474 171.291 171.319C169.168 158.165 166.835 147.981 164.289 140.767C161.743 133.552 161.106 128.885 162.379 126.763C163.652 124.641 163.652 119.549 162.379 111.487C161.106 103.425 160.47 98.7565 160.47 97.4835C160.47 96.847 160.47 96.2105 160.47 95.5739C160.894 95.5739 161.319 95.5739 161.743 95.5739C162.592 95.5739 166.198 97.9074 172.564 102.576C178.929 107.244 184.021 112.76 187.84 119.125C191.659 125.49 195.054 132.279 198.024 139.494C200.994 146.708 203.966 156.043 206.935 167.5C209.905 178.958 214.998 189.778 222.212 199.963C229.426 210.147 235.155 220.331 239.398 230.515C243.641 240.7 248.733 248.338 254.674 253.43C260.615 258.522 265.919 262.341 270.587 264.887C275.255 267.433 279.286 270.403 282.681 273.798C286.076 277.194 288.833 281.224 290.956 285.892C293.078 290.56 294.987 293.318 296.684 294.167C297.533 294.591 298.381 295.016 299.23 295.44C297.957 292.257 296.684 289.075 295.411 285.892C292.865 279.527 289.47 274.435 285.227 270.616C280.984 266.797 274.406 262.129 265.495 256.613C256.584 251.096 249.795 243.033 245.126 232.425C240.458 221.817 234.306 210.996 226.667 199.963C219.029 188.929 213.937 178.321 211.391 168.137C208.845 157.953 204.602 146.495 198.661 133.765C192.72 121.035 187.627 112.336 183.384 107.668C179.141 103 174.261 99.393 168.745 96.847C164.607 94.9374 161.187 94.1023 158.481 94.3404ZM155.378 96.847C155.802 97.0596 156.227 97.2709 156.651 97.4835C157.5 97.9074 158.348 101.939 159.197 109.577C159.621 113.396 160.046 117.215 160.47 121.035C160.046 121.035 159.621 121.035 159.197 121.035C158.348 121.035 157.287 118.489 156.014 113.396C154.741 108.304 154.317 104.273 154.741 101.303C154.954 99.817 155.165 98.3326 155.378 96.847Z" fill="#EA8529" stroke="#EA8529"/>
<path d="M539.836 128.673C539.836 133.765 541.109 138.221 543.655 142.04C546.201 145.859 547.474 150.527 547.474 156.044C547.474 161.56 549.384 166.44 553.203 170.683C555.112 172.806 557.022 174.926 558.931 177.049C558.508 175.563 558.082 174.079 557.658 172.593C556.809 169.623 555.325 166.864 553.203 164.318C551.081 161.772 550.02 158.166 550.02 153.497C550.02 148.829 548.747 144.586 546.201 140.767C543.655 136.948 541.958 132.705 541.109 128.037C540.685 125.703 540.26 123.369 539.836 121.035C539.836 123.581 539.836 126.127 539.836 128.673Z" fill="#EA8529" stroke="#EA8529"/>
<path d="M212.435 132.293C211.813 134.762 211.91 137.85 212.724 141.557C213.54 145.263 215.024 149.795 217.174 155.15C219.324 160.507 221.632 164.371 224.098 166.744C225.33 167.929 226.562 169.116 227.796 170.302C225.954 164.586 224.113 158.87 222.272 153.154C218.591 141.722 216.803 134.927 216.911 132.765C217.018 130.605 216.454 129.369 215.221 129.057C214.603 128.902 213.986 128.745 213.369 128.59C213.058 129.825 212.746 131.06 212.435 132.293Z" fill="#EA8529" stroke="#EA8529"/>
<path d="M568.48 132.49C569.753 136.733 570.177 141.189 569.753 145.857C569.329 150.525 570.177 154.132 572.299 156.678C574.421 159.224 577.178 161.346 580.574 163.043C582.271 163.892 583.969 164.74 585.666 165.589C585.666 164.74 585.666 163.892 585.666 163.043C585.666 161.346 583.544 159.011 579.301 156.041C575.058 153.071 573.148 149.04 573.572 143.947C573.996 138.855 573.785 135.036 572.935 132.49C572.086 129.944 570.813 128.247 569.116 127.398C568.267 126.974 567.419 126.549 566.57 126.125C567.207 128.247 567.843 130.368 568.48 132.49Z" fill="#EA8529" stroke="#EA8529"/>
<path d="M620.672 163.677C620.248 168.346 621.733 173.013 625.128 177.681C628.523 182.349 630.856 184.895 632.129 185.319C632.766 185.532 633.403 185.743 634.039 185.956C633.615 184.259 633.19 182.56 632.766 180.863C631.917 177.468 630.22 174.711 627.674 172.589C625.128 170.467 623.855 167.284 623.855 163.041C623.855 160.919 623.855 158.798 623.855 156.676C623.431 156.676 623.006 156.676 622.582 156.676C621.733 156.676 621.096 159.009 620.672 163.677Z" fill="#EA8529" stroke="#EA8529"/>
<path d="M467.27 177.052C464.724 182.993 461.754 188.085 458.358 192.328C454.963 196.571 451.993 198.906 449.447 199.33C446.901 199.754 445.204 198.906 444.355 196.784C443.931 195.723 443.506 194.662 443.082 193.601C443.295 195.087 443.506 196.571 443.719 198.057C444.142 201.027 445.841 202.512 448.811 202.512C451.781 202.512 454.539 201.452 457.085 199.33C459.631 197.208 462.814 192.541 466.633 185.327C470.452 178.112 472.149 173.445 471.725 171.323C471.513 170.263 471.301 169.201 471.089 168.141C469.816 171.111 468.543 174.082 467.27 177.052Z" fill="#EA8529" stroke="#EA8529"/>
<path d="M232.395 173.864C226.879 176.834 223.908 180.442 223.484 184.685C223.272 186.807 223.06 188.928 222.848 191.05C223.484 189.353 224.121 187.655 224.757 185.958C226.03 182.563 228.152 179.805 231.122 177.683C234.092 175.561 237.7 174.288 241.943 173.864C246.186 173.44 249.794 173.864 252.764 175.137C255.734 176.41 264.858 185.534 280.134 202.507C295.41 219.481 306.231 230.09 312.596 234.333C318.962 238.576 326.6 242.184 335.511 245.154C344.422 248.124 353.546 253.641 362.881 261.703C372.216 269.765 380.704 278.677 388.342 288.437C395.98 298.197 401.709 308.382 405.528 318.99C409.347 329.598 412.106 335.327 413.803 336.176C414.652 336.6 415.499 337.025 416.349 337.449C415.499 333.842 414.652 330.234 413.803 326.628C412.106 319.414 409.983 313.261 407.437 308.169C404.891 303.077 398.102 293.953 387.069 280.799C376.035 267.645 367.337 258.521 360.972 253.429C354.607 248.336 345.483 243.457 333.601 238.789C321.72 234.12 310.687 227.119 300.503 217.784C290.318 208.448 281.831 199.537 275.042 191.05C268.253 182.563 263.372 177.259 260.402 175.137C257.432 173.015 253.4 171.531 248.308 170.681C243.216 169.832 237.911 170.894 232.395 173.864Z" fill="#EA8529" stroke="#EA8529"/>
<path d="M480.637 182.773C475.121 190.836 471.089 195.928 468.543 198.05C465.997 200.172 463.238 201.445 460.268 201.869C458.783 202.082 457.298 202.293 455.813 202.505C456.025 202.929 456.237 203.355 456.449 203.779C456.873 204.628 458.571 204.839 461.541 204.415C464.511 203.991 467.483 202.505 470.453 199.959C473.423 197.413 477.454 192.745 482.546 185.956C487.638 179.167 490.397 174.923 490.821 173.226C491.034 172.377 491.245 171.529 491.458 170.68C491.034 170.68 490.608 170.68 490.185 170.68C489.335 170.68 486.153 174.711 480.637 182.773Z" fill="#EA8529" stroke="#EA8529"/>
<path d="M377.08 159.361C376.943 152.609 376.441 148.15 375.576 145.987C374.711 143.825 373.26 142.093 371.222 140.792C370.203 140.142 367.237 138.401 366.219 137.751C366.592 137.573 367.829 137.563 368.203 137.384C368.949 137.029 371.425 138.423 373.462 139.724C375.5 141.024 377.005 142.958 377.979 145.523C378.953 148.088 379.667 152.293 380.122 158.136C380.576 163.981 380.538 167.483 380.008 168.644C379.745 169.225 379.48 169.806 379.215 170.386C378.893 170.236 378.572 170.087 378.25 169.937C377.607 169.638 377.218 166.113 377.08 159.361Z" fill="#EA8529" stroke="#EA8529"/>
<path d="M390.955 187.409C389.258 197.593 388.833 203.746 389.682 205.868C390.531 207.99 392.865 210.536 396.684 213.506C400.503 216.476 403.473 219.659 405.595 223.054C407.717 226.449 410.475 231.753 413.87 238.967C417.265 246.181 419.811 253.394 421.508 260.609C422.357 264.215 423.205 267.823 424.054 271.429C425.115 271.005 426.176 270.58 427.237 270.156C429.359 269.307 431.268 267.186 432.965 263.791C434.662 260.396 438.27 257.639 443.786 255.516C449.302 253.394 458.213 251.061 470.52 248.515C482.826 245.969 495.344 244.059 508.074 242.786C520.805 241.513 527.17 240.453 527.17 239.604C527.17 239.18 527.17 238.754 527.17 238.33C525.684 238.33 524.2 238.33 522.714 238.33C519.744 238.33 508.287 240.027 488.342 243.423C468.398 246.818 455.031 249.575 448.242 251.697C441.453 253.819 436.148 256.366 432.329 259.336C430.419 260.821 428.51 262.306 426.6 263.791C424.691 258.275 422.781 252.758 420.872 247.242C417.052 236.208 413.657 228.359 410.687 223.691C407.717 219.022 404.11 214.779 399.867 210.96C395.623 207.141 393.501 199.716 393.501 188.682C393.501 183.166 393.501 177.649 393.501 172.133C392.652 177.225 391.804 182.317 390.955 187.409Z" fill="#EA8529" stroke="#EA8529"/>
<path d="M514.371 182.142C511.825 186.385 509.491 191.902 507.369 198.691C505.247 205.48 503.337 209.512 501.64 210.785C499.944 212.058 498.034 212.695 495.912 212.695C493.79 212.695 492.093 212.058 490.82 210.785C490.183 210.149 489.547 209.512 488.91 208.876C488.91 209.725 488.91 210.572 488.91 211.422C488.91 213.119 490.82 214.18 494.639 214.604C498.458 215.028 501.64 214.18 504.187 212.058C506.733 209.936 510.128 203.571 514.371 192.963C518.614 182.354 520.312 176.837 519.463 176.413C518.614 175.989 516.917 177.899 514.371 182.142Z" fill="#EA8529" stroke="#EA8529"/>
<path d="M392.127 173.343C392.533 167.748 393.791 163.397 392.869 161.79C391.946 160.185 390.671 158.927 389.041 158.018C387.412 157.109 385.917 156.82 384.559 157.154C383.879 157.321 383.199 157.486 382.52 157.653C382.774 157.067 383.029 156.482 383.282 155.896C383.791 154.725 385.576 154.812 388.636 156.155C391.697 157.499 393.886 159.448 395.205 162.003C396.525 164.559 396.017 169.19 395.041 176.759C394.28 182.662 393.265 188.244 392.158 184.317C391.563 182.214 391.986 175.295 392.127 173.343Z" fill="#EA8529" stroke="#EA8529"/>
<path d="M502.917 183.42C501.22 187.663 498.461 192.118 494.642 196.787C490.823 201.455 486.58 205.061 481.912 207.607C477.243 210.154 473.637 211.214 471.091 210.79C468.545 210.366 466.848 209.517 465.999 208.244C465.15 206.971 464.302 206.334 463.453 206.334C463.029 206.334 462.604 206.334 462.18 206.334C462.392 206.971 462.604 207.607 462.816 208.244C463.24 209.517 465.575 210.79 469.818 212.063C474.061 213.336 478.517 212.7 483.185 210.154C487.853 207.607 492.096 204.001 495.915 199.333C499.734 194.665 502.704 189.998 504.826 185.329C506.948 180.661 507.585 178.115 506.736 177.691C506.312 177.479 505.887 177.267 505.463 177.055C504.614 179.177 503.766 181.298 502.917 183.42Z" fill="#EA8529" stroke="#EA8529"/>
<path d="M243.854 188.505C246.824 194.446 248.097 198.689 247.673 201.235C247.249 203.781 246.4 205.691 245.127 206.964C243.854 208.237 243.218 209.51 243.218 210.783C243.218 211.42 243.218 212.056 243.218 212.693C243.641 212.693 244.067 212.693 244.491 212.693C245.34 212.693 246.613 211.632 248.31 209.51C250.007 207.388 251.068 204.842 251.492 201.872C251.916 198.902 251.28 195.507 249.583 191.688C247.886 187.868 245.764 184.898 243.218 182.776C241.945 181.716 240.671 180.654 239.398 179.594C240.884 182.564 242.368 185.535 243.854 188.505Z" fill="#EA8529" stroke="#EA8529"/>
<path d="M343.351 1.48805C335.474 1.40785 324.375 2.64141 310.053 5.18748C290.958 8.58265 279.5 11.1287 275.681 12.8257C271.862 14.5226 269.74 16.2208 269.316 17.9178C269.104 18.7669 268.892 19.6147 268.68 20.4639C271.65 19.1908 274.621 17.9178 277.591 16.6448C283.532 14.0987 294.14 11.7652 309.417 9.64309C324.693 7.52094 335.09 6.46051 340.606 6.46051C346.122 6.46051 352.7 7.94614 360.338 10.9161C367.976 13.8861 372.008 15.7957 372.432 16.6448C372.644 17.0687 372.856 17.4939 373.068 17.9178C371.159 18.7669 369.249 19.6147 367.34 20.4639C363.521 22.1608 362.671 30.2242 364.794 44.6515C366.916 59.0787 371.583 70.536 378.797 79.0233C386.011 87.5107 397.043 96.8458 411.896 107.03C426.748 117.214 434.598 125.276 435.447 131.218C436.296 137.159 437.993 143.735 440.539 150.95C443.085 158.164 444.358 166.439 444.358 175.774C444.358 180.442 444.358 185.109 444.358 189.777C445.207 186.807 446.055 183.836 446.904 180.866C448.601 174.925 449.45 169.621 449.45 164.953C449.45 160.285 447.753 153.283 444.358 143.948C440.963 134.613 439.053 127.186 438.629 121.67C438.206 116.154 437.356 112.971 436.083 112.122C435.447 111.698 434.81 111.273 434.174 110.849C433.961 111.698 433.75 112.546 433.537 113.395C433.325 114.244 433.113 115.092 432.901 115.941C429.931 114.032 426.96 112.122 423.99 110.213C418.048 106.394 411.047 101.514 402.985 95.5728C394.922 89.6315 388.132 83.6916 382.616 77.7503C377.1 71.8091 373.492 66.7169 371.795 62.4739C370.098 58.2309 368.613 51.0166 367.34 40.8324C366.067 30.6481 371.159 23.4338 382.616 19.1908C394.073 14.9478 413.381 14.5226 440.539 17.9178C467.697 21.313 487.429 25.1321 499.735 29.3751C512.041 33.6181 520.527 38.4989 525.196 44.015C529.864 49.531 532.834 55.0483 534.107 60.5644C535.38 66.0804 534.531 70.1121 531.561 72.6582C528.591 75.2042 525.832 81.3568 523.286 91.1171C520.74 100.877 519.043 115.092 518.194 133.764C517.345 152.435 519.68 167.075 525.196 177.683C530.712 188.292 536.866 197.415 543.655 205.054C550.444 212.692 556.598 217.996 562.114 220.966C567.63 223.936 570.388 226.695 570.388 229.241C570.388 231.787 568.479 236.667 564.66 243.881C560.841 251.095 553.626 257.46 543.018 262.977C532.41 268.493 515.861 280.586 493.37 299.258C470.879 317.929 459.422 328.114 458.998 329.811C458.785 330.66 458.574 331.508 458.361 332.357C460.058 331.72 461.757 331.084 463.454 330.447C466.849 329.174 469.182 327.477 470.455 325.355C471.728 323.233 473.425 321.749 475.547 320.899C477.67 320.05 481.489 316.868 487.005 311.352C492.521 305.836 501.432 298.197 513.738 288.437C526.045 278.677 535.38 271.888 541.745 268.069C548.11 264.25 555.325 261.067 563.387 258.521C571.449 255.975 577.39 255.126 581.209 255.975C585.028 256.824 591.817 257.035 601.578 256.611C611.338 256.187 620.46 253.641 628.948 248.973C637.435 244.305 644.012 239.001 648.68 233.06C653.348 227.119 658.44 221.816 663.956 217.147C669.472 212.479 676.474 208.024 684.961 203.781C693.449 199.537 699.388 197.628 702.784 198.052C704.481 198.264 706.179 198.476 707.876 198.688C705.966 200.174 704.057 201.658 702.147 203.144C698.328 206.114 695.145 209.297 692.599 212.692C690.053 216.087 688.568 219.057 688.144 221.603C687.72 224.149 688.144 226.271 689.417 227.968C690.69 229.665 693.236 230.938 697.055 231.787C700.874 232.636 702.784 233.697 702.784 234.97C702.784 236.243 699.814 241.548 693.872 250.883C687.931 260.218 680.506 267.856 671.594 273.797C662.683 279.739 657.378 283.982 655.681 286.528C654.832 287.801 653.985 289.074 653.135 290.347C655.681 289.074 658.228 287.801 660.774 286.528C665.866 283.982 671.807 279.95 678.596 274.434C685.385 268.918 693.236 259.581 702.147 246.427C711.058 233.273 716.363 226.908 718.06 227.332C719.757 227.756 724.849 225.422 733.336 220.33C741.824 215.238 749.037 209.297 754.978 202.507C760.919 195.718 764.313 192.536 765.162 192.96C766.011 193.384 766.435 194.869 766.435 197.415C766.435 199.961 762.404 210.57 754.341 229.241C746.279 247.913 731.003 266.372 708.512 284.618C686.022 302.864 666.715 315.383 650.589 322.172C634.464 328.962 623.007 334.054 616.217 337.449C609.428 340.844 605.397 343.39 604.124 345.087C603.487 345.936 602.851 346.784 602.214 347.633C614.521 342.328 626.826 337.025 639.132 331.72C663.744 321.112 685.81 308.382 705.33 293.529C724.849 278.677 736.732 268.918 740.975 264.25C745.218 259.581 751.159 248.124 758.797 229.878C766.435 211.631 770.467 201.022 770.891 198.052C771.315 195.082 771.103 192.536 770.254 190.414C769.405 188.292 771.315 184.685 775.983 179.593C780.651 174.501 784.47 168.985 787.44 163.043C790.41 157.102 792.532 152.223 793.805 148.404C795.078 144.585 795.715 138.432 795.715 129.945C795.715 121.457 794.866 112.546 793.169 103.211C791.472 93.8758 788.713 84.3281 784.894 74.5677C781.075 64.8074 772.588 53.3501 759.434 40.1959C746.279 27.0416 736.095 18.5543 728.881 14.7352C721.667 10.9161 715.09 8.15746 709.149 6.46051C703.208 4.76356 696.206 3.70185 688.144 3.27793C680.082 2.85401 672.867 3.06533 666.502 3.91444C660.137 4.76356 652.923 6.46051 644.861 9.00657C636.799 11.5526 627.887 15.5843 618.127 21.1004C608.367 26.6164 600.305 30.4355 593.939 32.5577C587.574 34.6798 576.966 40.1959 562.114 49.1071C554.688 53.5627 547.261 58.0183 539.836 62.4739C539.412 60.3518 538.986 58.2309 538.562 56.1088C537.713 51.8657 535.593 47.4101 532.197 42.7419C528.802 38.0737 521.8 33.4068 511.192 28.7386C500.584 24.0704 481.063 19.4034 452.633 14.7352C424.202 10.067 404.682 8.79398 394.073 10.9161C383.465 13.0383 375.402 12.4017 369.886 9.00657C364.37 5.6114 357.792 3.27793 350.154 2.0049C348.244 1.68664 345.977 1.51478 343.351 1.48805ZM688.78 5.82399C698.115 6.24791 707.452 8.37006 716.787 12.1892C726.122 16.0083 734.397 20.6765 741.611 26.1925C748.825 31.7086 754.129 37.0133 757.524 42.1054C760.919 47.1975 764.738 51.6531 768.981 55.4722C773.224 59.2913 777.256 66.7169 781.075 77.7503C784.894 88.7837 787.44 98.9679 788.713 108.303C789.986 117.638 790.623 124.853 790.623 129.945C790.623 135.037 788.926 142.251 785.531 151.586C782.136 160.921 778.316 168.985 774.073 175.774C769.83 182.563 763.889 189.99 756.251 198.052C748.613 206.114 740.975 212.268 733.336 216.511C725.698 220.754 721.455 222.452 720.606 221.603C719.757 220.754 720.182 217.996 721.879 213.328C723.576 208.66 723.789 205.054 722.516 202.507C721.243 199.961 718.909 197.839 715.514 196.142C712.119 194.445 708.088 193.596 703.42 193.596C698.752 193.596 690.69 196.779 679.233 203.144C667.775 209.509 657.591 217.36 648.68 226.695C639.769 236.03 630.008 242.608 619.4 246.427C608.792 250.246 596.698 252.156 583.119 252.156C576.33 252.156 569.539 252.156 562.75 252.156C564.872 249.186 566.993 246.214 569.115 243.245C573.358 237.303 575.48 233.06 575.48 230.514C575.48 229.241 575.48 227.968 575.48 226.695C578.239 227.544 580.996 228.392 583.755 229.241C589.271 230.938 596.273 231.787 604.76 231.787C613.247 231.787 619.824 231.363 624.492 230.514C629.16 229.665 631.494 228.817 631.494 227.968C631.494 227.544 631.494 227.119 631.494 226.695C624.492 226.695 617.491 226.695 610.489 226.695C596.485 226.695 586.301 225.846 579.936 224.149C573.571 222.452 566.569 218.633 558.931 212.692C551.293 206.75 544.928 200.385 539.836 193.596C534.743 186.807 530.288 179.38 526.469 171.318C522.65 163.256 520.74 156.466 520.74 150.95C520.74 145.434 521.164 138.219 522.013 129.308C522.862 120.397 524.772 109.364 527.742 96.2093C530.712 83.055 533.683 74.7803 536.653 71.3851C539.623 67.99 543.655 64.5961 548.747 61.2009C553.839 57.8057 569.539 49.3197 595.849 35.7402C622.159 22.1608 641.891 13.6748 655.045 10.2796C668.199 6.88443 679.445 5.40007 688.78 5.82399ZM713.803 200.319C716.349 200.744 718.047 203.078 718.895 207.321C719.744 211.565 718.259 216.445 714.44 221.961C710.62 227.478 706.801 230.235 702.982 230.235C699.163 230.235 696.406 229.388 694.708 227.689C693.011 225.992 692.161 224.295 692.161 222.597C692.161 220.9 695.133 216.657 701.073 209.867C707.014 203.078 711.257 199.895 713.803 200.319Z" fill="#EA8529" stroke="#EA8529"/>
<path d="M365.302 136.705C364.621 136.767 363.952 136.973 363.434 137.112C362.533 137.353 361.396 137.107 360.479 137.315C358.278 137.816 357.047 140.859 356.831 142.444C356.753 143.008 357.144 145.407 356.44 145.741C355.871 146.009 347.749 145.406 345.276 145.904C340.27 146.909 333.429 153.444 332.026 157.055C331.51 158.384 331.014 159.006 330.202 160.149C329.535 161.087 325.526 162.774 325.032 165.236H324.989C324.325 166.82 324.87 166.308 323.337 169.307C323.215 169.546 322.105 171.201 322.165 171.667C322.092 171.669 322.02 171.666 321.947 171.667C321.788 171.964 321.629 172.267 321.47 172.562C321.152 173.154 322.197 179.412 324.554 191.327C326.912 203.24 329.672 211.054 332.851 214.771C336.031 218.487 339.472 220.589 343.19 221.079C345.049 221.324 346.892 221.566 348.751 221.812C348.91 221.515 349.069 221.212 349.228 220.916C349.547 220.324 348.477 219.769 345.971 219.248C343.463 218.726 340.592 216.614 337.412 212.898C334.233 209.182 333.024 209.666 331.374 205.328C329.724 200.989 327.642 191.113 327.508 184.692C327.375 178.271 327.041 174.49 326.465 173.336C326.347 173.098 326.133 172.995 325.988 172.807C326.05 171.596 325.297 168.595 326.118 168.207C327.922 167.356 329.849 167.168 331.07 166.051C336.921 160.694 334.022 156.784 341.148 151.561C344.341 149.22 345.626 149.523 349.662 148.712C350.941 148.455 353.655 147.785 355.093 147.897C356.325 147.994 357.815 149.704 358.785 149.444C362.203 148.531 360.614 144.349 361.956 142.688C362.902 141.518 364.715 139.578 366.344 138.943C366.73 138.793 367.881 138.754 368.169 138.577C368.465 138.394 367.368 137.154 367.169 137.031C366.655 136.709 365.983 136.642 365.302 136.705Z" fill="#EA8529" stroke="#EA8529"/>
</svg>
