<svg width="64" height="64" viewBox="0 0 64 64" fill="none" xmlns="http://www.w3.org/2000/svg">
<path d="M52.5453 23.5327H56.2908C57.361 23.5327 58.1636 24.3319 58.1636 25.3974V34.1883M46.5257 48.8398H43.1814V52.1697H40.2385V48.8398H36.8943V45.9095H40.2385V42.5796H43.1814V45.9095H46.5257V48.8398Z" stroke="#EA8529" stroke-width="1.3" stroke-miterlimit="10" stroke-linecap="round" stroke-linejoin="round"/>
<path d="M35.6906 34.3214V26.596C35.6906 23.3994 38.2322 20.8687 41.4427 20.8687H47.5961C50.8065 20.8687 53.3482 23.3994 53.3482 26.596V34.3214" stroke="#EA8529" stroke-width="1.3" stroke-miterlimit="10" stroke-linecap="round" stroke-linejoin="round"/>
<path d="M44.5199 17.6719C46.7362 17.6719 48.5329 15.8829 48.5329 13.676C48.5329 11.4692 46.7362 9.68018 44.5199 9.68018C42.3035 9.68018 40.5068 11.4692 40.5068 13.676C40.5068 15.8829 42.3035 17.6719 44.5199 17.6719Z" stroke="#EA8529" stroke-width="1.3" stroke-miterlimit="10" stroke-linecap="round" stroke-linejoin="round"/>
<path d="M59.7697 38.4504V56.2985H28.3339" stroke="#EA8529" stroke-width="1.3" stroke-miterlimit="10" stroke-linecap="round" stroke-linejoin="round"/>
<path d="M25.1233 34.3214H62.8462V38.4504H25.1233" stroke="#EA8529" stroke-width="1.3" stroke-miterlimit="10" stroke-linecap="round" stroke-linejoin="round"/>
<path d="M16.2934 24.8646C18.5098 24.8646 20.3065 23.0756 20.3065 20.8687C20.3065 18.6619 18.5098 16.8729 16.2934 16.8729C14.0771 16.8729 12.2803 18.6619 12.2803 20.8687C12.2803 23.0756 14.0771 24.8646 16.2934 24.8646Z" stroke="#EA8529" stroke-width="1.3" stroke-miterlimit="10" stroke-linecap="round" stroke-linejoin="round"/>
<path d="M23.7851 53.5015V60.8272C23.7851 62.1592 22.715 63.0915 21.511 63.0915C20.1733 63.0915 19.237 62.026 19.237 60.8272V53.5015M23.7851 53.5015V49.772H18.4343V33.9218C18.4343 32.8562 17.6317 32.0571 16.5616 32.0571H2.64956C1.57941 32.0571 0.776794 32.8562 0.776794 33.9218V50.9708C0.776794 52.3027 1.98072 53.5015 3.31841 53.5015H23.7851Z" stroke="#EA8529" stroke-width="1.3" stroke-miterlimit="10" stroke-linecap="round" stroke-linejoin="round"/>
<path d="M7.7328 32.0572C8.40165 29.6596 10.6757 27.9281 13.2173 27.9281H19.3707C22.5812 27.9281 25.1228 30.4588 25.1228 33.6555V44.9771H26.193C27.3969 44.9771 28.3333 45.9095 28.3333 47.1082V60.8273C28.3333 62.1593 27.2631 63.0916 26.0592 63.0916C24.7215 63.0916 23.7851 62.0261 23.7851 60.8273M0.776794 36.3194H18.4343M9.60557 53.5016V63.2248M6.39511 63.2248H12.6823M39.7037 34.3215V30.3256M49.3351 34.3215V30.3256M25.1228 45.1103H23.6514M37.4296 10.0799H32.7477V14.875H28.467V10.0799H23.7851V5.95089H28.467V1.28906H32.7477V5.95089H37.4296V10.0799Z" stroke="#EA8529" stroke-width="1.3" stroke-miterlimit="10" stroke-linecap="round" stroke-linejoin="round"/>
<path d="M6.52888 12.6106C9.70566 12.6106 12.281 10.0464 12.281 6.88322C12.281 3.72006 9.70566 1.15582 6.52888 1.15582C3.35209 1.15582 0.776794 3.72006 0.776794 6.88322C0.776794 10.0464 3.35209 12.6106 6.52888 12.6106Z" stroke="#EA8529" stroke-width="1.3" stroke-miterlimit="10" stroke-linecap="round" stroke-linejoin="round"/>
<path d="M6.52888 1.28906V2.35462M6.52888 11.5451V12.6107M12.281 6.88326H11.077M1.84695 6.88326H0.776794M6.52888 5.55131V6.88326H5.05741" stroke="#EA8529" stroke-width="1.3" stroke-miterlimit="10" stroke-linecap="round" stroke-linejoin="round"/>
</svg>
