<svg width="71" height="83" viewBox="0 0 71 83" fill="none"
    xmlns="http://www.w3.org/2000/svg">
    <path d="M46.9565 79.6358L68.8404 66.3149L46.9565 79.6358ZM46.9565 79.6358C45.4936 80.5268 43.8137 80.9979 42.1008 80.9974M46.9565 79.6358L42.1008 80.9974M42.1008 80.9974H12.8211H42.1008ZM20.9081 55.6271L22.2883 56.7284C24.2356 58.2822 26.6522 59.1299 29.1435 59.1332C29.1437 59.1332 29.144 59.1332 29.1442 59.1332L35.2491 59.1332H35.2514C36.2032 59.1357 37.1384 59.3834 37.9668 59.8522C38.7951 60.3211 39.4889 60.9953 39.9811 61.81L39.9811 61.8101L40.0863 61.9842L40.0877 61.9866C40.486 62.6508 40.6776 63.4186 40.6381 64.192L39.7892 64.1486L40.638 64.192C40.5985 64.9655 40.3296 65.7097 39.8656 66.3298L39.6106 66.6706H39.185H32.0896H32.0889C29.952 66.669 27.8626 67.3017 26.0856 68.4886L26.0851 68.489L25.23 69.0592L25.23 69.0592C25.1599 69.1059 25.1113 69.1786 25.0948 69.2611C25.0783 69.3437 25.0953 69.4295 25.142 69.4995C25.1887 69.5696 25.2613 69.6182 25.3439 69.6347C25.4265 69.6512 25.5122 69.6343 25.5823 69.5875L26.4367 69.0178C26.4368 69.0177 26.4369 69.0176 26.4371 69.0175C28.1103 67.8995 30.0779 67.3036 32.0903 67.3053M20.9081 55.6271L32.0896 68.1553M20.9081 55.6271V55.7979M20.9081 55.6271V55.7979M32.0903 67.3053L32.0896 68.1553M32.0903 67.3053H32.0896V68.1553M32.0903 67.3053H42.4663C43.0033 67.3053 43.5362 67.2191 44.0445 67.0497M32.0896 68.1553H42.4663C43.0942 68.1553 43.7179 68.0545 44.3132 67.8561M44.0445 67.0497L44.0444 67.0497L44.3132 67.8561M44.0445 67.0497L65.6472 59.8496C65.6487 59.8491 65.6502 59.8486 65.6517 59.848C66.1997 59.6603 66.7919 59.643 67.35 59.7987C67.9096 59.9547 68.4086 60.2772 68.7808 60.7233L68.8246 60.7759L68.8589 60.8338C68.8589 60.8338 68.8589 60.8338 68.8589 60.8339C68.8592 60.8344 68.8605 60.8363 68.8631 60.8402C68.8668 60.8456 68.8714 60.8522 68.8786 60.8622L68.8806 60.865C69.1185 61.1847 69.2876 61.5502 69.3772 61.9385C69.4675 62.3298 69.4751 62.7358 69.3994 63.1302L69.3993 63.1304C69.3235 63.5248 69.1661 63.8991 68.9371 64.2291C68.7082 64.5591 68.4127 64.8376 68.0698 65.0467L68.0693 65.0471L46.1854 78.3678L46.1851 78.368C44.9542 79.1165 43.5414 79.5123 42.1008 79.5124H13.7317H12.8817V78.6624V55.3135V54.4635H13.7317H15.8315H15.8326C17.6201 54.4658 19.3667 54.9299 20.9081 55.7979M44.0445 67.0497L44.3132 67.8561M44.3132 67.8561L20.9081 55.7979M12.4396 80.1474L12.186 80.4325C11.9399 80.7092 11.6382 80.9308 11.3006 81.0829C10.9634 81.2348 10.598 81.3139 10.2281 81.3151H4.39323C2.92858 81.3136 1.74159 80.1268 1.73969 78.6621V54.1468C1.74159 52.6823 2.92834 51.4955 4.39285 51.4936H10.2278C10.7738 51.4956 11.3059 51.6663 11.751 51.9825C12.1965 52.2989 12.5331 52.7455 12.7147 53.2609L12.9146 53.8284H13.5164H15.8308C18.3226 53.832 20.7395 54.6799 22.6874 56.2337C24.5211 57.6971 26.7968 58.4954 29.1427 58.4982H29.1437H35.2483C36.311 58.5016 37.3549 58.7783 38.2797 59.3018C39.2045 59.8253 39.979 60.5778 40.5288 61.4871C40.529 61.4876 40.5293 61.488 40.5295 61.4884L40.632 61.6589C40.6321 61.659 40.6321 61.6592 40.6322 61.6593C40.977 62.2364 41.1887 62.8831 41.252 63.5524C41.3152 64.2218 41.2284 64.8969 40.9977 65.5285L40.5809 66.6701H41.7962H42.4668H42.4672C42.935 66.6699 43.3998 66.5946 43.8438 66.4471L43.8446 66.4468L65.4543 59.2433L65.4551 59.243C66.155 59.0089 66.9108 59.0014 67.6152 59.2214C68.3196 59.4415 68.9367 59.878 69.3788 60.4689L69.38 60.4704C69.3865 60.4791 69.3926 60.4882 69.3982 60.4975L69.4167 60.5282L69.4377 60.5573C69.715 60.9411 69.9102 61.3781 70.011 61.8408C70.1118 62.3035 70.1161 62.782 70.0236 63.2464L70.0227 63.2512C69.9297 63.7325 69.7372 64.1891 69.4574 64.5917L70.1554 65.0767L69.4574 64.5917C69.1777 64.9942 68.817 65.3338 68.3984 65.5888C68.3984 65.5889 68.3983 65.5889 68.3982 65.589L46.5146 78.9097L46.5144 78.9098C45.1848 79.7197 43.6579 80.1478 42.1011 80.1474H42.1008H12.8211H12.4396ZM70.1267 60.0595C70.106 60.0251 70.0835 59.9917 70.0594 59.9596L70.8573 63.4125C70.9726 62.8334 70.9672 62.2367 70.8415 61.6598C70.7158 61.0829 70.4725 60.5381 70.1267 60.0595ZM39.2535 62.2496L39.3587 62.4237L22.6082 58.0114C24.5398 59.2905 26.8112 59.9803 29.1432 59.9832H35.2491C36.055 59.9853 36.8467 60.195 37.5481 60.592C38.2495 60.9889 38.8368 61.5598 39.2535 62.2496ZM2.37451 54.1455V54.1462L2.37451 78.6626L2.37451 78.6634C2.37546 79.7774 3.27886 80.6788 4.39161 80.6798H4.39233H10.2292H10.2299C11.3429 80.6788 12.246 79.7771 12.2469 78.6634V78.6626V54.1461L12.2469 54.1452C12.2463 53.6105 12.0337 53.0979 11.6556 52.7198C11.2775 52.3417 10.7648 52.129 10.2301 52.1284H10.2292L4.39233 52.1284L4.39153 52.1284C3.85674 52.1289 3.34399 52.3416 2.96583 52.7198C2.58768 53.0979 2.37501 53.6107 2.37451 54.1455Z" fill="transparent" stroke="#EA8529" stroke-width="1.7"/>
    <path d="M67.2481 22.1925L68.0977 22.166L67.2481 22.1925ZM42.0124 32.6589L41.8009 33.4821C41.9907 33.5309 42.1915 33.5126 42.3694 33.4303L42.0124 32.6589ZM35.4699 23.3009L36.1809 22.8351L35.4699 23.3009ZM26.4796 12.0547C26.1356 12.3741 26.1157 12.9119 26.4351 13.256C26.7545 13.6 27.2923 13.6199 27.6363 13.3005L26.4796 12.0547ZM47.4603 7.80344C47.9213 7.89185 48.3667 7.58976 48.4551 7.12871C48.5435 6.66767 48.2415 6.22226 47.7804 6.13386L47.4603 7.80344ZM42.6731 24.7718C42.2036 24.7718 41.8231 25.1524 41.8231 25.6218C41.8231 26.0913 42.2036 26.4718 42.6731 26.4718V24.7718ZM45.1254 26.4718C45.5949 26.4718 45.9754 26.0913 45.9754 25.6218C45.9754 25.1524 45.5949 24.7718 45.1254 24.7718V26.4718ZM57.9016 31.8089C57.4321 31.8089 57.0516 32.1894 57.0516 32.6589C57.0516 33.1283 57.4321 33.5089 57.9016 33.5089V31.8089ZM58.8643 33.5089C59.3338 33.5089 59.7143 33.1283 59.7143 32.6589C59.7143 32.1894 59.3338 31.8089 58.8643 31.8089V33.5089ZM38.6486 35.6188C38.6831 35.1506 38.3315 34.7431 37.8634 34.7086C37.3952 34.6741 36.9877 35.0256 36.9532 35.4938L38.6486 35.6188ZM41.0778 48.8343L40.5999 49.5372L41.0778 48.8343ZM34.2006 45.8807C34.602 45.6372 34.73 45.1145 34.4865 44.7131C34.243 44.3117 33.7203 44.1837 33.3189 44.4272L34.2006 45.8807ZM27.9926 45.9798L27.7081 46.7808L27.9926 45.9798ZM32.1003 29.2901L32.8112 28.8241L32.8 28.8071L32.7881 28.7906L32.1003 29.2901ZM22.1687 20.5636C21.763 20.3274 21.2426 20.4647 21.0064 20.8704C20.7702 21.276 20.9075 21.7964 21.3132 22.0327L22.1687 20.5636ZM19.9226 15.4561L19.122 15.1706L19.9226 15.4561ZM20.6216 16.7212L20.4416 17.5519L20.6216 16.7212ZM58.8547 40.0941L59.5133 40.6315L58.8547 40.0941ZM57.256 39.8878L56.4901 40.2565L57.256 39.8878ZM59.5133 40.6315C60.7398 39.1286 62.9244 36.2809 64.7801 32.9509C66.6216 29.6465 68.2095 25.745 68.0977 22.166L66.3985 22.2191C66.4955 25.3236 65.0973 28.8896 63.2951 32.1234C61.5072 35.3317 59.3907 38.093 58.1962 39.5567L59.5133 40.6315ZM68.0977 22.166C67.7517 11.0945 57.6041 3.17409 46.7236 1.06527C35.7879 -1.05424 23.6065 2.5924 19.122 15.1706L20.7233 15.7415C24.8331 4.21421 35.9859 0.715768 46.4001 2.73421C56.8695 4.76334 66.0874 12.2639 66.3985 22.2191L68.0977 22.166ZM42.224 31.8356C40.5197 31.3976 39.5931 30.1949 38.7934 28.4968C38.3855 27.6306 38.0472 26.7192 37.6371 25.7269C37.2378 24.7607 36.7843 23.7562 36.1809 22.8351L34.7588 23.7667C35.2721 24.5502 35.6768 25.4346 36.066 26.3762C36.4444 27.2917 36.825 28.307 37.2555 29.2211C38.1325 31.0834 39.3605 32.855 41.8009 33.4821L42.224 31.8356ZM36.1809 22.8351C34.2841 19.9398 31.999 18.5363 29.3776 17.6922C28.0874 17.2767 26.7179 16.9971 25.2974 16.7372C23.8624 16.4746 22.3845 16.2334 20.8016 15.8904L20.4416 17.5519C22.0604 17.9026 23.5961 18.1541 24.9914 18.4094C26.4011 18.6674 27.6785 18.931 28.8566 19.3104C31.1718 20.0559 33.1092 21.2485 34.7588 23.7667L36.1809 22.8351ZM27.6363 13.3005C30.9313 10.2411 33.6031 8.46695 36.5454 7.64188C39.4909 6.81587 42.8111 6.91201 47.4603 7.80344L47.7804 6.13386C43.0272 5.22249 39.403 5.07494 36.0863 6.00502C32.7663 6.93604 29.8582 8.91773 26.4796 12.0547L27.6363 13.3005ZM42.6731 26.4718H45.1254V24.7718H42.6731V26.4718ZM57.9016 33.5089H58.8643V31.8089H57.9016V33.5089ZM36.9532 35.4938C36.7211 38.6421 36.362 41.3253 36.6773 43.5598C37.0107 45.922 38.0885 47.8298 40.5999 49.5372L41.5557 48.1313C39.4238 46.682 38.6243 45.1901 38.3606 43.3222C38.079 41.3266 38.403 38.9492 38.6486 35.6188L36.9532 35.4938ZM58.0219 39.5192C57.841 39.1433 57.6563 38.761 57.4669 38.3782L55.9432 39.1322C56.1283 39.5062 56.3096 39.8814 56.4901 40.2565L58.0219 39.5192ZM57.4669 38.3782C56.2028 35.8236 54.6509 33.0633 52.1713 31.5267C49.6027 29.935 46.2447 29.7639 41.6555 31.8875L42.3694 33.4303C46.624 31.4616 49.3435 31.7744 51.2758 32.9718C53.2971 34.2243 54.6696 36.5583 55.9432 39.1322L57.4669 38.3782ZM40.5999 49.5372C41.0682 49.8556 41.6347 49.9012 42.1391 49.8534C42.6581 49.8042 43.2334 49.6449 43.8321 49.4177C45.0329 48.962 46.4673 48.1787 47.984 47.191C51.0233 45.2118 54.5157 42.3308 57.3249 39.3368L56.0852 38.1736C53.3701 41.0673 49.9827 43.8607 47.0563 45.7665C45.59 46.7213 44.2701 47.4332 43.2289 47.8283C42.7066 48.0265 42.289 48.1316 41.9786 48.161C41.6536 48.1918 41.5542 48.1303 41.5557 48.1313L40.5999 49.5372ZM33.7597 45.1539C33.3189 44.4272 33.3191 44.4271 33.3193 44.4269C33.3194 44.4269 33.3196 44.4268 33.3197 44.4267C33.3199 44.4266 33.3201 44.4265 33.3202 44.4264C33.3205 44.4262 33.3206 44.4262 33.3205 44.4262C33.3203 44.4263 33.3194 44.4269 33.3179 44.4278C33.3147 44.4297 33.3089 44.4331 33.3003 44.438C33.2832 44.4479 33.2556 44.4636 33.2182 44.4841C33.1432 44.5251 33.0295 44.5849 32.8831 44.6548C32.5892 44.7951 32.1697 44.9734 31.6728 45.1232C30.6624 45.4277 29.4248 45.5865 28.2772 45.1788L27.7081 46.7808C29.3389 47.3601 30.9848 47.106 32.1634 46.7509C32.761 46.5708 33.2623 46.3575 33.6156 46.1888C33.7928 46.1042 33.9343 46.03 34.0336 45.9757C34.0833 45.9486 34.1226 45.9263 34.1507 45.9101C34.1647 45.902 34.176 45.8954 34.1843 45.8904C34.1885 45.888 34.1919 45.8859 34.1946 45.8843C34.196 45.8835 34.1972 45.8828 34.1982 45.8822C34.1987 45.8819 34.1991 45.8816 34.1995 45.8813C34.1997 45.8812 34.2 45.8811 34.2001 45.881C34.2003 45.8808 34.2006 45.8807 33.7597 45.1539ZM28.2772 45.1788C27.6596 44.9594 27.3647 44.662 27.2148 44.361C27.0543 44.0389 26.9976 43.5867 27.0984 42.9604C27.3048 41.6786 28.104 40.043 29.1242 38.2595C30.102 36.55 31.3046 34.6723 32.0984 33.1391C32.5011 32.3611 32.8395 31.5988 33.011 30.9133C33.1755 30.2556 33.236 29.4723 32.8112 28.8241L31.3894 29.756C31.4158 29.7962 31.4916 29.9817 31.3618 30.5008C31.2389 30.9921 30.9733 31.6147 30.5887 32.3575C29.8078 33.8658 28.7022 35.5734 27.6485 37.4154C26.6372 39.1833 25.6816 41.0655 25.42 42.6902C25.2869 43.5173 25.3179 44.3656 25.6931 45.119C26.0789 45.8936 26.7677 46.4467 27.7081 46.7808L28.2772 45.1788ZM32.7881 28.7906C29.9789 24.9223 27.0032 23.379 22.1687 20.5636L21.3132 22.0327C26.2277 24.8947 28.854 26.2664 31.4125 29.7895L32.7881 28.7906ZM19.122 15.1706C18.758 16.1917 19.3697 17.3197 20.4416 17.5519L20.8016 15.8904C20.774 15.8845 20.7494 15.8677 20.7321 15.8364C20.7146 15.8047 20.7125 15.7717 20.7233 15.7415L19.122 15.1706ZM58.1962 39.5567C58.1779 39.579 58.1634 39.5864 58.1548 39.5897C58.1442 39.5938 58.1305 39.596 58.1141 39.5938C58.0975 39.5916 58.0808 39.5852 58.066 39.5747C58.0526 39.5652 58.0363 39.5491 58.0219 39.5192L56.4901 40.2565C57.055 41.43 58.6535 41.685 59.5133 40.6315L58.1962 39.5567Z" fill="#EA8529"/>
</svg>
