<svg width="60" height="77" viewBox="0 0 60 77" fill="none"
    xmlns="http://www.w3.org/2000/svg">
    <path d="M2.21436 37.4307C2.26558 37.2393 2.35406 37.0598 2.47476 36.9025C2.59565 36.745 2.74646 36.6129 2.91854 36.5139C3.96211 35.9116 5.12389 35.6021 6.30282 35.6021C6.89339 35.6021 7.48681 35.6798 8.06971 35.8361C9.81989 36.305 11.2863 37.4303 12.1923 38.9995L16.1528 45.8593C16.8943 47.1434 18.4594 47.6376 19.8037 47.0124C20.7983 46.5497 21.443 45.5388 21.443 44.4419V12.9517C21.443 10.6627 23.3038 8.80191 25.5928 8.80191C27.8818 8.80191 29.7426 10.6627 29.7426 12.9517V37.3703C29.7426 37.495 29.7921 37.6145 29.8803 37.7027C29.9684 37.7908 30.0879 37.8403 30.2126 37.8403C30.3372 37.8403 30.4568 37.7908 30.5449 37.7027C30.6331 37.6145 30.6826 37.495 30.6826 37.3703V29.4509C30.6826 27.1619 32.5434 25.301 34.8324 25.301C37.1214 25.301 38.9822 27.1619 38.9822 29.4509V37.3703C38.9822 37.495 39.0317 37.6145 39.1199 37.7027C39.208 37.7908 39.3276 37.8403 39.4522 37.8403C39.5769 37.8403 39.6964 37.7908 39.7845 37.7027C39.8727 37.6145 39.9222 37.495 39.9222 37.3703V32.0907C39.9222 29.8017 41.783 27.9409 44.072 27.9409C46.361 27.9409 48.2218 29.8017 48.2218 32.0907V38.0303C48.2218 38.155 48.2714 38.2745 48.3595 38.3627C48.4476 38.4508 48.5672 38.5003 48.6918 38.5003C48.8165 38.5003 48.936 38.4508 49.0242 38.3627C49.1123 38.2745 49.1618 38.155 49.1618 38.0303V35.3905C49.1618 33.1015 51.0227 31.2407 53.3116 31.2407C55.6006 31.2407 57.4615 33.1015 57.4615 35.3905V53.6488C57.4615 65.521 47.804 75.1784 35.9317 75.1784C28.2646 75.1784 21.1223 71.0552 17.2879 64.4158L2.36606 38.5785C2.36589 38.5782 2.36572 38.5779 2.36554 38.5776C2.26598 38.4058 2.20137 38.216 2.17544 38.0191C2.14953 37.8223 2.16276 37.6224 2.21436 37.4307ZM2.21436 37.4307C2.21449 37.4303 2.21461 37.4298 2.21474 37.4293L3.03529 37.6511L2.21436 37.4307ZM53.3099 30.3009H53.3109C56.1168 30.3009 58.4007 32.5848 58.4007 35.3905V53.6488C58.4007 66.0377 48.3202 76.1182 35.9312 76.1182C27.9316 76.1182 20.4742 71.8133 16.4735 64.8859L15.7374 65.3109L16.4735 64.8858L1.55094 39.0471L1.54981 39.0451C1.38844 38.7674 1.28375 38.4605 1.24179 38.1421C1.19983 37.8237 1.22143 37.5001 1.30536 37.1901L1.30651 37.1857C1.38879 36.8753 1.53182 36.5842 1.72732 36.3294C1.92282 36.0746 2.16691 35.8612 2.44547 35.7013L2.44739 35.7002C6.1381 33.5696 10.8753 34.839 13.0059 38.5293L13.742 38.1043L13.0059 38.5293L16.9644 45.3856C16.9648 45.3863 16.9652 45.3869 16.9656 45.3876C17.2014 45.7995 17.5836 46.1076 18.0362 46.2505C18.4896 46.3937 18.9803 46.3608 19.4104 46.1583C19.7359 46.0055 20.0114 45.7634 20.2048 45.4602C20.3985 45.1565 20.5018 44.8039 20.5027 44.4436V44.4416V12.9517C20.5027 10.146 22.7866 7.86208 25.5923 7.86208C28.3982 7.86208 30.6821 10.146 30.6821 12.9517V24.5143V26.1092L32.0061 25.22C32.8413 24.659 33.8248 24.36 34.8309 24.3612H34.832C37.0234 24.3612 38.8997 25.7552 39.6141 27.7072L40.0167 28.8074L40.9377 28.0833C41.8308 27.3811 42.9344 26.9998 44.0705 27.001H44.0714C46.431 27.001 48.4246 28.6174 48.9964 30.8037L49.3123 32.0114L50.3203 31.2749C51.188 30.6408 52.2352 30.2996 53.3099 30.3009Z" fill="transparent" stroke="#EA8529" stroke-width="1.7"/>
    <path d="M16.1558 19.0401L16.1556 19.0401C15.9325 19.1715 15.6443 19.0974 15.5123 18.8735C14.4603 17.0864 13.9036 15.0386 13.9036 12.9518C13.9036 6.50697 19.1481 1.26248 25.5929 1.26248C32.0377 1.26248 37.2822 6.50697 37.2823 12.9518C37.2823 15.0457 36.722 17.0996 35.663 18.8913C35.5992 18.9973 35.4961 19.0739 35.3762 19.1044C35.2558 19.135 35.1281 19.1167 35.0211 19.0535C34.9142 18.9902 34.8366 18.8872 34.8054 18.7669C34.7743 18.6471 34.7918 18.5199 34.8539 18.4129C35.8282 16.7642 36.3424 14.8758 36.3424 12.9518C36.3424 7.02369 31.521 2.2023 25.5929 2.2023C19.6648 2.2023 14.8434 7.02369 14.8434 12.9518C14.8434 14.8695 15.3543 16.7522 16.3223 18.3967L16.3223 18.3968C16.3536 18.45 16.3741 18.5088 16.3827 18.5699L17.2245 18.4518L16.3827 18.5699C16.3913 18.631 16.3877 18.6932 16.3723 18.7529L17.1709 18.9597L16.3723 18.7529C16.3568 18.8126 16.3297 18.8687 16.2926 18.918C16.2554 18.9673 16.2089 19.0087 16.1558 19.0401Z" fill="#EA8529" stroke="#EA8529" stroke-width="1.7"/>
</svg>
