<svg width="71" height="85" viewBox="0 0 71 85" fill="none" xmlns="http://www.w3.org/2000/svg">
<path d="M43.1712 42.9239C43.1712 48.1463 38.9376 52.3799 33.7152 52.3799C28.4928 52.3799 24.2592 48.1463 24.2592 42.9239C24.2592 37.7015 28.4928 33.4679 33.7152 33.4679C38.9376 33.4679 43.1712 37.7015 43.1712 42.9239Z" stroke="#EA8529" stroke-width="1.7"/>
<path d="M65.0471 38.8278L65.052 38.8336C65.9005 39.8415 66.3658 41.1168 66.3658 42.4343C66.3658 43.7507 65.9013 45.0249 65.0543 46.0324C65.0535 46.0333 65.0528 46.0342 65.052 46.0351L50.4472 63.1385L50.4471 63.1384L50.4391 63.148C48.9472 64.9481 48.1429 67.2194 48.1695 69.5571V83.2978H19.1061V69.552C19.1061 67.2378 18.2991 64.9962 16.8241 63.2131L16.8242 63.213L16.8156 63.2029L2.29973 46.2012C1.45869 45.1954 0.997858 43.9259 0.997858 42.6147C0.997858 41.3021 1.45962 40.0314 2.30227 39.0251L2.30228 39.0251L2.30543 39.0213C2.69624 38.549 3.18656 38.1689 3.74134 37.9082C4.29585 37.6476 4.90108 37.5126 5.51378 37.513C6.12707 37.5148 6.73252 37.651 7.28758 37.9118C7.84289 38.1728 8.33427 38.5524 8.72716 39.0237L8.73581 39.034L8.7448 39.0442L20.1901 51.9185C21.8518 53.8863 23.9189 55.4722 26.2499 56.5678C28.5844 57.665 31.1285 58.2445 33.7078 58.2666L33.7188 58.2667L33.7299 58.2665C36.282 58.2221 38.795 57.6318 41.0999 56.5353C43.4016 55.4404 45.4426 53.866 47.086 51.9179L58.6732 38.8501L58.683 38.8391L58.6923 38.8278C59.0791 38.3599 59.5645 37.9832 60.1138 37.7246L59.7524 36.9568L60.1138 37.7246C60.6631 37.466 61.2627 37.3319 61.8698 37.3319C62.4768 37.3319 63.0764 37.466 63.6257 37.7246C64.175 37.9832 64.6604 38.3599 65.0471 38.8278Z" stroke="#EA8529" stroke-width="1.7"/>
<path d="M66.585 20.6025H64.5539V18.5714C64.5539 16.9756 63.2602 15.6819 61.6644 15.6819C60.0685 15.6819 58.7748 16.9756 58.7748 18.5714V20.6025H56.7437C55.1479 20.6025 53.8542 21.8962 53.8542 23.4921C53.8542 25.0879 55.1479 26.3816 56.7437 26.3816H58.7748V28.4127C58.7748 30.0085 60.0685 31.3022 61.6644 31.3022C63.2602 31.3022 64.5539 30.0085 64.5539 28.4127V26.3816H66.585C68.1808 26.3816 69.4745 25.0879 69.4745 23.4921C69.4745 21.8962 68.1808 20.6025 66.585 20.6025Z" stroke="#EA8529" stroke-width="1.7" stroke-miterlimit="10" stroke-linecap="round" stroke-linejoin="round"/>
<path d="M17.8635 23.7782H15.8324V21.7471C15.8324 20.1513 14.5387 18.8575 12.9428 18.8575C11.347 18.8575 10.0533 20.1513 10.0533 21.7471V23.7782H8.02222C6.4264 23.7782 5.13268 25.0719 5.13268 26.6677C5.13268 28.2635 6.4264 29.5573 8.02222 29.5573H10.0533V31.5883C10.0533 33.1842 11.347 34.4779 12.9428 34.4779C14.5387 34.4779 15.8324 33.1842 15.8324 31.5883V29.5573H17.8635C19.4593 29.5573 20.753 28.2635 20.753 26.6677C20.753 25.0719 19.4593 23.7782 17.8635 23.7782Z" stroke="#EA8529" stroke-width="1.7" stroke-miterlimit="10" stroke-linecap="round" stroke-linejoin="round"/>
<path d="M33.0518 6.15354H35.0829C36.6787 6.15354 37.9724 7.44726 37.9724 9.04308C37.9724 10.6389 36.6787 11.9326 35.0829 11.9326H33.0518V13.9637C33.0518 15.5595 31.7581 16.8532 30.1623 16.8532C28.5665 16.8532 27.2727 15.5595 27.2727 13.9637V11.9326H25.2417C23.6458 11.9326 22.3521 10.6389 22.3521 9.04308C22.3521 7.44726 23.6458 6.15354 25.2417 6.15354H27.2727V4.12245C27.2727 2.52663 28.5665 1.23291 30.1623 1.23291C31.7581 1.23291 33.0518 2.52663 33.0518 4.12245V6.15354Z" stroke="#EA8529" stroke-width="1.7" stroke-miterlimit="10" stroke-linecap="round" stroke-linejoin="round"/>
<path d="M5.13273 10.9288V16.8533M8.09506 13.8912H2.17056" stroke="#EA8529" stroke-width="1.7" stroke-miterlimit="10" stroke-linecap="round"/>
<path d="M52.3487 30.5575V36.482M55.311 33.5198H49.3865" stroke="#EA8529" stroke-width="1.7" stroke-miterlimit="10" stroke-linecap="round"/>
<path d="M44.9936 12.7196V18.6441M47.9559 15.6819H42.0314" stroke="#EA8529" stroke-width="1.7" stroke-miterlimit="10" stroke-linecap="round"/>
</svg>
