<svg width="58" height="58" viewBox="0 0 58 58" fill="none"
    xmlns="http://www.w3.org/2000/svg">
    <path d="M28.7988 28.5898C13.4696 28.5898 0.999817 40.1987 0.999817 54.4741C0.999817 55.7729 2.03235 56.8188 3.31451 56.8188C4.59666 56.8188 5.6292 55.7729 5.6292 54.4741C5.6292 42.7963 16.0226 33.2908 28.7988 33.2908C41.575 33.2908 51.9684 42.7963 51.9684 54.4741C51.9684 55.7729 53.0009 56.8188 54.2831 56.8188C55.5652 56.8188 56.5978 55.7729 56.5978 54.4741C56.5978 40.1987 44.1279 28.5898 28.7988 28.5898Z" fill="#EA8529" stroke="#FFFDFB" />
    <path d="M28.7979 26.9014C36.2526 26.9014 42.323 20.9821 42.323 13.7065C42.323 6.41935 36.2526 0.5 28.7979 0.5C21.3319 0.5 15.2615 6.41935 15.2615 13.695C15.2615 20.9706 21.3319 26.9014 28.7979 26.9014ZM28.7979 5.1895C33.6996 5.1895 37.6936 9.00547 37.6936 13.695C37.6936 18.3845 33.6996 22.2004 28.7979 22.2004C23.8962 22.2004 19.9023 18.3845 19.9023 13.695C19.9023 9.00547 23.8962 5.1895 28.7979 5.1895Z" fill="#EA8529" stroke="#FFFDFB" />
    <path d="M42.5737 44.2816H37.4678V39.2588C37.4678 37.96 36.4353 36.9141 35.1531 36.9141C33.8709 36.9141 32.8384 37.96 32.8384 39.2588V44.2816H27.7325C26.4503 44.2816 25.4178 45.3276 25.4178 46.6264C25.4178 47.9252 26.4503 48.9711 27.7325 48.9711H32.8384V53.994C32.8384 55.2928 33.8709 56.3387 35.1531 56.3387C36.4353 56.3387 37.4678 55.2928 37.4678 53.994V48.9711H42.5737C43.8559 48.9711 44.8884 47.9252 44.8884 46.6264C44.8884 45.3276 43.8445 44.2816 42.5737 44.2816Z" fill="#EA8529" stroke="#FFFDFB" />
</svg>