<svg width="78" height="50" viewBox="0 0 78 50" fill="none" xmlns="http://www.w3.org/2000/svg">
<path d="M14.5331 3.20101C14.1937 3.53418 13.9028 3.65329 13.6604 3.55803C13.4179 3.46278 13.1029 3.51048 12.715 3.70084C12.3271 3.89121 11.9635 3.8675 11.6241 3.62944C11.2848 3.39137 10.9696 3.29626 10.6787 3.34382C10.3878 3.39137 10.0485 3.58188 9.66059 3.91506C9.27268 4.24823 8.95764 4.65295 8.71518 5.12894C8.47272 5.60492 8.35156 5.96194 8.35156 6.20001C8.35156 6.31897 8.35156 6.43807 8.35156 6.55703C8.42429 6.50947 8.49701 6.46178 8.56973 6.41422C8.71518 6.31897 8.93335 5.96194 9.22425 5.34315C9.51514 4.72436 9.78175 4.31964 10.0242 4.12927C10.2667 3.93891 10.509 3.84365 10.7514 3.84365C10.9939 3.84365 11.2121 3.96261 11.406 4.20068C11.5998 4.43874 11.7696 4.5577 11.915 4.5577C12.0605 4.5577 12.2302 4.46244 12.4241 4.27208C12.618 4.08171 12.9574 3.98646 13.4422 3.98646C13.927 3.98646 14.3149 3.84365 14.6058 3.55803C14.8967 3.27241 15.2119 3.17716 15.5512 3.27241C15.8905 3.36767 16.0846 3.72469 16.133 4.34348C16.1814 4.96228 16.036 5.67632 15.6966 6.48562C15.3573 7.29492 15.4058 8.69917 15.8421 10.6985C16.2784 12.6978 16.7391 14.1259 17.2238 14.9828C17.7086 15.8396 18.5813 16.9821 19.8419 18.4102C21.1025 19.8383 22.0963 21.3139 22.8236 22.8373C23.1872 23.5989 23.5508 24.3606 23.9144 25.1222C23.7205 24.4557 23.5265 23.7894 23.3326 23.1229C22.9447 21.7901 22.557 20.838 22.1691 20.2667C21.7811 19.6955 21.0055 18.7911 19.8419 17.5533C18.6783 16.3156 17.8541 15.2445 17.3693 14.3401C16.8845 13.4357 16.4966 12.0313 16.2057 10.1273C15.9148 8.22318 15.9148 7.00931 16.2057 6.48562C16.4966 5.96194 16.6663 5.367 16.7148 4.70051C16.7632 4.03402 16.7148 3.55803 16.5693 3.27241C16.4239 2.9868 16.133 2.82014 15.6966 2.77258C15.2603 2.72503 14.8724 2.86784 14.5331 3.20101Z" fill="#EA8529" stroke="#EA8529" stroke-width="0.8"/>
<path d="M36.7109 4.84272C36.7109 5.22359 36.8564 5.74713 37.1473 6.41362C37.4382 7.08012 37.9957 7.96068 38.8199 9.0556C39.6442 10.1505 40.4198 11.0549 41.1471 11.769C41.8743 12.483 42.5288 13.3637 43.1106 14.4109C43.4015 14.9346 43.6924 15.4582 43.9833 15.9818C44.0076 15.8152 44.0317 15.6487 44.056 15.482C44.1045 15.1488 44.0317 14.6727 43.8379 14.0539C43.644 13.4351 43.0136 12.5306 41.947 11.3405C41.4137 10.7455 40.8805 10.1505 40.3471 9.55543C40.541 9.50787 40.735 9.46018 40.9289 9.41262C41.3168 9.31737 41.5591 9.19841 41.6561 9.0556C41.7046 8.98419 41.7532 8.91279 41.8016 8.84138C41.4864 8.86523 41.1714 8.88894 40.8562 8.91279C40.226 8.96034 39.6199 8.65102 39.0381 7.98453C38.4563 7.31804 37.9229 6.53258 37.4382 5.62817C37.1957 5.1759 36.9534 4.72376 36.7109 4.27148C36.7109 4.46185 36.7109 4.65236 36.7109 4.84272Z" fill="#EA8529" stroke="#EA8529" stroke-width="0.8"/>
<path d="M7.19869 8.13045C6.89413 8.16187 6.59989 8.2357 6.31568 8.35195C6.01344 8.47562 5.72269 8.64742 5.44358 8.86735C4.90208 9.29378 4.56653 9.63495 4.4368 9.89058C4.37193 10.0184 4.30706 10.1462 4.24219 10.274C4.28553 10.2953 4.32887 10.3164 4.37236 10.3377C4.45905 10.3801 4.84899 10.0922 5.5419 9.47386C6.23496 8.85564 6.89573 8.51404 7.52435 8.44934C7.83881 8.41707 8.15312 8.38465 8.46743 8.35223C8.41318 8.29911 8.35892 8.24598 8.30453 8.19286C8.19602 8.08661 7.82746 8.06576 7.19869 8.13045Z" fill="#EA8529" stroke="#EA8529" stroke-width="0.8"/>
<path d="M10.0851 8.25986C9.97558 8.31085 9.69225 8.28571 9.58272 8.33669C9.82882 8.49093 10.4748 8.84881 10.7207 9.00319C11.2128 9.31166 11.5612 9.73423 11.7663 10.2709C11.9714 10.8076 12.0275 11.2134 11.9348 11.4882C11.8884 11.6257 11.8084 11.786 11.9692 11.8134C12.1301 11.8408 12.1363 11.8337 12.2335 11.8569C12.4277 11.9036 12.6717 11.8817 13.0445 12.2624C13.1395 12.3593 13.1308 12.7999 12.5353 13.2546C11.7173 13.879 10.8612 13.6141 9.84918 14.2741C8.83702 14.9341 9.14435 15.8178 9.58258 15.6141C10.0208 15.4105 9.69123 15.1995 10.1996 14.7631C10.708 14.3267 12.7882 13.6752 13.1641 13.2365C13.7044 12.6056 13.5347 12.3491 13.5393 12.1361C13.544 11.9234 13.2025 11.6195 12.5344 11.4595C12.2014 11.3798 12.1134 11.2579 12.2062 10.983C12.299 10.708 12.2946 10.4099 12.1932 10.0884C12.0918 9.76679 11.8076 9.37749 11.3406 8.9205C10.8736 8.46337 10.3043 8.15804 10.0851 8.25986Z" fill="#EA8529" stroke="#EA8529" stroke-width="0.8"/>
<path d="M54.3125 9.91138C54.3125 10.8158 54.3609 11.3633 54.4579 11.5537C54.555 11.744 54.6761 11.8393 54.8216 11.8393C54.8943 11.8393 54.967 11.8393 55.0397 11.8393C54.967 11.2919 54.8943 10.7444 54.8216 10.197C54.6761 9.10208 54.555 8.55469 54.4579 8.55469C54.4095 8.55469 54.3609 8.55469 54.3125 8.55469C54.3125 9.00696 54.3125 9.4591 54.3125 9.91138Z" fill="#EA8529" stroke="#EA8529" stroke-width="0.8"/>
<path d="M23.9837 10.985C21.9959 12.0322 20.6868 12.8653 20.0566 13.4841C19.4264 14.1029 19.0628 14.6505 18.9658 15.1264C18.9173 15.3645 18.8687 15.6024 18.8203 15.8405C18.8687 15.8405 18.9173 15.8405 18.9658 15.8405C19.0628 15.8405 19.1596 15.6738 19.2567 15.3406C19.3537 15.0075 19.7173 14.5313 20.3475 13.9126C20.9777 13.2938 21.6565 12.7462 22.3838 12.2702C23.111 11.7943 24.008 11.342 25.0745 10.9136C26.1411 10.4851 26.7715 10.1995 26.9654 10.0567C27.1592 9.9139 27.2563 9.77109 27.2563 9.62828C27.2563 9.55687 27.2563 9.48547 27.2563 9.41406C27.2078 9.41406 27.1592 9.41406 27.1108 9.41406C27.0138 9.41406 25.9715 9.93774 23.9837 10.985Z" fill="#EA8529" stroke="#EA8529" stroke-width="0.8"/>
<path d="M23.9837 10.985C21.9959 12.0322 20.6868 12.8653 20.0566 13.4841C19.4264 14.1029 19.0628 14.6505 18.9658 15.1264C18.9173 15.3645 18.8687 15.6024 18.8203 15.8405C18.8687 15.8405 18.9173 15.8405 18.9658 15.8405C19.0628 15.8405 19.1596 15.6738 19.2567 15.3406C19.3537 15.0075 19.7173 14.5313 20.3475 13.9126C20.9777 13.2938 21.6565 12.7462 22.3838 12.2702C23.111 11.7943 24.008 11.342 25.0745 10.9136C26.1411 10.4851 26.7715 10.1995 26.9654 10.0567C27.1592 9.9139 27.2563 9.77109 27.2563 9.62828C27.2563 9.55687 27.2563 9.48547 27.2563 9.41406C27.2078 9.41406 27.1592 9.41406 27.1108 9.41406C27.0138 9.41406 25.9715 9.93774 23.9837 10.985Z" fill="#EA8529" stroke="#EA8529" stroke-width="0.8"/>
<path d="M1.44016 10.8418C1.1977 11.0321 1.05225 11.3177 1.00382 11.6986C0.955387 12.0795 1.36744 13.3648 2.24012 15.5545C3.11281 17.7442 3.64616 19.6007 3.84004 21.124C4.03392 22.6474 4.54299 24.0041 5.36724 25.1941C6.19149 26.3841 6.87014 27.6694 7.4035 29.0499C7.93685 30.4305 8.59137 31.7872 9.36704 33.12C10.1427 34.4528 10.7004 35.286 11.0397 35.6192C11.379 35.9523 12.2275 36.5474 13.585 37.4043C14.2638 37.8327 14.9425 38.2611 15.6213 38.6896C15.6456 38.6182 15.6697 38.5468 15.694 38.4754C15.7424 38.3325 15.1365 37.8566 13.8759 37.0473C12.6153 36.238 11.8154 35.6667 11.476 35.3336C11.1367 35.0004 10.5306 34.0721 9.65793 32.5488C8.78525 31.0254 8.0823 29.5973 7.54895 28.2645C7.01559 26.9317 6.40966 25.8129 5.73086 24.9085C5.05205 24.0041 4.56728 22.6474 4.27638 20.8384C3.98549 19.0294 3.42799 17.1968 2.60374 15.3402C1.77949 13.4837 1.36744 12.3413 1.36744 11.9128C1.36744 11.4844 1.46445 11.2226 1.65833 11.1274C1.75535 11.0798 1.85221 11.0321 1.94923 10.9846C2.09467 11.3177 2.24012 11.6511 2.38557 11.9842C2.67646 12.6507 2.82191 13.1981 2.82191 13.6265C2.82191 14.055 2.77348 14.3167 2.67646 14.412C2.62803 14.4595 2.57945 14.5072 2.53102 14.5548C2.57945 14.6024 2.62803 14.65 2.67646 14.6976C2.7249 14.7452 2.77348 14.7929 2.82191 14.8404C2.89463 14.769 2.96736 14.6976 3.04008 14.6262C3.18553 14.4834 3.25825 14.1739 3.25825 13.6979C3.25825 13.222 3.08852 12.6507 2.74919 11.9842C2.57945 11.6511 2.40986 11.3177 2.24012 10.9846C2.38557 11.0798 2.53102 11.1749 2.67646 11.2702C2.96736 11.4605 3.16124 11.5082 3.25825 11.413C3.30669 11.3654 3.35527 11.3177 3.4037 11.2702C3.28254 11.1749 3.16124 11.0798 3.04008 10.9846C2.79762 10.7942 2.53102 10.6751 2.24012 10.6275C1.94923 10.58 1.68262 10.6514 1.44016 10.8418Z" fill="#EA8529" stroke="#EA8529" stroke-width="0.8"/>
<path d="M4.19329 11.4166C4.09016 11.4255 3.9962 11.4478 3.91141 11.4835C3.57208 11.6263 3.40234 11.8881 3.40234 12.269C3.40234 12.6499 3.6448 13.6257 4.12958 15.1966C4.61436 16.7675 4.97797 18.3384 5.22043 19.9093C5.46289 21.4802 5.89924 22.9083 6.52946 24.1936C7.15968 25.4788 7.76576 26.5024 8.34755 27.264C8.92934 28.0256 9.31725 28.6445 9.51113 29.1205C9.70501 29.5965 9.87475 29.8584 10.0202 29.9059C10.0929 29.9298 10.1656 29.9535 10.2384 29.9773C10.1899 29.787 10.1414 29.5965 10.0929 29.4061C9.9959 29.0252 9.65658 28.454 9.07479 27.6924C8.493 26.9308 7.83848 25.8359 7.11125 24.4078C6.38401 22.9797 5.89924 21.5277 5.65678 20.0521C5.41432 18.5764 5.14771 17.434 4.85682 16.6247C4.56592 15.8154 4.4932 15.2918 4.63865 15.0538C4.78409 14.8157 4.78409 14.2445 4.63865 13.34C4.4932 12.4356 4.42047 11.912 4.42047 11.7691C4.42047 11.6977 4.42047 11.6263 4.42047 11.5549C4.46891 11.5549 4.51749 11.5549 4.56592 11.5549C4.66294 11.5549 5.07499 11.8167 5.80222 12.3404C6.52946 12.8641 7.11125 13.4829 7.54759 14.1969C7.98393 14.911 8.37184 15.6726 8.71117 16.4819C9.0505 17.2912 9.38997 18.3384 9.7293 19.6237C10.0686 20.9089 10.6504 22.1228 11.4747 23.2653C12.2989 24.4078 12.9534 25.5502 13.4382 26.6927C13.923 27.8352 14.5048 28.6921 15.1836 29.2633C15.8624 29.8345 16.4683 30.263 17.0017 30.5486C17.535 30.8342 17.9955 31.1674 18.3834 31.5482C18.7713 31.9291 19.0864 32.3812 19.3288 32.9049C19.5713 33.4286 19.7894 33.7379 19.9833 33.8332C20.0803 33.8807 20.1772 33.9284 20.2742 33.976C20.1288 33.619 19.9833 33.2619 19.8379 32.9049C19.547 32.1909 19.1591 31.6196 18.6743 31.1912C18.1895 30.7628 17.438 30.2391 16.4199 29.6203C15.4017 29.0015 14.6261 28.097 14.0927 26.9069C13.5594 25.7169 12.8564 24.503 11.9837 23.2653C11.111 22.0276 10.5293 20.8375 10.2384 19.6951C9.94747 18.5526 9.46269 17.2673 8.78389 15.8392C8.10509 14.4111 7.5233 13.4353 7.03852 12.9116C6.55375 12.3879 5.9961 11.9834 5.36588 11.6977C4.89318 11.4835 4.50236 11.3898 4.19329 11.4166ZM3.83869 11.6977C3.88712 11.7216 3.9357 11.7453 3.98413 11.7691C4.08115 11.8167 4.17801 12.269 4.27503 13.1258C4.32346 13.5543 4.37204 13.9827 4.42047 14.4111C4.37204 14.4111 4.32346 14.4111 4.27503 14.4111C4.17801 14.4111 4.05686 14.1255 3.91141 13.5543C3.76596 12.983 3.71753 12.5307 3.76596 12.1976C3.79025 12.0309 3.8144 11.8644 3.83869 11.6977Z" fill="#EA8529" stroke="#EA8529" stroke-width="0.8"/>
<path d="M47.7656 15.267C47.7656 15.8382 47.9111 16.3381 48.202 16.7665C48.4929 17.1949 48.6383 17.7186 48.6383 18.3374C48.6383 18.9562 48.8565 19.5037 49.2928 19.9797C49.511 20.2178 49.7292 20.4557 49.9473 20.6938C49.8989 20.5271 49.8503 20.3606 49.8019 20.1939C49.7049 19.8608 49.5353 19.5513 49.2928 19.2657C49.0504 18.9801 48.9292 18.5755 48.9292 18.0518C48.9292 17.5281 48.7838 17.0521 48.4929 16.6237C48.202 16.1953 48.0081 15.7193 47.9111 15.1956C47.8626 14.9338 47.8141 14.6719 47.7656 14.4102C47.7656 14.6958 47.7656 14.9814 47.7656 15.267Z" fill="#EA8529" stroke="#EA8529" stroke-width="0.8"/>
<path d="M10.3587 15.6732C10.2876 15.9502 10.2986 16.2966 10.3917 16.7125C10.4849 17.1282 10.6544 17.6366 10.9 18.2374C11.1457 18.8383 11.4094 19.2718 11.6911 19.538C11.8319 19.6709 11.9727 19.804 12.1136 19.9371C11.9032 19.2959 11.6929 18.6547 11.4826 18.0135C11.0619 16.731 10.8577 15.9687 10.8701 15.7262C10.8823 15.4839 10.8179 15.3452 10.6769 15.3102C10.6064 15.2928 10.5358 15.2752 10.4653 15.2578C10.4298 15.3963 10.3942 15.5349 10.3587 15.6732Z" fill="#EA8529" stroke="#EA8529" stroke-width="0.8"/>
<path d="M51.0385 15.6965C51.1839 16.1725 51.2324 16.6723 51.1839 17.196C51.1355 17.7196 51.2324 18.1242 51.4748 18.4098C51.7173 18.6955 52.0323 18.9335 52.4202 19.1239C52.6141 19.2191 52.8081 19.3143 53.002 19.4095C53.002 19.3143 53.002 19.2191 53.002 19.1239C53.002 18.9335 52.7596 18.6716 52.2748 18.3384C51.79 18.0053 51.5718 17.553 51.6203 16.9818C51.6687 16.4105 51.6446 15.9821 51.5475 15.6965C51.4505 15.4108 51.3051 15.2205 51.1112 15.1252C51.0142 15.0777 50.9173 15.03 50.8203 14.9824C50.893 15.2205 50.9658 15.4584 51.0385 15.6965Z" fill="#EA8529" stroke="#EA8529" stroke-width="0.8"/>
<path d="M57.0003 19.1956C56.9518 19.7193 57.1214 20.2428 57.5093 20.7665C57.8972 21.2902 58.1638 21.5758 58.3093 21.6234C58.382 21.6472 58.4547 21.6709 58.5275 21.6948C58.479 21.5044 58.4304 21.3139 58.382 21.1235C58.285 20.7427 58.0911 20.4333 57.8002 20.1953C57.5093 19.9572 57.3639 19.6002 57.3639 19.1242C57.3639 18.8861 57.3639 18.6482 57.3639 18.4102C57.3154 18.4102 57.2669 18.4102 57.2184 18.4102C57.1214 18.4102 57.0487 18.6719 57.0003 19.1956Z" fill="#EA8529" stroke="#EA8529" stroke-width="0.8"/>
<path d="M39.4744 20.695C39.1835 21.3615 38.8442 21.9327 38.4563 22.4087C38.0684 22.8847 37.7291 23.1466 37.4382 23.1941C37.1473 23.2417 36.9534 23.1466 36.8564 22.9085C36.808 22.7896 36.7594 22.6705 36.7109 22.5515C36.7352 22.7182 36.7594 22.8847 36.7837 23.0513C36.8321 23.3845 37.0261 23.5512 37.3655 23.5512C37.7048 23.5512 38.02 23.4322 38.3109 23.1941C38.6018 22.9561 38.9654 22.4325 39.4017 21.6232C39.8381 20.8139 40.0319 20.2904 39.9835 20.0523C39.9592 19.9334 39.9351 19.8143 39.9108 19.6953C39.7653 20.0285 39.6199 20.3618 39.4744 20.695Z" fill="#EA8529" stroke="#EA8529" stroke-width="0.8"/>
<path d="M12.6377 20.338C12.0075 20.6712 11.668 21.0759 11.6196 21.5519C11.5953 21.7899 11.5712 22.0279 11.5469 22.2659C11.6196 22.0756 11.6923 21.885 11.765 21.6947C11.9105 21.3138 12.153 21.0045 12.4923 20.7664C12.8316 20.5284 13.2438 20.3855 13.7286 20.338C14.2134 20.2904 14.6256 20.338 14.9649 20.4808C15.3042 20.6236 16.3466 21.6471 18.092 23.5512C19.8374 25.4553 21.0737 26.6454 21.8009 27.1214C22.5281 27.5974 23.4008 28.0021 24.419 28.3353C25.4371 28.6685 26.4795 29.2874 27.5461 30.1918C28.6126 31.0962 29.5823 32.0959 30.455 33.1908C31.3277 34.2857 31.9822 35.4282 32.4186 36.6183C32.8549 37.8083 33.1701 38.4509 33.364 38.5462C33.461 38.5937 33.5578 38.6414 33.6549 38.689C33.5578 38.2844 33.461 37.8797 33.364 37.4751C33.1701 36.6658 32.9276 35.9756 32.6367 35.4044C32.3458 34.8331 31.5702 33.8096 30.3096 32.334C29.049 30.8583 28.0551 29.8348 27.3279 29.2636C26.6007 28.6923 25.5582 28.1449 24.2008 27.6213C22.8433 27.0976 21.5827 26.3121 20.4192 25.2649C19.2556 24.2177 18.2859 23.218 17.5102 22.2659C16.7345 21.3138 16.1769 20.7189 15.8376 20.4808C15.4982 20.2427 15.0376 20.0762 14.4558 19.981C13.874 19.8857 13.268 20.0048 12.6377 20.338Z" fill="#EA8529" stroke="#EA8529" stroke-width="0.8"/>
<path d="M41.0003 21.3372C40.3701 22.2416 39.9094 22.8128 39.6185 23.0509C39.3276 23.2889 39.0125 23.4317 38.6731 23.4793C38.5034 23.5031 38.3338 23.5269 38.1641 23.5507C38.1884 23.5983 38.2125 23.646 38.2368 23.6935C38.2852 23.7888 38.4792 23.8125 38.8186 23.7649C39.1579 23.7174 39.4974 23.5507 39.8367 23.2651C40.176 22.9795 40.6367 22.4558 41.2185 21.6942C41.8002 20.9326 42.1154 20.4565 42.1639 20.2661C42.1882 20.1708 42.2123 20.0757 42.2366 19.9805C42.1882 19.9805 42.1396 19.9805 42.0911 19.9805C41.9941 19.9805 41.6305 20.4327 41.0003 21.3372Z" fill="#EA8529" stroke="#EA8529" stroke-width="0.8"/>
<path d="M29.1706 18.7099C29.1549 17.9524 29.0976 17.4523 28.9987 17.2097C28.9 16.9671 28.7342 16.7728 28.5013 16.6269C28.3849 16.5539 28.046 16.3587 27.9297 16.2857C27.9723 16.2657 28.1137 16.2646 28.1564 16.2446C28.2417 16.2047 28.5246 16.3611 28.7573 16.5071C28.9901 16.6529 29.1621 16.8698 29.2733 17.1576C29.3846 17.4453 29.4662 17.917 29.5181 18.5725C29.57 19.2282 29.5657 19.621 29.5052 19.7513C29.4751 19.8165 29.4448 19.8817 29.4146 19.9468C29.3778 19.9299 29.3411 19.9132 29.3043 19.8964C29.2309 19.8628 29.1864 19.4674 29.1706 18.7099Z" fill="#EA8529" stroke="#EA8529" stroke-width="0.8"/>
<path d="M30.7486 21.9793C30.5547 23.1218 30.5062 23.812 30.6032 24.0501C30.7002 24.2881 30.9668 24.5738 31.4031 24.9069C31.8395 25.2401 32.1788 25.5971 32.4213 25.978C32.6637 26.3589 32.9788 26.9538 33.3667 27.7631C33.7546 28.5724 34.0455 29.3816 34.2394 30.1909C34.3364 30.5955 34.4332 31.0002 34.5303 31.4048C34.6514 31.3572 34.7727 31.3095 34.8939 31.2619C35.1363 31.1667 35.3545 30.9288 35.5484 30.5479C35.7423 30.167 36.1545 29.8577 36.7847 29.6196C37.4149 29.3816 38.433 29.1198 39.8391 28.8342C41.2451 28.5486 42.6753 28.3344 44.1298 28.1915C45.5842 28.0487 46.3115 27.9298 46.3115 27.8345C46.3115 27.787 46.3115 27.7393 46.3115 27.6917C46.1417 27.6917 45.9722 27.6917 45.8024 27.6917C45.4631 27.6917 44.1541 27.8821 41.8753 28.2629C39.5966 28.6438 38.0694 28.9531 37.2938 29.1912C36.5181 29.4293 35.912 29.7149 35.4757 30.0481C35.2575 30.2147 35.0393 30.3812 34.8212 30.5479C34.603 29.9291 34.3848 29.3102 34.1666 28.6914C33.7303 27.4536 33.3424 26.5731 33.0031 26.0494C32.6637 25.5257 32.2515 25.0497 31.7668 24.6213C31.282 24.1929 31.0395 23.3599 31.0395 22.1221C31.0395 21.5034 31.0395 20.8844 31.0395 20.2656C30.9425 20.8369 30.8456 21.4081 30.7486 21.9793Z" fill="#EA8529" stroke="#EA8529" stroke-width="0.8"/>
<path d="M44.8543 21.2663C44.5634 21.7423 44.2968 22.3612 44.0543 23.1228C43.8118 23.8844 43.5937 24.3367 43.3998 24.4795C43.2059 24.6223 42.9877 24.6937 42.7453 24.6937C42.5028 24.6937 42.3089 24.6223 42.1635 24.4795C42.0908 24.4081 42.018 24.3367 41.9453 24.2653C41.9453 24.3606 41.9453 24.4557 41.9453 24.5509C41.9453 24.7413 42.1635 24.8604 42.5998 24.9079C43.0362 24.9555 43.3998 24.8604 43.6907 24.6223C43.9816 24.3843 44.3695 23.6702 44.8543 22.4802C45.339 21.2902 45.5331 20.6712 45.436 20.6237C45.339 20.5761 45.1452 20.7903 44.8543 21.2663Z" fill="#EA8529" stroke="#EA8529" stroke-width="0.8"/>
<path d="M30.8907 20.2794C30.9371 19.6518 31.0808 19.1637 30.9755 18.9834C30.87 18.8034 30.7243 18.6623 30.5381 18.5603C30.3519 18.4583 30.1812 18.4259 30.026 18.4633C29.9483 18.482 29.8706 18.5006 29.793 18.5193C29.8221 18.4536 29.8511 18.3879 29.8801 18.3222C29.9383 18.1909 30.1422 18.2006 30.4918 18.3512C30.8415 18.502 31.0917 18.7207 31.2423 19.0073C31.3932 19.2941 31.3351 19.8136 31.2236 20.6626C31.1366 21.3248 31.0207 21.951 30.8941 21.5105C30.8262 21.2745 30.8745 20.4984 30.8907 20.2794Z" fill="#EA8529" stroke="#EA8529" stroke-width="0.8"/>
<path d="M43.5449 21.4094C43.3511 21.8853 43.0359 22.3852 42.5995 22.9089C42.1632 23.4325 41.6784 23.8371 41.1451 24.1227C40.6117 24.4084 40.1997 24.5273 39.9088 24.4798C39.6179 24.4322 39.424 24.3369 39.327 24.1941C39.23 24.0513 39.1331 23.9799 39.0361 23.9799C38.9876 23.9799 38.9391 23.9799 38.8906 23.9799C38.9149 24.0513 38.9391 24.1227 38.9633 24.1941C39.0118 24.3369 39.2785 24.4798 39.7633 24.6226C40.2481 24.7654 40.7571 24.694 41.2905 24.4084C41.8239 24.1227 42.3086 23.7182 42.745 23.1945C43.1813 22.6708 43.5206 22.1473 43.7631 21.6236C44.0056 21.0999 44.0783 20.8143 43.9813 20.7667C43.9328 20.7429 43.8843 20.7192 43.8358 20.6953C43.7388 20.9334 43.6419 21.1713 43.5449 21.4094Z" fill="#EA8529" stroke="#EA8529" stroke-width="0.8"/>
<path d="M13.9505 21.9801C14.2898 22.6466 14.4352 23.1226 14.3868 23.4082C14.3384 23.6938 14.2414 23.9081 14.0959 24.0509C13.9505 24.1937 13.8777 24.3365 13.8777 24.4793C13.8777 24.5507 13.8777 24.6221 13.8777 24.6935C13.9262 24.6935 13.9748 24.6935 14.0232 24.6935C14.1202 24.6935 14.2657 24.5746 14.4595 24.3365C14.6534 24.0984 14.7747 23.8128 14.8232 23.4796C14.8716 23.1465 14.7989 22.7656 14.605 22.3372C14.4111 21.9087 14.1686 21.5756 13.8777 21.3375C13.7323 21.2185 13.5869 21.0994 13.4414 20.9805C13.6111 21.3136 13.7807 21.647 13.9505 21.9801Z" fill="#EA8529" stroke="#EA8529" stroke-width="0.8"/>
<path d="M25.3165 1.00041C24.4166 0.991415 23.1485 1.1298 21.5122 1.41542C19.3305 1.79629 18.0215 2.08191 17.5851 2.27227C17.1488 2.46264 16.9063 2.65314 16.8579 2.84351C16.8336 2.93876 16.8094 3.03387 16.7852 3.12913C17.1245 2.98632 17.464 2.84351 17.8033 2.7007C18.4821 2.41508 19.6941 2.15331 21.4395 1.91525C23.1848 1.67718 24.3727 1.55822 25.0029 1.55822C25.6331 1.55822 26.3847 1.72488 27.2574 2.05806C28.13 2.39123 28.5907 2.60545 28.6391 2.7007C28.6634 2.74826 28.6875 2.79595 28.7118 2.84351C28.4937 2.93876 28.2755 3.03387 28.0573 3.12913C27.621 3.31949 27.524 4.22405 27.7664 5.8425C28.0089 7.46096 28.5421 8.74625 29.3663 9.69836C30.1906 10.6505 31.451 11.6977 33.148 12.8402C34.8449 13.9826 35.7417 14.887 35.8387 15.5535C35.9358 16.22 36.1296 16.9578 36.4205 17.7671C36.7114 18.5764 36.8569 19.5046 36.8569 20.5519C36.8569 21.0755 36.8569 21.5991 36.8569 22.1228C36.9539 21.7896 37.0508 21.4563 37.1478 21.1231C37.3416 20.4566 37.4387 19.8617 37.4387 19.338C37.4387 18.8143 37.2448 18.0289 36.8569 16.9816C36.469 15.9344 36.2508 15.1013 36.2024 14.4825C36.1539 13.8637 36.0569 13.5067 35.9115 13.4114C35.8387 13.3638 35.766 13.3161 35.6933 13.2686C35.669 13.3638 35.6449 13.459 35.6206 13.5542C35.5963 13.6495 35.5721 13.7446 35.5478 13.8398C35.2085 13.6256 34.869 13.4114 34.5297 13.1972C33.8509 12.7688 33.051 12.2214 32.1298 11.5549C31.2087 10.8884 30.4329 10.222 29.8027 9.55555C29.1725 8.88906 28.7603 8.31782 28.5664 7.84183C28.3725 7.36585 28.2028 6.55655 28.0573 5.41408C27.9119 4.2716 28.4937 3.4623 29.8027 2.98632C31.1117 2.51033 33.3177 2.46264 36.4205 2.84351C39.5234 3.22438 41.7778 3.65281 43.1838 4.12879C44.5899 4.60478 45.5594 5.15231 46.0928 5.7711C46.6261 6.38989 46.9655 7.00883 47.1109 7.62762C47.2563 8.24641 47.1593 8.69869 46.82 8.98431C46.4807 9.26993 46.1655 9.96012 45.8746 11.055C45.5837 12.15 45.3898 13.7446 45.2928 15.8392C45.1958 17.9337 45.4625 19.576 46.0928 20.7661C46.723 21.9561 47.4261 22.9796 48.2018 23.8365C48.9774 24.6933 49.6805 25.2884 50.3107 25.6216C50.941 25.9548 51.2561 26.2642 51.2561 26.5499C51.2561 26.8355 51.038 27.3829 50.6016 28.1922C50.1653 29.0015 49.341 29.7155 48.129 30.3343C46.917 30.9531 45.0262 32.3098 42.4566 34.4044C39.887 36.499 38.5779 37.6414 38.5295 37.8318C38.5052 37.927 38.4811 38.0222 38.4568 38.1174C38.6507 38.046 38.8447 37.9746 39.0386 37.9032C39.4265 37.7604 39.6931 37.57 39.8385 37.332C39.984 37.0939 40.1779 36.9274 40.4203 36.8321C40.6628 36.7369 41.0991 36.3798 41.7294 35.7611C42.3596 35.1423 43.3777 34.2854 44.7837 33.1905C46.1898 32.0956 47.2563 31.334 47.9836 30.9055C48.7108 30.4771 49.5351 30.1201 50.4562 29.8345C51.3773 29.5489 52.0561 29.4536 52.4925 29.5489C52.9288 29.6441 53.7045 29.6678 54.8196 29.6203C55.9347 29.5727 56.977 29.2871 57.9467 28.7634C58.9164 28.2397 59.6678 27.6448 60.2012 26.9783C60.7345 26.3118 61.3163 25.7169 61.9465 25.1932C62.5767 24.6695 63.3767 24.1697 64.3464 23.6937C65.3161 23.2177 65.9948 23.0035 66.3827 23.051C66.5765 23.0749 66.7706 23.0986 66.9644 23.1224C66.7463 23.2891 66.5281 23.4556 66.3099 23.6223C65.8736 23.9554 65.51 24.3125 65.2191 24.6933C64.9282 25.0742 64.7584 25.4074 64.71 25.693C64.6616 25.9786 64.71 26.2167 64.8555 26.407C65.0009 26.5974 65.2918 26.7402 65.7281 26.8355C66.1645 26.9307 66.3827 27.0497 66.3827 27.1925C66.3827 27.3353 66.0433 27.9304 65.3645 28.9776C64.6857 30.0248 63.8373 30.8817 62.8192 31.5482C61.8011 32.2147 61.195 32.6907 61.0011 32.9763C60.9041 33.1191 60.8072 33.2619 60.7102 33.4047C61.0011 33.2619 61.292 33.1191 61.5829 32.9763C62.1647 32.6907 62.8435 32.2384 63.6192 31.6196C64.3948 31.0008 65.2918 29.9534 66.3099 28.4778C67.3281 27.0021 67.9341 26.2881 68.128 26.3356C68.3219 26.3832 68.9037 26.1214 69.8734 25.5502C70.8431 24.979 71.6672 24.3125 72.346 23.5509C73.0248 22.7893 73.4126 22.4322 73.5096 22.4798C73.6066 22.5273 73.655 22.694 73.655 22.9796C73.655 23.2652 73.1944 24.4553 72.2733 26.5499C71.3522 28.6444 69.6068 30.7152 67.0372 32.7621C64.4676 34.8089 62.2617 36.2133 60.4193 36.9749C58.5769 37.7365 57.2679 38.3078 56.4922 38.6886C55.7166 39.0695 55.2559 39.3551 55.1105 39.5455C55.0378 39.6408 54.9651 39.7359 54.8923 39.8311C56.2984 39.236 57.7043 38.6411 59.1103 38.046C61.9222 36.856 64.4434 35.4279 66.6736 33.7617C68.9037 32.0956 70.2613 31.0008 70.7461 30.4771C71.2309 29.9534 71.9097 28.6681 72.7823 26.6213C73.655 24.5744 74.1157 23.3842 74.1641 23.051C74.2125 22.7179 74.1884 22.4322 74.0914 22.1942C73.9944 21.9561 74.2125 21.5515 74.7459 20.9803C75.2792 20.4091 75.7156 19.7903 76.0549 19.1238C76.3942 18.4573 76.6367 17.9099 76.7821 17.4815C76.9276 17.053 77.0003 16.3628 77.0003 15.4107C77.0003 14.4586 76.9033 13.459 76.7094 12.4117C76.5155 11.3645 76.2003 10.2934 75.764 9.19852C75.3277 8.1036 74.358 6.81832 72.8551 5.34267C71.3522 3.86702 70.1886 2.91491 69.3643 2.48649C68.5401 2.05806 67.7887 1.74859 67.1099 1.55822C66.4311 1.36786 65.6311 1.24876 64.71 1.2012C63.7889 1.15365 62.9646 1.17735 62.2374 1.27261C61.5102 1.36786 60.6859 1.55822 59.7648 1.84384C58.8437 2.12946 57.8256 2.58174 56.7104 3.20053C55.5953 3.81932 54.6742 4.24775 53.9469 4.48582C53.2197 4.72388 52.0077 5.34267 50.3107 6.34234C49.4623 6.84217 48.6138 7.342 47.7654 7.84183C47.717 7.60377 47.6684 7.36585 47.62 7.12779C47.523 6.6518 47.2806 6.15197 46.8927 5.62829C46.5048 5.10461 45.7049 4.58107 44.4929 4.05739C43.2808 3.53371 41.0506 3.01017 37.8023 2.48649C34.554 1.9628 32.3237 1.81999 31.1117 2.05806C29.8997 2.29612 28.9784 2.22472 28.3482 1.84384C27.718 1.46297 26.9665 1.2012 26.0938 1.05839C25.8756 1.02269 25.6166 1.00341 25.3165 1.00041ZM64.7827 1.48682C65.8493 1.53438 66.916 1.77244 67.9826 2.20087C69.0491 2.62929 69.9946 3.15298 70.8188 3.77177C71.6431 4.39056 72.249 4.98565 72.6369 5.55689C73.0248 6.12812 73.4611 6.62796 73.9459 7.05638C74.4307 7.48481 74.8913 8.31782 75.3277 9.55555C75.764 10.7933 76.0549 11.9357 76.2003 12.983C76.3458 14.0302 76.4185 14.8395 76.4185 15.4107C76.4185 15.982 76.2246 16.7913 75.8367 17.8385C75.4488 18.8857 75.0125 19.7903 74.5277 20.5519C74.0429 21.3135 73.3641 22.1466 72.4914 23.051C71.6188 23.9554 70.7461 24.6458 69.8734 25.1218C69.0007 25.5977 68.5159 25.7883 68.4189 25.693C68.3219 25.5977 68.3705 25.2884 68.5644 24.7647C68.7582 24.2411 68.7825 23.8365 68.6371 23.5509C68.4916 23.2652 68.225 23.0272 67.8371 22.8368C67.4492 22.6465 66.9887 22.5512 66.4554 22.5512C65.922 22.5512 65.0009 22.9082 63.6919 23.6223C62.3829 24.3363 61.2193 25.217 60.2012 26.2642C59.183 27.3115 58.0679 28.0494 56.8559 28.4778C55.6439 28.9062 54.2621 29.1204 52.7106 29.1204C51.935 29.1204 51.1591 29.1204 50.3835 29.1204C50.6259 28.7873 50.8682 28.4539 51.1107 28.1208C51.5955 27.4543 51.8379 26.9783 51.8379 26.6927C51.8379 26.5499 51.8379 26.407 51.8379 26.2642C52.1531 26.3595 52.4682 26.4546 52.7833 26.5499C53.4136 26.7402 54.2135 26.8355 55.1832 26.8355C56.1529 26.8355 56.9043 26.7879 57.4377 26.6927C57.971 26.5974 58.2376 26.5023 58.2376 26.407C58.2376 26.3595 58.2376 26.3118 58.2376 26.2642C57.4377 26.2642 56.6377 26.2642 55.8377 26.2642C54.2378 26.2642 53.0742 26.169 52.347 25.9786C51.6198 25.7883 50.8198 25.3598 49.9471 24.6933C49.0744 24.0268 48.3472 23.3128 47.7654 22.5512C47.1836 21.7896 46.6746 20.9564 46.2382 20.052C45.8019 19.1476 45.5837 18.3859 45.5837 17.7671C45.5837 17.1483 45.6321 16.339 45.7292 15.3393C45.8262 14.3397 46.0443 13.1019 46.3837 11.6263C46.723 10.1506 47.0625 9.22237 47.4018 8.8415C47.7411 8.46063 48.2018 8.0799 48.7835 7.69903C49.3653 7.31815 51.1591 6.36619 54.1651 4.84284C57.1711 3.31949 59.4255 2.36753 60.9284 1.98665C62.4313 1.60578 63.7162 1.43926 64.7827 1.48682ZM67.6417 23.3054C67.9325 23.3531 68.1266 23.6148 68.2234 24.0908C68.3205 24.5669 68.1507 25.1143 67.7144 25.7331C67.278 26.3521 66.8417 26.6614 66.4053 26.6614C65.969 26.6614 65.654 26.5663 65.4599 26.3758C65.2661 26.1854 65.169 25.995 65.169 25.8045C65.169 25.6142 65.5085 25.1382 66.1872 24.3764C66.866 23.6148 67.3508 23.2578 67.6417 23.3054Z" fill="#EA8529" stroke="#EA8529" stroke-width="0.8"/>
<path d="M35.9837 40.3609C35.8867 40.599 35.8625 41.2892 35.9109 42.4317C35.9594 43.5741 36.0321 44.1929 36.1291 44.2882C36.1776 44.3357 36.2261 44.3834 36.2746 44.431C36.2989 43.6931 36.323 42.9553 36.3473 42.2175C36.3716 41.4796 36.3957 40.7418 36.42 40.0039C36.3716 40.0039 36.323 40.0039 36.2746 40.0039C36.1776 40.0039 36.0807 40.1229 35.9837 40.3609Z" fill="#EA8529" stroke="#EA8529" stroke-width="0.8"/>
<path d="M47.3309 43.4309C47.6218 45.5255 47.8399 46.9297 47.9854 47.6437C48.1308 48.3578 48.2763 48.7624 48.4217 48.8576C48.4945 48.9052 48.5672 48.9529 48.6399 49.0004C48.446 47.5485 48.252 46.0967 48.0581 44.6447C47.6702 41.741 47.3793 40.2891 47.1854 40.2891C47.0884 40.2891 46.9915 40.2891 46.8945 40.2891C47.04 41.3363 47.1854 42.3836 47.3309 43.4309Z" fill="#EA8529" stroke="#EA8529" stroke-width="0.8"/>
<path d="M25.2223 42.0759C25.1252 43.1708 25.1495 43.861 25.295 44.1466C25.3677 44.2894 25.4404 44.4323 25.5132 44.5751C25.4889 44.0991 25.4647 43.623 25.4404 43.147C25.392 42.1949 25.4404 41.6475 25.5859 41.5047C25.7313 41.3619 25.8041 41.1952 25.8041 41.0048C25.8041 40.8145 25.7313 40.6717 25.5859 40.5764C25.5132 40.5288 25.4404 40.4811 25.3677 40.4336C25.3193 40.981 25.2707 41.5285 25.2223 42.0759Z" fill="#EA8529" stroke="#EA8529" stroke-width="0.8"/>
<path d="M25.5883 46.0031C25.6368 46.4791 25.7338 46.7647 25.8792 46.86C25.952 46.9075 26.0247 46.9552 26.0974 47.0028C26.1217 46.86 26.1458 46.7172 26.1701 46.5743C26.2186 46.2887 26.1944 46.027 26.0974 45.7889C26.0004 45.5508 25.8792 45.408 25.7338 45.3605C25.6611 45.3366 25.5883 45.3129 25.5156 45.2891C25.5399 45.5271 25.5641 45.765 25.5883 46.0031Z" fill="#EA8529" stroke="#EA8529" stroke-width="0.8"/>
<path d="M27.8268 16.1684C27.749 16.1754 27.6726 16.1985 27.6134 16.2141C27.5104 16.2411 27.3805 16.2135 27.2758 16.2368C27.0243 16.2931 26.8837 16.6344 26.859 16.8122C26.8501 16.8754 26.8947 17.1446 26.8143 17.182C26.7493 17.2122 25.8213 17.1445 25.5387 17.2003C24.9668 17.3131 24.1852 18.0462 24.0249 18.4513C23.966 18.6004 23.9093 18.6701 23.8165 18.7984C23.7403 18.9036 23.2823 19.0928 23.2258 19.369H23.2209C23.1451 19.5467 23.2074 19.4893 23.0322 19.8257C23.0183 19.8526 22.8915 20.0382 22.8983 20.0905C22.89 20.0906 22.8817 20.0904 22.8734 20.0905C22.8552 20.1238 22.8371 20.1578 22.8189 20.1909C22.7825 20.2573 22.9019 20.9594 23.1713 22.2959C23.4407 23.6323 23.756 24.5089 24.1192 24.9259C24.4825 25.3427 24.8756 25.5785 25.3005 25.6335C25.5129 25.6611 25.7235 25.6882 25.9358 25.7158C25.954 25.6825 25.9722 25.6485 25.9904 25.6152C26.0267 25.5488 25.9045 25.4865 25.6182 25.4281C25.3316 25.3696 25.0036 25.1327 24.6403 24.7158C24.2771 24.2989 24.139 24.3532 23.9505 23.8665C23.762 23.3798 23.524 22.2719 23.5087 21.5516C23.4936 20.8313 23.4554 20.4071 23.3896 20.2777C23.3761 20.251 23.3516 20.2395 23.3351 20.2183C23.3422 20.0825 23.2561 19.7459 23.3499 19.7023C23.556 19.6068 23.7762 19.5858 23.9157 19.4604C24.5842 18.8595 24.253 18.4209 25.0672 17.835C25.432 17.5723 25.5787 17.6063 26.0399 17.5154C26.186 17.4865 26.4961 17.4114 26.6604 17.424C26.8012 17.4348 26.9714 17.6266 27.0822 17.5975C27.4728 17.4951 27.2912 17.026 27.4445 16.8396C27.5526 16.7083 27.7597 16.4907 27.9459 16.4194C27.99 16.4026 28.1214 16.3983 28.1543 16.3785C28.1882 16.3579 28.0628 16.2188 28.0401 16.2049C27.9814 16.1688 27.9046 16.1614 27.8268 16.1684Z" fill="#EA8529" stroke="#EA8529" stroke-width="0.8"/>
</svg>
